<?xml version="1.0" encoding="utf-8" standalone="no"?>
<!DOCTYPE svg PUBLIC "-//W3C//DTD SVG 1.1//EN"
  "http://www.w3.org/Graphics/SVG/1.1/DTD/svg11.dtd">
<svg xmlns:xlink="http://www.w3.org/1999/xlink" width="460.8pt" height="345.6pt" viewBox="0 0 460.8 345.6" xmlns="http://www.w3.org/2000/svg" version="1.1">
 <metadata>
  <rdf:RDF xmlns:dc="http://purl.org/dc/elements/1.1/" xmlns:cc="http://creativecommons.org/ns#" xmlns:rdf="http://www.w3.org/1999/02/22-rdf-syntax-ns#">
   <cc:Work>
    <dc:type rdf:resource="http://purl.org/dc/dcmitype/StillImage"/>
    <dc:date>2023-12-30T16:53:32.936385</dc:date>
    <dc:format>image/svg+xml</dc:format>
    <dc:creator>
     <cc:Agent>
      <dc:title>Matplotlib v3.8.2, https://matplotlib.org/</dc:title>
     </cc:Agent>
    </dc:creator>
   </cc:Work>
  </rdf:RDF>
 </metadata>
 <defs>
  <style type="text/css">*{stroke-linejoin: round; stroke-linecap: butt}</style>
 </defs>
 <g id="figure_1">
  <g id="patch_1">
   <path d="M 0 345.6 
L 460.8 345.6 
L 460.8 0 
L 0 0 
z
" style="fill: #ffffff"/>
  </g>
  <g id="axes_1">
   <g id="patch_2">
    <path d="M 57.6 307.584 
L 414.72 307.584 
L 414.72 41.472 
L 57.6 41.472 
z
" style="fill: #ffffff"/>
   </g>
   <g id="patch_3">
    <path d="M 73.832727 307.584 
L 75.439928 307.584 
L 75.439928 -176.256 
L 73.832727 -176.256 
z
" clip-path="url(#p65402c0525)" style="fill: #0000ff; opacity: 0.25"/>
   </g>
   <g id="patch_4">
    <path d="M 75.439928 307.584 
L 77.047129 307.584 
L 77.047129 307.584 
L 75.439928 307.584 
z
" clip-path="url(#p65402c0525)" style="fill: #008000; opacity: 0.25"/>
   </g>
   <g id="patch_5">
    <path d="M 77.047129 307.584 
L 78.654329 307.584 
L 78.654329 -171.4176 
L 77.047129 -171.4176 
z
" clip-path="url(#p65402c0525)" style="fill: #0000ff; opacity: 0.25"/>
   </g>
   <g id="patch_6">
    <path d="M 78.654329 307.584 
L 80.26153 307.584 
L 80.26153 302.7456 
L 78.654329 302.7456 
z
" clip-path="url(#p65402c0525)" style="fill: #008000; opacity: 0.25"/>
   </g>
   <g id="patch_7">
    <path d="M 80.26153 307.584 
L 81.868731 307.584 
L 81.868731 -166.5792 
L 80.26153 -166.5792 
z
" clip-path="url(#p65402c0525)" style="fill: #0000ff; opacity: 0.25"/>
   </g>
   <g id="patch_8">
    <path d="M 81.868731 307.584 
L 83.475932 307.584 
L 83.475932 297.9072 
L 81.868731 297.9072 
z
" clip-path="url(#p65402c0525)" style="fill: #008000; opacity: 0.25"/>
   </g>
   <g id="patch_9">
    <path d="M 83.475932 307.584 
L 85.083132 307.584 
L 85.083132 -161.7408 
L 83.475932 -161.7408 
z
" clip-path="url(#p65402c0525)" style="fill: #0000ff; opacity: 0.25"/>
   </g>
   <g id="patch_10">
    <path d="M 85.083132 307.584 
L 86.690333 307.584 
L 86.690333 293.0688 
L 85.083132 293.0688 
z
" clip-path="url(#p65402c0525)" style="fill: #008000; opacity: 0.25"/>
   </g>
   <g id="patch_11">
    <path d="M 86.690333 307.584 
L 88.297534 307.584 
L 88.297534 -156.9024 
L 86.690333 -156.9024 
z
" clip-path="url(#p65402c0525)" style="fill: #0000ff; opacity: 0.25"/>
   </g>
   <g id="patch_12">
    <path d="M 88.297534 307.584 
L 89.904734 307.584 
L 89.904734 288.2304 
L 88.297534 288.2304 
z
" clip-path="url(#p65402c0525)" style="fill: #008000; opacity: 0.25"/>
   </g>
   <g id="patch_13">
    <path d="M 89.904734 307.584 
L 91.511935 307.584 
L 91.511935 -152.064 
L 89.904734 -152.064 
z
" clip-path="url(#p65402c0525)" style="fill: #0000ff; opacity: 0.25"/>
   </g>
   <g id="patch_14">
    <path d="M 91.511935 307.584 
L 93.119136 307.584 
L 93.119136 283.392 
L 91.511935 283.392 
z
" clip-path="url(#p65402c0525)" style="fill: #008000; opacity: 0.25"/>
   </g>
   <g id="patch_15">
    <path d="M 93.119136 307.584 
L 94.726337 307.584 
L 94.726337 -147.2256 
L 93.119136 -147.2256 
z
" clip-path="url(#p65402c0525)" style="fill: #0000ff; opacity: 0.25"/>
   </g>
   <g id="patch_16">
    <path d="M 94.726337 307.584 
L 96.333537 307.584 
L 96.333537 278.5536 
L 94.726337 278.5536 
z
" clip-path="url(#p65402c0525)" style="fill: #008000; opacity: 0.25"/>
   </g>
   <g id="patch_17">
    <path d="M 96.333537 307.584 
L 97.940738 307.584 
L 97.940738 -142.3872 
L 96.333537 -142.3872 
z
" clip-path="url(#p65402c0525)" style="fill: #0000ff; opacity: 0.25"/>
   </g>
   <g id="patch_18">
    <path d="M 97.940738 307.584 
L 99.547939 307.584 
L 99.547939 273.7152 
L 97.940738 273.7152 
z
" clip-path="url(#p65402c0525)" style="fill: #008000; opacity: 0.25"/>
   </g>
   <g id="patch_19">
    <path d="M 99.547939 307.584 
L 101.15514 307.584 
L 101.15514 -137.5488 
L 99.547939 -137.5488 
z
" clip-path="url(#p65402c0525)" style="fill: #0000ff; opacity: 0.25"/>
   </g>
   <g id="patch_20">
    <path d="M 101.15514 307.584 
L 102.76234 307.584 
L 102.76234 268.8768 
L 101.15514 268.8768 
z
" clip-path="url(#p65402c0525)" style="fill: #008000; opacity: 0.25"/>
   </g>
   <g id="patch_21">
    <path d="M 102.76234 307.584 
L 104.369541 307.584 
L 104.369541 -132.7104 
L 102.76234 -132.7104 
z
" clip-path="url(#p65402c0525)" style="fill: #0000ff; opacity: 0.25"/>
   </g>
   <g id="patch_22">
    <path d="M 104.369541 307.584 
L 105.976742 307.584 
L 105.976742 264.0384 
L 104.369541 264.0384 
z
" clip-path="url(#p65402c0525)" style="fill: #008000; opacity: 0.25"/>
   </g>
   <g id="patch_23">
    <path d="M 105.976742 307.584 
L 107.583942 307.584 
L 107.583942 -127.872 
L 105.976742 -127.872 
z
" clip-path="url(#p65402c0525)" style="fill: #0000ff; opacity: 0.25"/>
   </g>
   <g id="patch_24">
    <path d="M 107.583942 307.584 
L 109.191143 307.584 
L 109.191143 259.2 
L 107.583942 259.2 
z
" clip-path="url(#p65402c0525)" style="fill: #008000; opacity: 0.25"/>
   </g>
   <g id="patch_25">
    <path d="M 109.191143 307.584 
L 110.798344 307.584 
L 110.798344 -123.0336 
L 109.191143 -123.0336 
z
" clip-path="url(#p65402c0525)" style="fill: #0000ff; opacity: 0.25"/>
   </g>
   <g id="patch_26">
    <path d="M 110.798344 307.584 
L 112.405545 307.584 
L 112.405545 254.3616 
L 110.798344 254.3616 
z
" clip-path="url(#p65402c0525)" style="fill: #008000; opacity: 0.25"/>
   </g>
   <g id="patch_27">
    <path d="M 112.405545 307.584 
L 114.012745 307.584 
L 114.012745 -118.1952 
L 112.405545 -118.1952 
z
" clip-path="url(#p65402c0525)" style="fill: #0000ff; opacity: 0.25"/>
   </g>
   <g id="patch_28">
    <path d="M 114.012745 307.584 
L 115.619946 307.584 
L 115.619946 249.5232 
L 114.012745 249.5232 
z
" clip-path="url(#p65402c0525)" style="fill: #008000; opacity: 0.25"/>
   </g>
   <g id="patch_29">
    <path d="M 115.619946 307.584 
L 117.227147 307.584 
L 117.227147 -113.3568 
L 115.619946 -113.3568 
z
" clip-path="url(#p65402c0525)" style="fill: #0000ff; opacity: 0.25"/>
   </g>
   <g id="patch_30">
    <path d="M 117.227147 307.584 
L 118.834347 307.584 
L 118.834347 244.6848 
L 117.227147 244.6848 
z
" clip-path="url(#p65402c0525)" style="fill: #008000; opacity: 0.25"/>
   </g>
   <g id="patch_31">
    <path d="M 118.834347 307.584 
L 120.441548 307.584 
L 120.441548 -108.5184 
L 118.834347 -108.5184 
z
" clip-path="url(#p65402c0525)" style="fill: #0000ff; opacity: 0.25"/>
   </g>
   <g id="patch_32">
    <path d="M 120.441548 307.584 
L 122.048749 307.584 
L 122.048749 239.8464 
L 120.441548 239.8464 
z
" clip-path="url(#p65402c0525)" style="fill: #008000; opacity: 0.25"/>
   </g>
   <g id="patch_33">
    <path d="M 122.048749 307.584 
L 123.65595 307.584 
L 123.65595 -103.68 
L 122.048749 -103.68 
z
" clip-path="url(#p65402c0525)" style="fill: #0000ff; opacity: 0.25"/>
   </g>
   <g id="patch_34">
    <path d="M 123.65595 307.584 
L 125.26315 307.584 
L 125.26315 235.008 
L 123.65595 235.008 
z
" clip-path="url(#p65402c0525)" style="fill: #008000; opacity: 0.25"/>
   </g>
   <g id="patch_35">
    <path d="M 125.26315 307.584 
L 126.870351 307.584 
L 126.870351 -98.8416 
L 125.26315 -98.8416 
z
" clip-path="url(#p65402c0525)" style="fill: #0000ff; opacity: 0.25"/>
   </g>
   <g id="patch_36">
    <path d="M 126.870351 307.584 
L 128.477552 307.584 
L 128.477552 230.1696 
L 126.870351 230.1696 
z
" clip-path="url(#p65402c0525)" style="fill: #008000; opacity: 0.25"/>
   </g>
   <g id="patch_37">
    <path d="M 128.477552 307.584 
L 130.084752 307.584 
L 130.084752 -94.0032 
L 128.477552 -94.0032 
z
" clip-path="url(#p65402c0525)" style="fill: #0000ff; opacity: 0.25"/>
   </g>
   <g id="patch_38">
    <path d="M 130.084752 307.584 
L 131.691953 307.584 
L 131.691953 225.3312 
L 130.084752 225.3312 
z
" clip-path="url(#p65402c0525)" style="fill: #008000; opacity: 0.25"/>
   </g>
   <g id="patch_39">
    <path d="M 131.691953 307.584 
L 133.299154 307.584 
L 133.299154 -89.1648 
L 131.691953 -89.1648 
z
" clip-path="url(#p65402c0525)" style="fill: #0000ff; opacity: 0.25"/>
   </g>
   <g id="patch_40">
    <path d="M 133.299154 307.584 
L 134.906355 307.584 
L 134.906355 220.4928 
L 133.299154 220.4928 
z
" clip-path="url(#p65402c0525)" style="fill: #008000; opacity: 0.25"/>
   </g>
   <g id="patch_41">
    <path d="M 134.906355 307.584 
L 136.513555 307.584 
L 136.513555 -84.3264 
L 134.906355 -84.3264 
z
" clip-path="url(#p65402c0525)" style="fill: #0000ff; opacity: 0.25"/>
   </g>
   <g id="patch_42">
    <path d="M 136.513555 307.584 
L 138.120756 307.584 
L 138.120756 215.6544 
L 136.513555 215.6544 
z
" clip-path="url(#p65402c0525)" style="fill: #008000; opacity: 0.25"/>
   </g>
   <g id="patch_43">
    <path d="M 138.120756 307.584 
L 139.727957 307.584 
L 139.727957 -79.488 
L 138.120756 -79.488 
z
" clip-path="url(#p65402c0525)" style="fill: #0000ff; opacity: 0.25"/>
   </g>
   <g id="patch_44">
    <path d="M 139.727957 307.584 
L 141.335158 307.584 
L 141.335158 210.816 
L 139.727957 210.816 
z
" clip-path="url(#p65402c0525)" style="fill: #008000; opacity: 0.25"/>
   </g>
   <g id="patch_45">
    <path d="M 141.335158 307.584 
L 142.942358 307.584 
L 142.942358 -74.6496 
L 141.335158 -74.6496 
z
" clip-path="url(#p65402c0525)" style="fill: #0000ff; opacity: 0.25"/>
   </g>
   <g id="patch_46">
    <path d="M 142.942358 307.584 
L 144.549559 307.584 
L 144.549559 205.9776 
L 142.942358 205.9776 
z
" clip-path="url(#p65402c0525)" style="fill: #008000; opacity: 0.25"/>
   </g>
   <g id="patch_47">
    <path d="M 144.549559 307.584 
L 146.15676 307.584 
L 146.15676 -69.8112 
L 144.549559 -69.8112 
z
" clip-path="url(#p65402c0525)" style="fill: #0000ff; opacity: 0.25"/>
   </g>
   <g id="patch_48">
    <path d="M 146.15676 307.584 
L 147.76396 307.584 
L 147.76396 201.1392 
L 146.15676 201.1392 
z
" clip-path="url(#p65402c0525)" style="fill: #008000; opacity: 0.25"/>
   </g>
   <g id="patch_49">
    <path d="M 147.76396 307.584 
L 149.371161 307.584 
L 149.371161 -64.9728 
L 147.76396 -64.9728 
z
" clip-path="url(#p65402c0525)" style="fill: #0000ff; opacity: 0.25"/>
   </g>
   <g id="patch_50">
    <path d="M 149.371161 307.584 
L 150.978362 307.584 
L 150.978362 196.3008 
L 149.371161 196.3008 
z
" clip-path="url(#p65402c0525)" style="fill: #008000; opacity: 0.25"/>
   </g>
   <g id="patch_51">
    <path d="M 150.978362 307.584 
L 152.585563 307.584 
L 152.585563 -60.1344 
L 150.978362 -60.1344 
z
" clip-path="url(#p65402c0525)" style="fill: #0000ff; opacity: 0.25"/>
   </g>
   <g id="patch_52">
    <path d="M 152.585563 307.584 
L 154.192763 307.584 
L 154.192763 191.4624 
L 152.585563 191.4624 
z
" clip-path="url(#p65402c0525)" style="fill: #008000; opacity: 0.25"/>
   </g>
   <g id="patch_53">
    <path d="M 154.192763 307.584 
L 155.799964 307.584 
L 155.799964 -55.296 
L 154.192763 -55.296 
z
" clip-path="url(#p65402c0525)" style="fill: #0000ff; opacity: 0.25"/>
   </g>
   <g id="patch_54">
    <path d="M 155.799964 307.584 
L 157.407165 307.584 
L 157.407165 186.624 
L 155.799964 186.624 
z
" clip-path="url(#p65402c0525)" style="fill: #008000; opacity: 0.25"/>
   </g>
   <g id="patch_55">
    <path d="M 157.407165 307.584 
L 159.014365 307.584 
L 159.014365 -50.4576 
L 157.407165 -50.4576 
z
" clip-path="url(#p65402c0525)" style="fill: #0000ff; opacity: 0.25"/>
   </g>
   <g id="patch_56">
    <path d="M 159.014365 307.584 
L 160.621566 307.584 
L 160.621566 181.7856 
L 159.014365 181.7856 
z
" clip-path="url(#p65402c0525)" style="fill: #008000; opacity: 0.25"/>
   </g>
   <g id="patch_57">
    <path d="M 160.621566 307.584 
L 162.228767 307.584 
L 162.228767 -45.6192 
L 160.621566 -45.6192 
z
" clip-path="url(#p65402c0525)" style="fill: #0000ff; opacity: 0.25"/>
   </g>
   <g id="patch_58">
    <path d="M 162.228767 307.584 
L 163.835968 307.584 
L 163.835968 176.9472 
L 162.228767 176.9472 
z
" clip-path="url(#p65402c0525)" style="fill: #008000; opacity: 0.25"/>
   </g>
   <g id="patch_59">
    <path d="M 163.835968 307.584 
L 165.443168 307.584 
L 165.443168 -40.7808 
L 163.835968 -40.7808 
z
" clip-path="url(#p65402c0525)" style="fill: #0000ff; opacity: 0.25"/>
   </g>
   <g id="patch_60">
    <path d="M 165.443168 307.584 
L 167.050369 307.584 
L 167.050369 172.1088 
L 165.443168 172.1088 
z
" clip-path="url(#p65402c0525)" style="fill: #008000; opacity: 0.25"/>
   </g>
   <g id="patch_61">
    <path d="M 167.050369 307.584 
L 168.65757 307.584 
L 168.65757 -35.9424 
L 167.050369 -35.9424 
z
" clip-path="url(#p65402c0525)" style="fill: #0000ff; opacity: 0.25"/>
   </g>
   <g id="patch_62">
    <path d="M 168.65757 307.584 
L 170.26477 307.584 
L 170.26477 167.2704 
L 168.65757 167.2704 
z
" clip-path="url(#p65402c0525)" style="fill: #008000; opacity: 0.25"/>
   </g>
   <g id="patch_63">
    <path d="M 170.26477 307.584 
L 171.871971 307.584 
L 171.871971 -31.104 
L 170.26477 -31.104 
z
" clip-path="url(#p65402c0525)" style="fill: #0000ff; opacity: 0.25"/>
   </g>
   <g id="patch_64">
    <path d="M 171.871971 307.584 
L 173.479172 307.584 
L 173.479172 162.432 
L 171.871971 162.432 
z
" clip-path="url(#p65402c0525)" style="fill: #008000; opacity: 0.25"/>
   </g>
   <g id="patch_65">
    <path d="M 173.479172 307.584 
L 175.086373 307.584 
L 175.086373 -26.2656 
L 173.479172 -26.2656 
z
" clip-path="url(#p65402c0525)" style="fill: #0000ff; opacity: 0.25"/>
   </g>
   <g id="patch_66">
    <path d="M 175.086373 307.584 
L 176.693573 307.584 
L 176.693573 157.5936 
L 175.086373 157.5936 
z
" clip-path="url(#p65402c0525)" style="fill: #008000; opacity: 0.25"/>
   </g>
   <g id="patch_67">
    <path d="M 176.693573 307.584 
L 178.300774 307.584 
L 178.300774 -21.4272 
L 176.693573 -21.4272 
z
" clip-path="url(#p65402c0525)" style="fill: #0000ff; opacity: 0.25"/>
   </g>
   <g id="patch_68">
    <path d="M 178.300774 307.584 
L 179.907975 307.584 
L 179.907975 152.7552 
L 178.300774 152.7552 
z
" clip-path="url(#p65402c0525)" style="fill: #008000; opacity: 0.25"/>
   </g>
   <g id="patch_69">
    <path d="M 179.907975 307.584 
L 181.515176 307.584 
L 181.515176 -16.5888 
L 179.907975 -16.5888 
z
" clip-path="url(#p65402c0525)" style="fill: #0000ff; opacity: 0.25"/>
   </g>
   <g id="patch_70">
    <path d="M 181.515176 307.584 
L 183.122376 307.584 
L 183.122376 147.9168 
L 181.515176 147.9168 
z
" clip-path="url(#p65402c0525)" style="fill: #008000; opacity: 0.25"/>
   </g>
   <g id="patch_71">
    <path d="M 183.122376 307.584 
L 184.729577 307.584 
L 184.729577 -11.7504 
L 183.122376 -11.7504 
z
" clip-path="url(#p65402c0525)" style="fill: #0000ff; opacity: 0.25"/>
   </g>
   <g id="patch_72">
    <path d="M 184.729577 307.584 
L 186.336778 307.584 
L 186.336778 143.0784 
L 184.729577 143.0784 
z
" clip-path="url(#p65402c0525)" style="fill: #008000; opacity: 0.25"/>
   </g>
   <g id="patch_73">
    <path d="M 186.336778 307.584 
L 187.943978 307.584 
L 187.943978 -6.912 
L 186.336778 -6.912 
z
" clip-path="url(#p65402c0525)" style="fill: #0000ff; opacity: 0.25"/>
   </g>
   <g id="patch_74">
    <path d="M 187.943978 307.584 
L 189.551179 307.584 
L 189.551179 138.24 
L 187.943978 138.24 
z
" clip-path="url(#p65402c0525)" style="fill: #008000; opacity: 0.25"/>
   </g>
   <g id="patch_75">
    <path d="M 189.551179 307.584 
L 191.15838 307.584 
L 191.15838 -2.0736 
L 189.551179 -2.0736 
z
" clip-path="url(#p65402c0525)" style="fill: #0000ff; opacity: 0.25"/>
   </g>
   <g id="patch_76">
    <path d="M 191.15838 307.584 
L 192.765581 307.584 
L 192.765581 133.4016 
L 191.15838 133.4016 
z
" clip-path="url(#p65402c0525)" style="fill: #008000; opacity: 0.25"/>
   </g>
   <g id="patch_77">
    <path d="M 192.765581 307.584 
L 194.372781 307.584 
L 194.372781 2.7648 
L 192.765581 2.7648 
z
" clip-path="url(#p65402c0525)" style="fill: #0000ff; opacity: 0.25"/>
   </g>
   <g id="patch_78">
    <path d="M 194.372781 307.584 
L 195.979982 307.584 
L 195.979982 128.5632 
L 194.372781 128.5632 
z
" clip-path="url(#p65402c0525)" style="fill: #008000; opacity: 0.25"/>
   </g>
   <g id="patch_79">
    <path d="M 195.979982 307.584 
L 197.587183 307.584 
L 197.587183 7.6032 
L 195.979982 7.6032 
z
" clip-path="url(#p65402c0525)" style="fill: #0000ff; opacity: 0.25"/>
   </g>
   <g id="patch_80">
    <path d="M 197.587183 307.584 
L 199.194383 307.584 
L 199.194383 123.7248 
L 197.587183 123.7248 
z
" clip-path="url(#p65402c0525)" style="fill: #008000; opacity: 0.25"/>
   </g>
   <g id="patch_81">
    <path d="M 199.194383 307.584 
L 200.801584 307.584 
L 200.801584 12.4416 
L 199.194383 12.4416 
z
" clip-path="url(#p65402c0525)" style="fill: #0000ff; opacity: 0.25"/>
   </g>
   <g id="patch_82">
    <path d="M 200.801584 307.584 
L 202.408785 307.584 
L 202.408785 118.8864 
L 200.801584 118.8864 
z
" clip-path="url(#p65402c0525)" style="fill: #008000; opacity: 0.25"/>
   </g>
   <g id="patch_83">
    <path d="M 202.408785 307.584 
L 204.015986 307.584 
L 204.015986 17.28 
L 202.408785 17.28 
z
" clip-path="url(#p65402c0525)" style="fill: #0000ff; opacity: 0.25"/>
   </g>
   <g id="patch_84">
    <path d="M 204.015986 307.584 
L 205.623186 307.584 
L 205.623186 114.048 
L 204.015986 114.048 
z
" clip-path="url(#p65402c0525)" style="fill: #008000; opacity: 0.25"/>
   </g>
   <g id="patch_85">
    <path d="M 205.623186 307.584 
L 207.230387 307.584 
L 207.230387 22.1184 
L 205.623186 22.1184 
z
" clip-path="url(#p65402c0525)" style="fill: #0000ff; opacity: 0.25"/>
   </g>
   <g id="patch_86">
    <path d="M 207.230387 307.584 
L 208.837588 307.584 
L 208.837588 109.2096 
L 207.230387 109.2096 
z
" clip-path="url(#p65402c0525)" style="fill: #008000; opacity: 0.25"/>
   </g>
   <g id="patch_87">
    <path d="M 208.837588 307.584 
L 210.444788 307.584 
L 210.444788 26.9568 
L 208.837588 26.9568 
z
" clip-path="url(#p65402c0525)" style="fill: #0000ff; opacity: 0.25"/>
   </g>
   <g id="patch_88">
    <path d="M 210.444788 307.584 
L 212.051989 307.584 
L 212.051989 104.3712 
L 210.444788 104.3712 
z
" clip-path="url(#p65402c0525)" style="fill: #008000; opacity: 0.25"/>
   </g>
   <g id="patch_89">
    <path d="M 212.051989 307.584 
L 213.65919 307.584 
L 213.65919 31.7952 
L 212.051989 31.7952 
z
" clip-path="url(#p65402c0525)" style="fill: #0000ff; opacity: 0.25"/>
   </g>
   <g id="patch_90">
    <path d="M 213.65919 307.584 
L 215.266391 307.584 
L 215.266391 99.5328 
L 213.65919 99.5328 
z
" clip-path="url(#p65402c0525)" style="fill: #008000; opacity: 0.25"/>
   </g>
   <g id="patch_91">
    <path d="M 215.266391 307.584 
L 216.873591 307.584 
L 216.873591 36.6336 
L 215.266391 36.6336 
z
" clip-path="url(#p65402c0525)" style="fill: #0000ff; opacity: 0.25"/>
   </g>
   <g id="patch_92">
    <path d="M 216.873591 307.584 
L 218.480792 307.584 
L 218.480792 94.6944 
L 216.873591 94.6944 
z
" clip-path="url(#p65402c0525)" style="fill: #008000; opacity: 0.25"/>
   </g>
   <g id="patch_93">
    <path d="M 218.480792 307.584 
L 220.087993 307.584 
L 220.087993 41.472 
L 218.480792 41.472 
z
" clip-path="url(#p65402c0525)" style="fill: #0000ff; opacity: 0.25"/>
   </g>
   <g id="patch_94">
    <path d="M 220.087993 307.584 
L 221.695194 307.584 
L 221.695194 89.856 
L 220.087993 89.856 
z
" clip-path="url(#p65402c0525)" style="fill: #008000; opacity: 0.25"/>
   </g>
   <g id="patch_95">
    <path d="M 221.695194 307.584 
L 223.302394 307.584 
L 223.302394 46.3104 
L 221.695194 46.3104 
z
" clip-path="url(#p65402c0525)" style="fill: #0000ff; opacity: 0.25"/>
   </g>
   <g id="patch_96">
    <path d="M 223.302394 307.584 
L 224.909595 307.584 
L 224.909595 85.0176 
L 223.302394 85.0176 
z
" clip-path="url(#p65402c0525)" style="fill: #008000; opacity: 0.25"/>
   </g>
   <g id="patch_97">
    <path d="M 224.909595 307.584 
L 226.516796 307.584 
L 226.516796 51.1488 
L 224.909595 51.1488 
z
" clip-path="url(#p65402c0525)" style="fill: #0000ff; opacity: 0.25"/>
   </g>
   <g id="patch_98">
    <path d="M 226.516796 307.584 
L 228.123996 307.584 
L 228.123996 80.1792 
L 226.516796 80.1792 
z
" clip-path="url(#p65402c0525)" style="fill: #008000; opacity: 0.25"/>
   </g>
   <g id="patch_99">
    <path d="M 228.123996 307.584 
L 229.731197 307.584 
L 229.731197 55.9872 
L 228.123996 55.9872 
z
" clip-path="url(#p65402c0525)" style="fill: #0000ff; opacity: 0.25"/>
   </g>
   <g id="patch_100">
    <path d="M 229.731197 307.584 
L 231.338398 307.584 
L 231.338398 75.3408 
L 229.731197 75.3408 
z
" clip-path="url(#p65402c0525)" style="fill: #008000; opacity: 0.25"/>
   </g>
   <g id="patch_101">
    <path d="M 231.338398 307.584 
L 232.945599 307.584 
L 232.945599 60.8256 
L 231.338398 60.8256 
z
" clip-path="url(#p65402c0525)" style="fill: #0000ff; opacity: 0.25"/>
   </g>
   <g id="patch_102">
    <path d="M 232.945599 307.584 
L 234.552799 307.584 
L 234.552799 70.5024 
L 232.945599 70.5024 
z
" clip-path="url(#p65402c0525)" style="fill: #008000; opacity: 0.25"/>
   </g>
   <g id="patch_103">
    <path d="M 234.552799 307.584 
L 236.16 307.584 
L 236.16 65.664 
L 234.552799 65.664 
z
" clip-path="url(#p65402c0525)" style="fill: #0000ff; opacity: 0.25"/>
   </g>
   <g id="patch_104">
    <path d="M 236.16 307.584 
L 237.767201 307.584 
L 237.767201 65.664 
L 236.16 65.664 
z
" clip-path="url(#p65402c0525)" style="fill: #008000; opacity: 0.25"/>
   </g>
   <g id="patch_105">
    <path d="M 237.767201 307.584 
L 239.374401 307.584 
L 239.374401 70.5024 
L 237.767201 70.5024 
z
" clip-path="url(#p65402c0525)" style="fill: #0000ff; opacity: 0.25"/>
   </g>
   <g id="patch_106">
    <path d="M 239.374401 307.584 
L 240.981602 307.584 
L 240.981602 60.8256 
L 239.374401 60.8256 
z
" clip-path="url(#p65402c0525)" style="fill: #008000; opacity: 0.25"/>
   </g>
   <g id="patch_107">
    <path d="M 240.981602 307.584 
L 242.588803 307.584 
L 242.588803 75.3408 
L 240.981602 75.3408 
z
" clip-path="url(#p65402c0525)" style="fill: #0000ff; opacity: 0.25"/>
   </g>
   <g id="patch_108">
    <path d="M 242.588803 307.584 
L 244.196004 307.584 
L 244.196004 55.9872 
L 242.588803 55.9872 
z
" clip-path="url(#p65402c0525)" style="fill: #008000; opacity: 0.25"/>
   </g>
   <g id="patch_109">
    <path d="M 244.196004 307.584 
L 245.803204 307.584 
L 245.803204 80.1792 
L 244.196004 80.1792 
z
" clip-path="url(#p65402c0525)" style="fill: #0000ff; opacity: 0.25"/>
   </g>
   <g id="patch_110">
    <path d="M 245.803204 307.584 
L 247.410405 307.584 
L 247.410405 51.1488 
L 245.803204 51.1488 
z
" clip-path="url(#p65402c0525)" style="fill: #008000; opacity: 0.25"/>
   </g>
   <g id="patch_111">
    <path d="M 247.410405 307.584 
L 249.017606 307.584 
L 249.017606 85.0176 
L 247.410405 85.0176 
z
" clip-path="url(#p65402c0525)" style="fill: #0000ff; opacity: 0.25"/>
   </g>
   <g id="patch_112">
    <path d="M 249.017606 307.584 
L 250.624806 307.584 
L 250.624806 46.3104 
L 249.017606 46.3104 
z
" clip-path="url(#p65402c0525)" style="fill: #008000; opacity: 0.25"/>
   </g>
   <g id="patch_113">
    <path d="M 250.624806 307.584 
L 252.232007 307.584 
L 252.232007 89.856 
L 250.624806 89.856 
z
" clip-path="url(#p65402c0525)" style="fill: #0000ff; opacity: 0.25"/>
   </g>
   <g id="patch_114">
    <path d="M 252.232007 307.584 
L 253.839208 307.584 
L 253.839208 41.472 
L 252.232007 41.472 
z
" clip-path="url(#p65402c0525)" style="fill: #008000; opacity: 0.25"/>
   </g>
   <g id="patch_115">
    <path d="M 253.839208 307.584 
L 255.446409 307.584 
L 255.446409 94.6944 
L 253.839208 94.6944 
z
" clip-path="url(#p65402c0525)" style="fill: #0000ff; opacity: 0.25"/>
   </g>
   <g id="patch_116">
    <path d="M 255.446409 307.584 
L 257.053609 307.584 
L 257.053609 36.6336 
L 255.446409 36.6336 
z
" clip-path="url(#p65402c0525)" style="fill: #008000; opacity: 0.25"/>
   </g>
   <g id="patch_117">
    <path d="M 257.053609 307.584 
L 258.66081 307.584 
L 258.66081 99.5328 
L 257.053609 99.5328 
z
" clip-path="url(#p65402c0525)" style="fill: #0000ff; opacity: 0.25"/>
   </g>
   <g id="patch_118">
    <path d="M 258.66081 307.584 
L 260.268011 307.584 
L 260.268011 31.7952 
L 258.66081 31.7952 
z
" clip-path="url(#p65402c0525)" style="fill: #008000; opacity: 0.25"/>
   </g>
   <g id="patch_119">
    <path d="M 260.268011 307.584 
L 261.875212 307.584 
L 261.875212 104.3712 
L 260.268011 104.3712 
z
" clip-path="url(#p65402c0525)" style="fill: #0000ff; opacity: 0.25"/>
   </g>
   <g id="patch_120">
    <path d="M 261.875212 307.584 
L 263.482412 307.584 
L 263.482412 26.9568 
L 261.875212 26.9568 
z
" clip-path="url(#p65402c0525)" style="fill: #008000; opacity: 0.25"/>
   </g>
   <g id="patch_121">
    <path d="M 263.482412 307.584 
L 265.089613 307.584 
L 265.089613 109.2096 
L 263.482412 109.2096 
z
" clip-path="url(#p65402c0525)" style="fill: #0000ff; opacity: 0.25"/>
   </g>
   <g id="patch_122">
    <path d="M 265.089613 307.584 
L 266.696814 307.584 
L 266.696814 22.1184 
L 265.089613 22.1184 
z
" clip-path="url(#p65402c0525)" style="fill: #008000; opacity: 0.25"/>
   </g>
   <g id="patch_123">
    <path d="M 266.696814 307.584 
L 268.304014 307.584 
L 268.304014 114.048 
L 266.696814 114.048 
z
" clip-path="url(#p65402c0525)" style="fill: #0000ff; opacity: 0.25"/>
   </g>
   <g id="patch_124">
    <path d="M 268.304014 307.584 
L 269.911215 307.584 
L 269.911215 17.28 
L 268.304014 17.28 
z
" clip-path="url(#p65402c0525)" style="fill: #008000; opacity: 0.25"/>
   </g>
   <g id="patch_125">
    <path d="M 269.911215 307.584 
L 271.518416 307.584 
L 271.518416 118.8864 
L 269.911215 118.8864 
z
" clip-path="url(#p65402c0525)" style="fill: #0000ff; opacity: 0.25"/>
   </g>
   <g id="patch_126">
    <path d="M 271.518416 307.584 
L 273.125617 307.584 
L 273.125617 12.4416 
L 271.518416 12.4416 
z
" clip-path="url(#p65402c0525)" style="fill: #008000; opacity: 0.25"/>
   </g>
   <g id="patch_127">
    <path d="M 273.125617 307.584 
L 274.732817 307.584 
L 274.732817 123.7248 
L 273.125617 123.7248 
z
" clip-path="url(#p65402c0525)" style="fill: #0000ff; opacity: 0.25"/>
   </g>
   <g id="patch_128">
    <path d="M 274.732817 307.584 
L 276.340018 307.584 
L 276.340018 7.6032 
L 274.732817 7.6032 
z
" clip-path="url(#p65402c0525)" style="fill: #008000; opacity: 0.25"/>
   </g>
   <g id="patch_129">
    <path d="M 276.340018 307.584 
L 277.947219 307.584 
L 277.947219 128.5632 
L 276.340018 128.5632 
z
" clip-path="url(#p65402c0525)" style="fill: #0000ff; opacity: 0.25"/>
   </g>
   <g id="patch_130">
    <path d="M 277.947219 307.584 
L 279.554419 307.584 
L 279.554419 2.7648 
L 277.947219 2.7648 
z
" clip-path="url(#p65402c0525)" style="fill: #008000; opacity: 0.25"/>
   </g>
   <g id="patch_131">
    <path d="M 279.554419 307.584 
L 281.16162 307.584 
L 281.16162 133.4016 
L 279.554419 133.4016 
z
" clip-path="url(#p65402c0525)" style="fill: #0000ff; opacity: 0.25"/>
   </g>
   <g id="patch_132">
    <path d="M 281.16162 307.584 
L 282.768821 307.584 
L 282.768821 -2.0736 
L 281.16162 -2.0736 
z
" clip-path="url(#p65402c0525)" style="fill: #008000; opacity: 0.25"/>
   </g>
   <g id="patch_133">
    <path d="M 282.768821 307.584 
L 284.376022 307.584 
L 284.376022 138.24 
L 282.768821 138.24 
z
" clip-path="url(#p65402c0525)" style="fill: #0000ff; opacity: 0.25"/>
   </g>
   <g id="patch_134">
    <path d="M 284.376022 307.584 
L 285.983222 307.584 
L 285.983222 -6.912 
L 284.376022 -6.912 
z
" clip-path="url(#p65402c0525)" style="fill: #008000; opacity: 0.25"/>
   </g>
   <g id="patch_135">
    <path d="M 285.983222 307.584 
L 287.590423 307.584 
L 287.590423 143.0784 
L 285.983222 143.0784 
z
" clip-path="url(#p65402c0525)" style="fill: #0000ff; opacity: 0.25"/>
   </g>
   <g id="patch_136">
    <path d="M 287.590423 307.584 
L 289.197624 307.584 
L 289.197624 -11.7504 
L 287.590423 -11.7504 
z
" clip-path="url(#p65402c0525)" style="fill: #008000; opacity: 0.25"/>
   </g>
   <g id="patch_137">
    <path d="M 289.197624 307.584 
L 290.804824 307.584 
L 290.804824 147.9168 
L 289.197624 147.9168 
z
" clip-path="url(#p65402c0525)" style="fill: #0000ff; opacity: 0.25"/>
   </g>
   <g id="patch_138">
    <path d="M 290.804824 307.584 
L 292.412025 307.584 
L 292.412025 -16.5888 
L 290.804824 -16.5888 
z
" clip-path="url(#p65402c0525)" style="fill: #008000; opacity: 0.25"/>
   </g>
   <g id="patch_139">
    <path d="M 292.412025 307.584 
L 294.019226 307.584 
L 294.019226 152.7552 
L 292.412025 152.7552 
z
" clip-path="url(#p65402c0525)" style="fill: #0000ff; opacity: 0.25"/>
   </g>
   <g id="patch_140">
    <path d="M 294.019226 307.584 
L 295.626427 307.584 
L 295.626427 -21.4272 
L 294.019226 -21.4272 
z
" clip-path="url(#p65402c0525)" style="fill: #008000; opacity: 0.25"/>
   </g>
   <g id="patch_141">
    <path d="M 295.626427 307.584 
L 297.233627 307.584 
L 297.233627 157.5936 
L 295.626427 157.5936 
z
" clip-path="url(#p65402c0525)" style="fill: #0000ff; opacity: 0.25"/>
   </g>
   <g id="patch_142">
    <path d="M 297.233627 307.584 
L 298.840828 307.584 
L 298.840828 -26.2656 
L 297.233627 -26.2656 
z
" clip-path="url(#p65402c0525)" style="fill: #008000; opacity: 0.25"/>
   </g>
   <g id="patch_143">
    <path d="M 298.840828 307.584 
L 300.448029 307.584 
L 300.448029 162.432 
L 298.840828 162.432 
z
" clip-path="url(#p65402c0525)" style="fill: #0000ff; opacity: 0.25"/>
   </g>
   <g id="patch_144">
    <path d="M 300.448029 307.584 
L 302.05523 307.584 
L 302.05523 -31.104 
L 300.448029 -31.104 
z
" clip-path="url(#p65402c0525)" style="fill: #008000; opacity: 0.25"/>
   </g>
   <g id="patch_145">
    <path d="M 302.05523 307.584 
L 303.66243 307.584 
L 303.66243 167.2704 
L 302.05523 167.2704 
z
" clip-path="url(#p65402c0525)" style="fill: #0000ff; opacity: 0.25"/>
   </g>
   <g id="patch_146">
    <path d="M 303.66243 307.584 
L 305.269631 307.584 
L 305.269631 -35.9424 
L 303.66243 -35.9424 
z
" clip-path="url(#p65402c0525)" style="fill: #008000; opacity: 0.25"/>
   </g>
   <g id="patch_147">
    <path d="M 305.269631 307.584 
L 306.876832 307.584 
L 306.876832 172.1088 
L 305.269631 172.1088 
z
" clip-path="url(#p65402c0525)" style="fill: #0000ff; opacity: 0.25"/>
   </g>
   <g id="patch_148">
    <path d="M 306.876832 307.584 
L 308.484032 307.584 
L 308.484032 -40.7808 
L 306.876832 -40.7808 
z
" clip-path="url(#p65402c0525)" style="fill: #008000; opacity: 0.25"/>
   </g>
   <g id="patch_149">
    <path d="M 308.484032 307.584 
L 310.091233 307.584 
L 310.091233 176.9472 
L 308.484032 176.9472 
z
" clip-path="url(#p65402c0525)" style="fill: #0000ff; opacity: 0.25"/>
   </g>
   <g id="patch_150">
    <path d="M 310.091233 307.584 
L 311.698434 307.584 
L 311.698434 -45.6192 
L 310.091233 -45.6192 
z
" clip-path="url(#p65402c0525)" style="fill: #008000; opacity: 0.25"/>
   </g>
   <g id="patch_151">
    <path d="M 311.698434 307.584 
L 313.305635 307.584 
L 313.305635 181.7856 
L 311.698434 181.7856 
z
" clip-path="url(#p65402c0525)" style="fill: #0000ff; opacity: 0.25"/>
   </g>
   <g id="patch_152">
    <path d="M 313.305635 307.584 
L 314.912835 307.584 
L 314.912835 -50.4576 
L 313.305635 -50.4576 
z
" clip-path="url(#p65402c0525)" style="fill: #008000; opacity: 0.25"/>
   </g>
   <g id="patch_153">
    <path d="M 314.912835 307.584 
L 316.520036 307.584 
L 316.520036 186.624 
L 314.912835 186.624 
z
" clip-path="url(#p65402c0525)" style="fill: #0000ff; opacity: 0.25"/>
   </g>
   <g id="patch_154">
    <path d="M 316.520036 307.584 
L 318.127237 307.584 
L 318.127237 -55.296 
L 316.520036 -55.296 
z
" clip-path="url(#p65402c0525)" style="fill: #008000; opacity: 0.25"/>
   </g>
   <g id="patch_155">
    <path d="M 318.127237 307.584 
L 319.734437 307.584 
L 319.734437 191.4624 
L 318.127237 191.4624 
z
" clip-path="url(#p65402c0525)" style="fill: #0000ff; opacity: 0.25"/>
   </g>
   <g id="patch_156">
    <path d="M 319.734437 307.584 
L 321.341638 307.584 
L 321.341638 -60.1344 
L 319.734437 -60.1344 
z
" clip-path="url(#p65402c0525)" style="fill: #008000; opacity: 0.25"/>
   </g>
   <g id="patch_157">
    <path d="M 321.341638 307.584 
L 322.948839 307.584 
L 322.948839 196.3008 
L 321.341638 196.3008 
z
" clip-path="url(#p65402c0525)" style="fill: #0000ff; opacity: 0.25"/>
   </g>
   <g id="patch_158">
    <path d="M 322.948839 307.584 
L 324.55604 307.584 
L 324.55604 -64.9728 
L 322.948839 -64.9728 
z
" clip-path="url(#p65402c0525)" style="fill: #008000; opacity: 0.25"/>
   </g>
   <g id="patch_159">
    <path d="M 324.55604 307.584 
L 326.16324 307.584 
L 326.16324 201.1392 
L 324.55604 201.1392 
z
" clip-path="url(#p65402c0525)" style="fill: #0000ff; opacity: 0.25"/>
   </g>
   <g id="patch_160">
    <path d="M 326.16324 307.584 
L 327.770441 307.584 
L 327.770441 -69.8112 
L 326.16324 -69.8112 
z
" clip-path="url(#p65402c0525)" style="fill: #008000; opacity: 0.25"/>
   </g>
   <g id="patch_161">
    <path d="M 327.770441 307.584 
L 329.377642 307.584 
L 329.377642 205.9776 
L 327.770441 205.9776 
z
" clip-path="url(#p65402c0525)" style="fill: #0000ff; opacity: 0.25"/>
   </g>
   <g id="patch_162">
    <path d="M 329.377642 307.584 
L 330.984842 307.584 
L 330.984842 -74.6496 
L 329.377642 -74.6496 
z
" clip-path="url(#p65402c0525)" style="fill: #008000; opacity: 0.25"/>
   </g>
   <g id="patch_163">
    <path d="M 330.984842 307.584 
L 332.592043 307.584 
L 332.592043 210.816 
L 330.984842 210.816 
z
" clip-path="url(#p65402c0525)" style="fill: #0000ff; opacity: 0.25"/>
   </g>
   <g id="patch_164">
    <path d="M 332.592043 307.584 
L 334.199244 307.584 
L 334.199244 -79.488 
L 332.592043 -79.488 
z
" clip-path="url(#p65402c0525)" style="fill: #008000; opacity: 0.25"/>
   </g>
   <g id="patch_165">
    <path d="M 334.199244 307.584 
L 335.806445 307.584 
L 335.806445 215.6544 
L 334.199244 215.6544 
z
" clip-path="url(#p65402c0525)" style="fill: #0000ff; opacity: 0.25"/>
   </g>
   <g id="patch_166">
    <path d="M 335.806445 307.584 
L 337.413645 307.584 
L 337.413645 -84.3264 
L 335.806445 -84.3264 
z
" clip-path="url(#p65402c0525)" style="fill: #008000; opacity: 0.25"/>
   </g>
   <g id="patch_167">
    <path d="M 337.413645 307.584 
L 339.020846 307.584 
L 339.020846 220.4928 
L 337.413645 220.4928 
z
" clip-path="url(#p65402c0525)" style="fill: #0000ff; opacity: 0.25"/>
   </g>
   <g id="patch_168">
    <path d="M 339.020846 307.584 
L 340.628047 307.584 
L 340.628047 -89.1648 
L 339.020846 -89.1648 
z
" clip-path="url(#p65402c0525)" style="fill: #008000; opacity: 0.25"/>
   </g>
   <g id="patch_169">
    <path d="M 340.628047 307.584 
L 342.235248 307.584 
L 342.235248 225.3312 
L 340.628047 225.3312 
z
" clip-path="url(#p65402c0525)" style="fill: #0000ff; opacity: 0.25"/>
   </g>
   <g id="patch_170">
    <path d="M 342.235248 307.584 
L 343.842448 307.584 
L 343.842448 -94.0032 
L 342.235248 -94.0032 
z
" clip-path="url(#p65402c0525)" style="fill: #008000; opacity: 0.25"/>
   </g>
   <g id="patch_171">
    <path d="M 343.842448 307.584 
L 345.449649 307.584 
L 345.449649 230.1696 
L 343.842448 230.1696 
z
" clip-path="url(#p65402c0525)" style="fill: #0000ff; opacity: 0.25"/>
   </g>
   <g id="patch_172">
    <path d="M 345.449649 307.584 
L 347.05685 307.584 
L 347.05685 -98.8416 
L 345.449649 -98.8416 
z
" clip-path="url(#p65402c0525)" style="fill: #008000; opacity: 0.25"/>
   </g>
   <g id="patch_173">
    <path d="M 347.05685 307.584 
L 348.66405 307.584 
L 348.66405 235.008 
L 347.05685 235.008 
z
" clip-path="url(#p65402c0525)" style="fill: #0000ff; opacity: 0.25"/>
   </g>
   <g id="patch_174">
    <path d="M 348.66405 307.584 
L 350.271251 307.584 
L 350.271251 -103.68 
L 348.66405 -103.68 
z
" clip-path="url(#p65402c0525)" style="fill: #008000; opacity: 0.25"/>
   </g>
   <g id="patch_175">
    <path d="M 350.271251 307.584 
L 351.878452 307.584 
L 351.878452 239.8464 
L 350.271251 239.8464 
z
" clip-path="url(#p65402c0525)" style="fill: #0000ff; opacity: 0.25"/>
   </g>
   <g id="patch_176">
    <path d="M 351.878452 307.584 
L 353.485653 307.584 
L 353.485653 -108.5184 
L 351.878452 -108.5184 
z
" clip-path="url(#p65402c0525)" style="fill: #008000; opacity: 0.25"/>
   </g>
   <g id="patch_177">
    <path d="M 353.485653 307.584 
L 355.092853 307.584 
L 355.092853 244.6848 
L 353.485653 244.6848 
z
" clip-path="url(#p65402c0525)" style="fill: #0000ff; opacity: 0.25"/>
   </g>
   <g id="patch_178">
    <path d="M 355.092853 307.584 
L 356.700054 307.584 
L 356.700054 -113.3568 
L 355.092853 -113.3568 
z
" clip-path="url(#p65402c0525)" style="fill: #008000; opacity: 0.25"/>
   </g>
   <g id="patch_179">
    <path d="M 356.700054 307.584 
L 358.307255 307.584 
L 358.307255 249.5232 
L 356.700054 249.5232 
z
" clip-path="url(#p65402c0525)" style="fill: #0000ff; opacity: 0.25"/>
   </g>
   <g id="patch_180">
    <path d="M 358.307255 307.584 
L 359.914455 307.584 
L 359.914455 -118.1952 
L 358.307255 -118.1952 
z
" clip-path="url(#p65402c0525)" style="fill: #008000; opacity: 0.25"/>
   </g>
   <g id="patch_181">
    <path d="M 359.914455 307.584 
L 361.521656 307.584 
L 361.521656 254.3616 
L 359.914455 254.3616 
z
" clip-path="url(#p65402c0525)" style="fill: #0000ff; opacity: 0.25"/>
   </g>
   <g id="patch_182">
    <path d="M 361.521656 307.584 
L 363.128857 307.584 
L 363.128857 -123.0336 
L 361.521656 -123.0336 
z
" clip-path="url(#p65402c0525)" style="fill: #008000; opacity: 0.25"/>
   </g>
   <g id="patch_183">
    <path d="M 363.128857 307.584 
L 364.736058 307.584 
L 364.736058 259.2 
L 363.128857 259.2 
z
" clip-path="url(#p65402c0525)" style="fill: #0000ff; opacity: 0.25"/>
   </g>
   <g id="patch_184">
    <path d="M 364.736058 307.584 
L 366.343258 307.584 
L 366.343258 -127.872 
L 364.736058 -127.872 
z
" clip-path="url(#p65402c0525)" style="fill: #008000; opacity: 0.25"/>
   </g>
   <g id="patch_185">
    <path d="M 366.343258 307.584 
L 367.950459 307.584 
L 367.950459 264.0384 
L 366.343258 264.0384 
z
" clip-path="url(#p65402c0525)" style="fill: #0000ff; opacity: 0.25"/>
   </g>
   <g id="patch_186">
    <path d="M 367.950459 307.584 
L 369.55766 307.584 
L 369.55766 -132.7104 
L 367.950459 -132.7104 
z
" clip-path="url(#p65402c0525)" style="fill: #008000; opacity: 0.25"/>
   </g>
   <g id="patch_187">
    <path d="M 369.55766 307.584 
L 371.16486 307.584 
L 371.16486 268.8768 
L 369.55766 268.8768 
z
" clip-path="url(#p65402c0525)" style="fill: #0000ff; opacity: 0.25"/>
   </g>
   <g id="patch_188">
    <path d="M 371.16486 307.584 
L 372.772061 307.584 
L 372.772061 -137.5488 
L 371.16486 -137.5488 
z
" clip-path="url(#p65402c0525)" style="fill: #008000; opacity: 0.25"/>
   </g>
   <g id="patch_189">
    <path d="M 372.772061 307.584 
L 374.379262 307.584 
L 374.379262 273.7152 
L 372.772061 273.7152 
z
" clip-path="url(#p65402c0525)" style="fill: #0000ff; opacity: 0.25"/>
   </g>
   <g id="patch_190">
    <path d="M 374.379262 307.584 
L 375.986463 307.584 
L 375.986463 -142.3872 
L 374.379262 -142.3872 
z
" clip-path="url(#p65402c0525)" style="fill: #008000; opacity: 0.25"/>
   </g>
   <g id="patch_191">
    <path d="M 375.986463 307.584 
L 377.593663 307.584 
L 377.593663 278.5536 
L 375.986463 278.5536 
z
" clip-path="url(#p65402c0525)" style="fill: #0000ff; opacity: 0.25"/>
   </g>
   <g id="patch_192">
    <path d="M 377.593663 307.584 
L 379.200864 307.584 
L 379.200864 -147.2256 
L 377.593663 -147.2256 
z
" clip-path="url(#p65402c0525)" style="fill: #008000; opacity: 0.25"/>
   </g>
   <g id="patch_193">
    <path d="M 379.200864 307.584 
L 380.808065 307.584 
L 380.808065 283.392 
L 379.200864 283.392 
z
" clip-path="url(#p65402c0525)" style="fill: #0000ff; opacity: 0.25"/>
   </g>
   <g id="patch_194">
    <path d="M 380.808065 307.584 
L 382.415266 307.584 
L 382.415266 -152.064 
L 380.808065 -152.064 
z
" clip-path="url(#p65402c0525)" style="fill: #008000; opacity: 0.25"/>
   </g>
   <g id="patch_195">
    <path d="M 382.415266 307.584 
L 384.022466 307.584 
L 384.022466 288.2304 
L 382.415266 288.2304 
z
" clip-path="url(#p65402c0525)" style="fill: #0000ff; opacity: 0.25"/>
   </g>
   <g id="patch_196">
    <path d="M 384.022466 307.584 
L 385.629667 307.584 
L 385.629667 -156.9024 
L 384.022466 -156.9024 
z
" clip-path="url(#p65402c0525)" style="fill: #008000; opacity: 0.25"/>
   </g>
   <g id="patch_197">
    <path d="M 385.629667 307.584 
L 387.236868 307.584 
L 387.236868 293.0688 
L 385.629667 293.0688 
z
" clip-path="url(#p65402c0525)" style="fill: #0000ff; opacity: 0.25"/>
   </g>
   <g id="patch_198">
    <path d="M 387.236868 307.584 
L 388.844068 307.584 
L 388.844068 -161.7408 
L 387.236868 -161.7408 
z
" clip-path="url(#p65402c0525)" style="fill: #008000; opacity: 0.25"/>
   </g>
   <g id="patch_199">
    <path d="M 388.844068 307.584 
L 390.451269 307.584 
L 390.451269 297.9072 
L 388.844068 297.9072 
z
" clip-path="url(#p65402c0525)" style="fill: #0000ff; opacity: 0.25"/>
   </g>
   <g id="patch_200">
    <path d="M 390.451269 307.584 
L 392.05847 307.584 
L 392.05847 -166.5792 
L 390.451269 -166.5792 
z
" clip-path="url(#p65402c0525)" style="fill: #008000; opacity: 0.25"/>
   </g>
   <g id="patch_201">
    <path d="M 392.05847 307.584 
L 393.665671 307.584 
L 393.665671 302.7456 
L 392.05847 302.7456 
z
" clip-path="url(#p65402c0525)" style="fill: #0000ff; opacity: 0.25"/>
   </g>
   <g id="patch_202">
    <path d="M 393.665671 307.584 
L 395.272871 307.584 
L 395.272871 -171.4176 
L 393.665671 -171.4176 
z
" clip-path="url(#p65402c0525)" style="fill: #008000; opacity: 0.25"/>
   </g>
   <g id="patch_203">
    <path d="M 395.272871 307.584 
L 396.880072 307.584 
L 396.880072 307.584 
L 395.272871 307.584 
z
" clip-path="url(#p65402c0525)" style="fill: #0000ff; opacity: 0.25"/>
   </g>
   <g id="patch_204">
    <path d="M 396.880072 307.584 
L 398.487273 307.584 
L 398.487273 -176.256 
L 396.880072 -176.256 
z
" clip-path="url(#p65402c0525)" style="fill: #008000; opacity: 0.25"/>
   </g>
   <g id="matplotlib.axis_1">
    <g id="xtick_1">
     <g id="line2d_1">
      <defs>
       <path id="m1f65bd40d7" d="M 0 0 
L 0 3.5 
" style="stroke: #000000; stroke-width: 0.8"/>
      </defs>
      <g>
       <use xlink:href="#m1f65bd40d7" x="74.636328" y="307.584" style="stroke: #000000; stroke-width: 0.8"/>
      </g>
     </g>
     <g id="text_1">
      <!-- 0 -->
      <g transform="translate(71.455078 322.182437) scale(0.1 -0.1)">
       <defs>
        <path id="DejaVuSans-30" d="M 2034 4250 
Q 1547 4250 1301 3770 
Q 1056 3291 1056 2328 
Q 1056 1369 1301 889 
Q 1547 409 2034 409 
Q 2525 409 2770 889 
Q 3016 1369 3016 2328 
Q 3016 3291 2770 3770 
Q 2525 4250 2034 4250 
z
M 2034 4750 
Q 2819 4750 3233 4129 
Q 3647 3509 3647 2328 
Q 3647 1150 3233 529 
Q 2819 -91 2034 -91 
Q 1250 -91 836 529 
Q 422 1150 422 2328 
Q 422 3509 836 4129 
Q 1250 4750 2034 4750 
z
" transform="scale(0.015625)"/>
       </defs>
       <use xlink:href="#DejaVuSans-30"/>
      </g>
     </g>
    </g>
    <g id="xtick_2">
     <g id="line2d_2">
      <g>
       <use xlink:href="#m1f65bd40d7" x="138.924356" y="307.584" style="stroke: #000000; stroke-width: 0.8"/>
      </g>
     </g>
     <g id="text_2">
      <!-- 20 -->
      <g transform="translate(132.561856 322.182437) scale(0.1 -0.1)">
       <defs>
        <path id="DejaVuSans-32" d="M 1228 531 
L 3431 531 
L 3431 0 
L 469 0 
L 469 531 
Q 828 903 1448 1529 
Q 2069 2156 2228 2338 
Q 2531 2678 2651 2914 
Q 2772 3150 2772 3378 
Q 2772 3750 2511 3984 
Q 2250 4219 1831 4219 
Q 1534 4219 1204 4116 
Q 875 4013 500 3803 
L 500 4441 
Q 881 4594 1212 4672 
Q 1544 4750 1819 4750 
Q 2544 4750 2975 4387 
Q 3406 4025 3406 3419 
Q 3406 3131 3298 2873 
Q 3191 2616 2906 2266 
Q 2828 2175 2409 1742 
Q 1991 1309 1228 531 
z
" transform="scale(0.015625)"/>
       </defs>
       <use xlink:href="#DejaVuSans-32"/>
       <use xlink:href="#DejaVuSans-30" x="63.623047"/>
      </g>
     </g>
    </g>
    <g id="xtick_3">
     <g id="line2d_3">
      <g>
       <use xlink:href="#m1f65bd40d7" x="203.212385" y="307.584" style="stroke: #000000; stroke-width: 0.8"/>
      </g>
     </g>
     <g id="text_3">
      <!-- 40 -->
      <g transform="translate(196.849885 322.182437) scale(0.1 -0.1)">
       <defs>
        <path id="DejaVuSans-34" d="M 2419 4116 
L 825 1625 
L 2419 1625 
L 2419 4116 
z
M 2253 4666 
L 3047 4666 
L 3047 1625 
L 3713 1625 
L 3713 1100 
L 3047 1100 
L 3047 0 
L 2419 0 
L 2419 1100 
L 313 1100 
L 313 1709 
L 2253 4666 
z
" transform="scale(0.015625)"/>
       </defs>
       <use xlink:href="#DejaVuSans-34"/>
       <use xlink:href="#DejaVuSans-30" x="63.623047"/>
      </g>
     </g>
    </g>
    <g id="xtick_4">
     <g id="line2d_4">
      <g>
       <use xlink:href="#m1f65bd40d7" x="267.500414" y="307.584" style="stroke: #000000; stroke-width: 0.8"/>
      </g>
     </g>
     <g id="text_4">
      <!-- 60 -->
      <g transform="translate(261.137914 322.182437) scale(0.1 -0.1)">
       <defs>
        <path id="DejaVuSans-36" d="M 2113 2584 
Q 1688 2584 1439 2293 
Q 1191 2003 1191 1497 
Q 1191 994 1439 701 
Q 1688 409 2113 409 
Q 2538 409 2786 701 
Q 3034 994 3034 1497 
Q 3034 2003 2786 2293 
Q 2538 2584 2113 2584 
z
M 3366 4563 
L 3366 3988 
Q 3128 4100 2886 4159 
Q 2644 4219 2406 4219 
Q 1781 4219 1451 3797 
Q 1122 3375 1075 2522 
Q 1259 2794 1537 2939 
Q 1816 3084 2150 3084 
Q 2853 3084 3261 2657 
Q 3669 2231 3669 1497 
Q 3669 778 3244 343 
Q 2819 -91 2113 -91 
Q 1303 -91 875 529 
Q 447 1150 447 2328 
Q 447 3434 972 4092 
Q 1497 4750 2381 4750 
Q 2619 4750 2861 4703 
Q 3103 4656 3366 4563 
z
" transform="scale(0.015625)"/>
       </defs>
       <use xlink:href="#DejaVuSans-36"/>
       <use xlink:href="#DejaVuSans-30" x="63.623047"/>
      </g>
     </g>
    </g>
    <g id="xtick_5">
     <g id="line2d_5">
      <g>
       <use xlink:href="#m1f65bd40d7" x="331.788443" y="307.584" style="stroke: #000000; stroke-width: 0.8"/>
      </g>
     </g>
     <g id="text_5">
      <!-- 80 -->
      <g transform="translate(325.425943 322.182437) scale(0.1 -0.1)">
       <defs>
        <path id="DejaVuSans-38" d="M 2034 2216 
Q 1584 2216 1326 1975 
Q 1069 1734 1069 1313 
Q 1069 891 1326 650 
Q 1584 409 2034 409 
Q 2484 409 2743 651 
Q 3003 894 3003 1313 
Q 3003 1734 2745 1975 
Q 2488 2216 2034 2216 
z
M 1403 2484 
Q 997 2584 770 2862 
Q 544 3141 544 3541 
Q 544 4100 942 4425 
Q 1341 4750 2034 4750 
Q 2731 4750 3128 4425 
Q 3525 4100 3525 3541 
Q 3525 3141 3298 2862 
Q 3072 2584 2669 2484 
Q 3125 2378 3379 2068 
Q 3634 1759 3634 1313 
Q 3634 634 3220 271 
Q 2806 -91 2034 -91 
Q 1263 -91 848 271 
Q 434 634 434 1313 
Q 434 1759 690 2068 
Q 947 2378 1403 2484 
z
M 1172 3481 
Q 1172 3119 1398 2916 
Q 1625 2713 2034 2713 
Q 2441 2713 2670 2916 
Q 2900 3119 2900 3481 
Q 2900 3844 2670 4047 
Q 2441 4250 2034 4250 
Q 1625 4250 1398 4047 
Q 1172 3844 1172 3481 
z
" transform="scale(0.015625)"/>
       </defs>
       <use xlink:href="#DejaVuSans-38"/>
       <use xlink:href="#DejaVuSans-30" x="63.623047"/>
      </g>
     </g>
    </g>
    <g id="xtick_6">
     <g id="line2d_6">
      <g>
       <use xlink:href="#m1f65bd40d7" x="396.076472" y="307.584" style="stroke: #000000; stroke-width: 0.8"/>
      </g>
     </g>
     <g id="text_6">
      <!-- 100 -->
      <g transform="translate(386.532722 322.182437) scale(0.1 -0.1)">
       <defs>
        <path id="DejaVuSans-31" d="M 794 531 
L 1825 531 
L 1825 4091 
L 703 3866 
L 703 4441 
L 1819 4666 
L 2450 4666 
L 2450 531 
L 3481 531 
L 3481 0 
L 794 0 
L 794 531 
z
" transform="scale(0.015625)"/>
       </defs>
       <use xlink:href="#DejaVuSans-31"/>
       <use xlink:href="#DejaVuSans-30" x="63.623047"/>
       <use xlink:href="#DejaVuSans-30" x="127.246094"/>
      </g>
     </g>
    </g>
   </g>
   <g id="matplotlib.axis_2">
    <g id="ytick_1">
     <g id="line2d_7">
      <defs>
       <path id="mddaad7a7ec" d="M 0 0 
L -3.5 0 
" style="stroke: #000000; stroke-width: 0.8"/>
      </defs>
      <g>
       <use xlink:href="#mddaad7a7ec" x="57.6" y="307.584" style="stroke: #000000; stroke-width: 0.8"/>
      </g>
     </g>
     <g id="text_7">
      <!-- 0.0 -->
      <g transform="translate(34.696875 311.383219) scale(0.1 -0.1)">
       <defs>
        <path id="DejaVuSans-2e" d="M 684 794 
L 1344 794 
L 1344 0 
L 684 0 
L 684 794 
z
" transform="scale(0.015625)"/>
       </defs>
       <use xlink:href="#DejaVuSans-30"/>
       <use xlink:href="#DejaVuSans-2e" x="63.623047"/>
       <use xlink:href="#DejaVuSans-30" x="95.410156"/>
      </g>
     </g>
    </g>
    <g id="ytick_2">
     <g id="line2d_8">
      <g>
       <use xlink:href="#mddaad7a7ec" x="57.6" y="259.2" style="stroke: #000000; stroke-width: 0.8"/>
      </g>
     </g>
     <g id="text_8">
      <!-- 0.1 -->
      <g transform="translate(34.696875 262.999219) scale(0.1 -0.1)">
       <use xlink:href="#DejaVuSans-30"/>
       <use xlink:href="#DejaVuSans-2e" x="63.623047"/>
       <use xlink:href="#DejaVuSans-31" x="95.410156"/>
      </g>
     </g>
    </g>
    <g id="ytick_3">
     <g id="line2d_9">
      <g>
       <use xlink:href="#mddaad7a7ec" x="57.6" y="210.816" style="stroke: #000000; stroke-width: 0.8"/>
      </g>
     </g>
     <g id="text_9">
      <!-- 0.2 -->
      <g transform="translate(34.696875 214.615219) scale(0.1 -0.1)">
       <use xlink:href="#DejaVuSans-30"/>
       <use xlink:href="#DejaVuSans-2e" x="63.623047"/>
       <use xlink:href="#DejaVuSans-32" x="95.410156"/>
      </g>
     </g>
    </g>
    <g id="ytick_4">
     <g id="line2d_10">
      <g>
       <use xlink:href="#mddaad7a7ec" x="57.6" y="162.432" style="stroke: #000000; stroke-width: 0.8"/>
      </g>
     </g>
     <g id="text_10">
      <!-- 0.3 -->
      <g transform="translate(34.696875 166.231219) scale(0.1 -0.1)">
       <defs>
        <path id="DejaVuSans-33" d="M 2597 2516 
Q 3050 2419 3304 2112 
Q 3559 1806 3559 1356 
Q 3559 666 3084 287 
Q 2609 -91 1734 -91 
Q 1441 -91 1130 -33 
Q 819 25 488 141 
L 488 750 
Q 750 597 1062 519 
Q 1375 441 1716 441 
Q 2309 441 2620 675 
Q 2931 909 2931 1356 
Q 2931 1769 2642 2001 
Q 2353 2234 1838 2234 
L 1294 2234 
L 1294 2753 
L 1863 2753 
Q 2328 2753 2575 2939 
Q 2822 3125 2822 3475 
Q 2822 3834 2567 4026 
Q 2313 4219 1838 4219 
Q 1578 4219 1281 4162 
Q 984 4106 628 3988 
L 628 4550 
Q 988 4650 1302 4700 
Q 1616 4750 1894 4750 
Q 2613 4750 3031 4423 
Q 3450 4097 3450 3541 
Q 3450 3153 3228 2886 
Q 3006 2619 2597 2516 
z
" transform="scale(0.015625)"/>
       </defs>
       <use xlink:href="#DejaVuSans-30"/>
       <use xlink:href="#DejaVuSans-2e" x="63.623047"/>
       <use xlink:href="#DejaVuSans-33" x="95.410156"/>
      </g>
     </g>
    </g>
    <g id="ytick_5">
     <g id="line2d_11">
      <g>
       <use xlink:href="#mddaad7a7ec" x="57.6" y="114.048" style="stroke: #000000; stroke-width: 0.8"/>
      </g>
     </g>
     <g id="text_11">
      <!-- 0.4 -->
      <g transform="translate(34.696875 117.847219) scale(0.1 -0.1)">
       <use xlink:href="#DejaVuSans-30"/>
       <use xlink:href="#DejaVuSans-2e" x="63.623047"/>
       <use xlink:href="#DejaVuSans-34" x="95.410156"/>
      </g>
     </g>
    </g>
    <g id="ytick_6">
     <g id="line2d_12">
      <g>
       <use xlink:href="#mddaad7a7ec" x="57.6" y="65.664" style="stroke: #000000; stroke-width: 0.8"/>
      </g>
     </g>
     <g id="text_12">
      <!-- 0.5 -->
      <g transform="translate(34.696875 69.463219) scale(0.1 -0.1)">
       <defs>
        <path id="DejaVuSans-35" d="M 691 4666 
L 3169 4666 
L 3169 4134 
L 1269 4134 
L 1269 2991 
Q 1406 3038 1543 3061 
Q 1681 3084 1819 3084 
Q 2600 3084 3056 2656 
Q 3513 2228 3513 1497 
Q 3513 744 3044 326 
Q 2575 -91 1722 -91 
Q 1428 -91 1123 -41 
Q 819 9 494 109 
L 494 744 
Q 775 591 1075 516 
Q 1375 441 1709 441 
Q 2250 441 2565 725 
Q 2881 1009 2881 1497 
Q 2881 1984 2565 2268 
Q 2250 2553 1709 2553 
Q 1456 2553 1204 2497 
Q 953 2441 691 2322 
L 691 4666 
z
" transform="scale(0.015625)"/>
       </defs>
       <use xlink:href="#DejaVuSans-30"/>
       <use xlink:href="#DejaVuSans-2e" x="63.623047"/>
       <use xlink:href="#DejaVuSans-35" x="95.410156"/>
      </g>
     </g>
    </g>
   </g>
   <g id="line2d_13">
    <path d="M 74.636328 307.584 
L 77.850729 298.003968 
L 81.065131 288.617472 
L 84.279532 279.424512 
L 87.493933 270.425088 
L 90.708335 261.6192 
L 93.922736 253.006848 
L 97.137138 244.588032 
L 100.351539 236.362752 
L 103.565941 228.331008 
L 106.780342 220.4928 
L 109.994743 212.848128 
L 113.209145 205.396992 
L 116.423546 198.139392 
L 119.637948 191.075328 
L 122.852349 184.2048 
L 126.066751 177.527808 
L 129.281152 171.044352 
L 132.495554 164.754432 
L 135.709955 158.658048 
L 138.924356 152.7552 
L 142.138758 147.045888 
L 145.353159 141.530112 
L 148.567561 136.207872 
L 151.781962 131.079168 
L 154.996364 126.144 
L 158.210765 121.402368 
L 161.425167 116.854272 
L 164.639568 112.499712 
L 167.853969 108.338688 
L 171.068371 104.3712 
L 174.282772 100.597248 
L 177.497174 97.016832 
L 180.711575 93.629952 
L 183.925977 90.436608 
L 187.140378 87.4368 
L 190.354779 84.630528 
L 193.569181 82.017792 
L 196.783582 79.598592 
L 199.997984 77.372928 
L 203.212385 75.3408 
L 206.426787 73.502208 
L 209.641188 71.857152 
L 212.85559 70.405632 
L 216.069991 69.147648 
L 219.284392 68.0832 
L 222.498794 67.212288 
L 225.713195 66.534912 
L 228.927597 66.051072 
L 232.141998 65.760768 
L 235.3564 65.664 
L 238.570801 65.760768 
L 241.785203 66.051072 
L 244.999604 66.534912 
L 248.214005 67.212288 
L 251.428407 68.0832 
L 254.642808 69.147648 
L 257.85721 70.405632 
L 261.071611 71.857152 
L 264.286013 73.502208 
L 267.500414 75.3408 
L 270.714815 77.372928 
L 273.929217 79.598592 
L 277.143618 82.017792 
L 280.35802 84.630528 
L 283.572421 87.4368 
L 286.786823 90.436608 
L 290.001224 93.629952 
L 293.215626 97.016832 
L 296.430027 100.597248 
L 299.644428 104.3712 
L 302.85883 108.338688 
L 306.073231 112.499712 
L 309.287633 116.854272 
L 312.502034 121.402368 
L 315.716436 126.144 
L 318.930837 131.079168 
L 322.145239 136.207872 
L 325.35964 141.530112 
L 328.574041 147.045888 
L 331.788443 152.7552 
L 335.002844 158.658048 
L 338.217246 164.754432 
L 341.431647 171.044352 
L 344.646049 177.527808 
L 347.86045 184.2048 
L 351.074851 191.075328 
L 354.289253 198.139392 
L 357.503654 205.396992 
L 360.718056 212.848128 
L 363.932457 220.4928 
L 367.146859 228.331008 
L 370.36126 236.362752 
L 373.575662 244.588032 
L 376.790063 253.006848 
L 380.004464 261.6192 
L 383.218866 270.425088 
L 386.433267 279.424512 
L 389.647669 288.617472 
L 392.86207 298.003968 
L 396.076472 307.584 
" clip-path="url(#p65402c0525)" style="fill: none; stroke: #1f77b4; stroke-width: 1.5; stroke-linecap: square"/>
   </g>
   <g id="line2d_14">
    <path d="M 74.636328 307.584 
L 77.850729 288.038525 
L 81.065131 273.366704 
L 84.279532 260.556722 
L 87.493933 248.968674 
L 90.708335 238.298848 
L 93.922736 228.368525 
L 97.137138 219.05975 
L 100.351539 210.28881 
L 103.565941 201.993222 
L 106.780342 194.124586 
L 109.994743 186.644331 
L 113.209145 179.521019 
L 116.423546 172.728554 
L 119.637948 166.244947 
L 122.852349 160.051433 
L 126.066751 154.131833 
L 129.281152 148.47206 
L 132.495554 143.059761 
L 135.709955 137.884024 
L 138.924356 132.935155 
L 142.138758 128.204496 
L 145.353159 123.684278 
L 148.567561 119.367505 
L 151.781962 115.247856 
L 154.996364 111.319596 
L 158.210765 107.577518 
L 161.425167 104.016875 
L 164.639568 100.63334 
L 167.853969 97.422956 
L 171.068371 94.382106 
L 174.282772 91.507477 
L 177.497174 88.796038 
L 180.711575 86.245012 
L 183.925977 83.851859 
L 187.140378 81.614256 
L 190.354779 79.530083 
L 193.569181 77.597407 
L 196.783582 75.814474 
L 199.997984 74.179693 
L 203.212385 72.691632 
L 206.426787 71.349007 
L 209.641188 70.150674 
L 212.85559 69.095626 
L 216.069991 68.182987 
L 219.284392 67.412004 
L 222.498794 66.782048 
L 225.713195 66.292608 
L 228.927597 65.943288 
L 232.141998 65.733808 
L 235.3564 65.664 
L 238.570801 65.733808 
L 241.785203 65.943288 
L 244.999604 66.292608 
L 248.214005 66.782048 
L 251.428407 67.412004 
L 254.642808 68.182987 
L 257.85721 69.095626 
L 261.071611 70.150674 
L 264.286013 71.349007 
L 267.500414 72.691632 
L 270.714815 74.179693 
L 273.929217 75.814474 
L 277.143618 77.597407 
L 280.35802 79.530083 
L 283.572421 81.614256 
L 286.786823 83.851859 
L 290.001224 86.245012 
L 293.215626 88.796038 
L 296.430027 91.507477 
L 299.644428 94.382106 
L 302.85883 97.422956 
L 306.073231 100.63334 
L 309.287633 104.016875 
L 312.502034 107.577518 
L 315.716436 111.319596 
L 318.930837 115.247856 
L 322.145239 119.367505 
L 325.35964 123.684278 
L 328.574041 128.204496 
L 331.788443 132.935155 
L 335.002844 137.884024 
L 338.217246 143.059761 
L 341.431647 148.47206 
L 344.646049 154.131833 
L 347.86045 160.051433 
L 351.074851 166.244947 
L 354.289253 172.728554 
L 357.503654 179.521019 
L 360.718056 186.644331 
L 363.932457 194.124586 
L 367.146859 201.993222 
L 370.36126 210.28881 
L 373.575662 219.05975 
L 376.790063 228.368525 
L 380.004464 238.298848 
L 383.218866 248.968674 
L 386.433267 260.556722 
L 389.647669 273.366704 
L 392.86207 288.038525 
L 396.076472 307.584 
" clip-path="url(#p65402c0525)" style="fill: none; stroke: #ff7f0e; stroke-width: 1.5; stroke-linecap: square"/>
   </g>
   <g id="line2d_15">
    <path d="M 74.636328 307.584 
L 77.850729 302.7456 
L 81.065131 297.9072 
L 84.279532 293.0688 
L 87.493933 288.2304 
L 90.708335 283.392 
L 93.922736 278.5536 
L 97.137138 273.7152 
L 100.351539 268.8768 
L 103.565941 264.0384 
L 106.780342 259.2 
L 109.994743 254.3616 
L 113.209145 249.5232 
L 116.423546 244.6848 
L 119.637948 239.8464 
L 122.852349 235.008 
L 126.066751 230.1696 
L 129.281152 225.3312 
L 132.495554 220.4928 
L 135.709955 215.6544 
L 138.924356 210.816 
L 142.138758 205.9776 
L 145.353159 201.1392 
L 148.567561 196.3008 
L 151.781962 191.4624 
L 154.996364 186.624 
L 158.210765 181.7856 
L 161.425167 176.9472 
L 164.639568 172.1088 
L 167.853969 167.2704 
L 171.068371 162.432 
L 174.282772 157.5936 
L 177.497174 152.7552 
L 180.711575 147.9168 
L 183.925977 143.0784 
L 187.140378 138.24 
L 190.354779 133.4016 
L 193.569181 128.5632 
L 196.783582 123.7248 
L 199.997984 118.8864 
L 203.212385 114.048 
L 206.426787 109.2096 
L 209.641188 104.3712 
L 212.85559 99.5328 
L 216.069991 94.6944 
L 219.284392 89.856 
L 222.498794 85.0176 
L 225.713195 80.1792 
L 228.927597 75.3408 
L 232.141998 70.5024 
L 235.3564 65.664 
L 238.570801 70.5024 
L 241.785203 75.3408 
L 244.999604 80.1792 
L 248.214005 85.0176 
L 251.428407 89.856 
L 254.642808 94.6944 
L 257.85721 99.5328 
L 261.071611 104.3712 
L 264.286013 109.2096 
L 267.500414 114.048 
L 270.714815 118.8864 
L 273.929217 123.7248 
L 277.143618 128.5632 
L 280.35802 133.4016 
L 283.572421 138.24 
L 286.786823 143.0784 
L 290.001224 147.9168 
L 293.215626 152.7552 
L 296.430027 157.5936 
L 299.644428 162.432 
L 302.85883 167.2704 
L 306.073231 172.1088 
L 309.287633 176.9472 
L 312.502034 181.7856 
L 315.716436 186.624 
L 318.930837 191.4624 
L 322.145239 196.3008 
L 325.35964 201.1392 
L 328.574041 205.9776 
L 331.788443 210.816 
L 335.002844 215.6544 
L 338.217246 220.4928 
L 341.431647 225.3312 
L 344.646049 230.1696 
L 347.86045 235.008 
L 351.074851 239.8464 
L 354.289253 244.6848 
L 357.503654 249.5232 
L 360.718056 254.3616 
L 363.932457 259.2 
L 367.146859 264.0384 
L 370.36126 268.8768 
L 373.575662 273.7152 
L 376.790063 278.5536 
L 380.004464 283.392 
L 383.218866 288.2304 
L 386.433267 293.0688 
L 389.647669 297.9072 
L 392.86207 302.7456 
L 396.076472 307.584 
" clip-path="url(#p65402c0525)" style="fill: none; stroke: #2ca02c; stroke-width: 1.5; stroke-linecap: square"/>
   </g>
   <g id="patch_205">
    <path d="M 57.6 307.584 
L 57.6 41.472 
" style="fill: none; stroke: #000000; stroke-width: 0.8; stroke-linejoin: miter; stroke-linecap: square"/>
   </g>
   <g id="patch_206">
    <path d="M 414.72 307.584 
L 414.72 41.472 
" style="fill: none; stroke: #000000; stroke-width: 0.8; stroke-linejoin: miter; stroke-linecap: square"/>
   </g>
   <g id="patch_207">
    <path d="M 57.6 307.584 
L 414.72 307.584 
" style="fill: none; stroke: #000000; stroke-width: 0.8; stroke-linejoin: miter; stroke-linecap: square"/>
   </g>
   <g id="patch_208">
    <path d="M 57.6 41.472 
L 414.72 41.472 
" style="fill: none; stroke: #000000; stroke-width: 0.8; stroke-linejoin: miter; stroke-linecap: square"/>
   </g>
   <g id="text_13">
    <!-- Entropy/2 vs. GINI impurity vs. Error -->
    <g transform="translate(127.850625 35.472) scale(0.12 -0.12)">
     <defs>
      <path id="DejaVuSans-45" d="M 628 4666 
L 3578 4666 
L 3578 4134 
L 1259 4134 
L 1259 2753 
L 3481 2753 
L 3481 2222 
L 1259 2222 
L 1259 531 
L 3634 531 
L 3634 0 
L 628 0 
L 628 4666 
z
" transform="scale(0.015625)"/>
      <path id="DejaVuSans-6e" d="M 3513 2113 
L 3513 0 
L 2938 0 
L 2938 2094 
Q 2938 2591 2744 2837 
Q 2550 3084 2163 3084 
Q 1697 3084 1428 2787 
Q 1159 2491 1159 1978 
L 1159 0 
L 581 0 
L 581 3500 
L 1159 3500 
L 1159 2956 
Q 1366 3272 1645 3428 
Q 1925 3584 2291 3584 
Q 2894 3584 3203 3211 
Q 3513 2838 3513 2113 
z
" transform="scale(0.015625)"/>
      <path id="DejaVuSans-74" d="M 1172 4494 
L 1172 3500 
L 2356 3500 
L 2356 3053 
L 1172 3053 
L 1172 1153 
Q 1172 725 1289 603 
Q 1406 481 1766 481 
L 2356 481 
L 2356 0 
L 1766 0 
Q 1100 0 847 248 
Q 594 497 594 1153 
L 594 3053 
L 172 3053 
L 172 3500 
L 594 3500 
L 594 4494 
L 1172 4494 
z
" transform="scale(0.015625)"/>
      <path id="DejaVuSans-72" d="M 2631 2963 
Q 2534 3019 2420 3045 
Q 2306 3072 2169 3072 
Q 1681 3072 1420 2755 
Q 1159 2438 1159 1844 
L 1159 0 
L 581 0 
L 581 3500 
L 1159 3500 
L 1159 2956 
Q 1341 3275 1631 3429 
Q 1922 3584 2338 3584 
Q 2397 3584 2469 3576 
Q 2541 3569 2628 3553 
L 2631 2963 
z
" transform="scale(0.015625)"/>
      <path id="DejaVuSans-6f" d="M 1959 3097 
Q 1497 3097 1228 2736 
Q 959 2375 959 1747 
Q 959 1119 1226 758 
Q 1494 397 1959 397 
Q 2419 397 2687 759 
Q 2956 1122 2956 1747 
Q 2956 2369 2687 2733 
Q 2419 3097 1959 3097 
z
M 1959 3584 
Q 2709 3584 3137 3096 
Q 3566 2609 3566 1747 
Q 3566 888 3137 398 
Q 2709 -91 1959 -91 
Q 1206 -91 779 398 
Q 353 888 353 1747 
Q 353 2609 779 3096 
Q 1206 3584 1959 3584 
z
" transform="scale(0.015625)"/>
      <path id="DejaVuSans-70" d="M 1159 525 
L 1159 -1331 
L 581 -1331 
L 581 3500 
L 1159 3500 
L 1159 2969 
Q 1341 3281 1617 3432 
Q 1894 3584 2278 3584 
Q 2916 3584 3314 3078 
Q 3713 2572 3713 1747 
Q 3713 922 3314 415 
Q 2916 -91 2278 -91 
Q 1894 -91 1617 61 
Q 1341 213 1159 525 
z
M 3116 1747 
Q 3116 2381 2855 2742 
Q 2594 3103 2138 3103 
Q 1681 3103 1420 2742 
Q 1159 2381 1159 1747 
Q 1159 1113 1420 752 
Q 1681 391 2138 391 
Q 2594 391 2855 752 
Q 3116 1113 3116 1747 
z
" transform="scale(0.015625)"/>
      <path id="DejaVuSans-79" d="M 2059 -325 
Q 1816 -950 1584 -1140 
Q 1353 -1331 966 -1331 
L 506 -1331 
L 506 -850 
L 844 -850 
Q 1081 -850 1212 -737 
Q 1344 -625 1503 -206 
L 1606 56 
L 191 3500 
L 800 3500 
L 1894 763 
L 2988 3500 
L 3597 3500 
L 2059 -325 
z
" transform="scale(0.015625)"/>
      <path id="DejaVuSans-2f" d="M 1625 4666 
L 2156 4666 
L 531 -594 
L 0 -594 
L 1625 4666 
z
" transform="scale(0.015625)"/>
      <path id="DejaVuSans-20" transform="scale(0.015625)"/>
      <path id="DejaVuSans-76" d="M 191 3500 
L 800 3500 
L 1894 563 
L 2988 3500 
L 3597 3500 
L 2284 0 
L 1503 0 
L 191 3500 
z
" transform="scale(0.015625)"/>
      <path id="DejaVuSans-73" d="M 2834 3397 
L 2834 2853 
Q 2591 2978 2328 3040 
Q 2066 3103 1784 3103 
Q 1356 3103 1142 2972 
Q 928 2841 928 2578 
Q 928 2378 1081 2264 
Q 1234 2150 1697 2047 
L 1894 2003 
Q 2506 1872 2764 1633 
Q 3022 1394 3022 966 
Q 3022 478 2636 193 
Q 2250 -91 1575 -91 
Q 1294 -91 989 -36 
Q 684 19 347 128 
L 347 722 
Q 666 556 975 473 
Q 1284 391 1588 391 
Q 1994 391 2212 530 
Q 2431 669 2431 922 
Q 2431 1156 2273 1281 
Q 2116 1406 1581 1522 
L 1381 1569 
Q 847 1681 609 1914 
Q 372 2147 372 2553 
Q 372 3047 722 3315 
Q 1072 3584 1716 3584 
Q 2034 3584 2315 3537 
Q 2597 3491 2834 3397 
z
" transform="scale(0.015625)"/>
      <path id="DejaVuSans-47" d="M 3809 666 
L 3809 1919 
L 2778 1919 
L 2778 2438 
L 4434 2438 
L 4434 434 
Q 4069 175 3628 42 
Q 3188 -91 2688 -91 
Q 1594 -91 976 548 
Q 359 1188 359 2328 
Q 359 3472 976 4111 
Q 1594 4750 2688 4750 
Q 3144 4750 3555 4637 
Q 3966 4525 4313 4306 
L 4313 3634 
Q 3963 3931 3569 4081 
Q 3175 4231 2741 4231 
Q 1884 4231 1454 3753 
Q 1025 3275 1025 2328 
Q 1025 1384 1454 906 
Q 1884 428 2741 428 
Q 3075 428 3337 486 
Q 3600 544 3809 666 
z
" transform="scale(0.015625)"/>
      <path id="DejaVuSans-49" d="M 628 4666 
L 1259 4666 
L 1259 0 
L 628 0 
L 628 4666 
z
" transform="scale(0.015625)"/>
      <path id="DejaVuSans-4e" d="M 628 4666 
L 1478 4666 
L 3547 763 
L 3547 4666 
L 4159 4666 
L 4159 0 
L 3309 0 
L 1241 3903 
L 1241 0 
L 628 0 
L 628 4666 
z
" transform="scale(0.015625)"/>
      <path id="DejaVuSans-69" d="M 603 3500 
L 1178 3500 
L 1178 0 
L 603 0 
L 603 3500 
z
M 603 4863 
L 1178 4863 
L 1178 4134 
L 603 4134 
L 603 4863 
z
" transform="scale(0.015625)"/>
      <path id="DejaVuSans-6d" d="M 3328 2828 
Q 3544 3216 3844 3400 
Q 4144 3584 4550 3584 
Q 5097 3584 5394 3201 
Q 5691 2819 5691 2113 
L 5691 0 
L 5113 0 
L 5113 2094 
Q 5113 2597 4934 2840 
Q 4756 3084 4391 3084 
Q 3944 3084 3684 2787 
Q 3425 2491 3425 1978 
L 3425 0 
L 2847 0 
L 2847 2094 
Q 2847 2600 2669 2842 
Q 2491 3084 2119 3084 
Q 1678 3084 1418 2786 
Q 1159 2488 1159 1978 
L 1159 0 
L 581 0 
L 581 3500 
L 1159 3500 
L 1159 2956 
Q 1356 3278 1631 3431 
Q 1906 3584 2284 3584 
Q 2666 3584 2933 3390 
Q 3200 3197 3328 2828 
z
" transform="scale(0.015625)"/>
      <path id="DejaVuSans-75" d="M 544 1381 
L 544 3500 
L 1119 3500 
L 1119 1403 
Q 1119 906 1312 657 
Q 1506 409 1894 409 
Q 2359 409 2629 706 
Q 2900 1003 2900 1516 
L 2900 3500 
L 3475 3500 
L 3475 0 
L 2900 0 
L 2900 538 
Q 2691 219 2414 64 
Q 2138 -91 1772 -91 
Q 1169 -91 856 284 
Q 544 659 544 1381 
z
M 1991 3584 
L 1991 3584 
z
" transform="scale(0.015625)"/>
     </defs>
     <use xlink:href="#DejaVuSans-45"/>
     <use xlink:href="#DejaVuSans-6e" x="63.183594"/>
     <use xlink:href="#DejaVuSans-74" x="126.5625"/>
     <use xlink:href="#DejaVuSans-72" x="165.771484"/>
     <use xlink:href="#DejaVuSans-6f" x="204.634766"/>
     <use xlink:href="#DejaVuSans-70" x="265.816406"/>
     <use xlink:href="#DejaVuSans-79" x="329.292969"/>
     <use xlink:href="#DejaVuSans-2f" x="388.472656"/>
     <use xlink:href="#DejaVuSans-32" x="422.164062"/>
     <use xlink:href="#DejaVuSans-20" x="485.787109"/>
     <use xlink:href="#DejaVuSans-76" x="517.574219"/>
     <use xlink:href="#DejaVuSans-73" x="576.753906"/>
     <use xlink:href="#DejaVuSans-2e" x="628.853516"/>
     <use xlink:href="#DejaVuSans-20" x="660.640625"/>
     <use xlink:href="#DejaVuSans-47" x="692.427734"/>
     <use xlink:href="#DejaVuSans-49" x="769.917969"/>
     <use xlink:href="#DejaVuSans-4e" x="799.410156"/>
     <use xlink:href="#DejaVuSans-49" x="874.214844"/>
     <use xlink:href="#DejaVuSans-20" x="903.707031"/>
     <use xlink:href="#DejaVuSans-69" x="935.494141"/>
     <use xlink:href="#DejaVuSans-6d" x="963.277344"/>
     <use xlink:href="#DejaVuSans-70" x="1060.689453"/>
     <use xlink:href="#DejaVuSans-75" x="1124.166016"/>
     <use xlink:href="#DejaVuSans-72" x="1187.544922"/>
     <use xlink:href="#DejaVuSans-69" x="1228.658203"/>
     <use xlink:href="#DejaVuSans-74" x="1256.441406"/>
     <use xlink:href="#DejaVuSans-79" x="1295.650391"/>
     <use xlink:href="#DejaVuSans-20" x="1354.830078"/>
     <use xlink:href="#DejaVuSans-76" x="1386.617188"/>
     <use xlink:href="#DejaVuSans-73" x="1445.796875"/>
     <use xlink:href="#DejaVuSans-2e" x="1497.896484"/>
     <use xlink:href="#DejaVuSans-20" x="1529.683594"/>
     <use xlink:href="#DejaVuSans-45" x="1561.470703"/>
     <use xlink:href="#DejaVuSans-72" x="1624.654297"/>
     <use xlink:href="#DejaVuSans-72" x="1664.017578"/>
     <use xlink:href="#DejaVuSans-6f" x="1702.880859"/>
     <use xlink:href="#DejaVuSans-72" x="1764.0625"/>
    </g>
   </g>
   <g id="legend_1">
    <g id="patch_209">
     <path d="M 434.441937 93.506375 
L 514.856 93.506375 
Q 516.856 93.506375 516.856 91.506375 
L 516.856 48.472 
Q 516.856 46.472 514.856 46.472 
L 434.441937 46.472 
Q 432.441937 46.472 432.441937 48.472 
L 432.441937 91.506375 
Q 432.441937 93.506375 434.441937 93.506375 
z
" style="fill: #ffffff; opacity: 0.8; stroke: #cccccc; stroke-linejoin: miter"/>
    </g>
    <g id="line2d_16">
     <path d="M 436.441937 54.570438 
L 446.441937 54.570438 
L 456.441937 54.570438 
" style="fill: none; stroke: #1f77b4; stroke-width: 1.5; stroke-linecap: square"/>
    </g>
    <g id="text_14">
     <!-- gini -->
     <g transform="translate(464.441937 58.070438) scale(0.1 -0.1)">
      <defs>
       <path id="DejaVuSans-67" d="M 2906 1791 
Q 2906 2416 2648 2759 
Q 2391 3103 1925 3103 
Q 1463 3103 1205 2759 
Q 947 2416 947 1791 
Q 947 1169 1205 825 
Q 1463 481 1925 481 
Q 2391 481 2648 825 
Q 2906 1169 2906 1791 
z
M 3481 434 
Q 3481 -459 3084 -895 
Q 2688 -1331 1869 -1331 
Q 1566 -1331 1297 -1286 
Q 1028 -1241 775 -1147 
L 775 -588 
Q 1028 -725 1275 -790 
Q 1522 -856 1778 -856 
Q 2344 -856 2625 -561 
Q 2906 -266 2906 331 
L 2906 616 
Q 2728 306 2450 153 
Q 2172 0 1784 0 
Q 1141 0 747 490 
Q 353 981 353 1791 
Q 353 2603 747 3093 
Q 1141 3584 1784 3584 
Q 2172 3584 2450 3431 
Q 2728 3278 2906 2969 
L 2906 3500 
L 3481 3500 
L 3481 434 
z
" transform="scale(0.015625)"/>
      </defs>
      <use xlink:href="#DejaVuSans-67"/>
      <use xlink:href="#DejaVuSans-69" x="63.476562"/>
      <use xlink:href="#DejaVuSans-6e" x="91.259766"/>
      <use xlink:href="#DejaVuSans-69" x="154.638672"/>
     </g>
    </g>
    <g id="line2d_17">
     <path d="M 436.441937 69.248563 
L 446.441937 69.248563 
L 456.441937 69.248563 
" style="fill: none; stroke: #ff7f0e; stroke-width: 1.5; stroke-linecap: square"/>
    </g>
    <g id="text_15">
     <!-- entropy/2 -->
     <g transform="translate(464.441937 72.748563) scale(0.1 -0.1)">
      <defs>
       <path id="DejaVuSans-65" d="M 3597 1894 
L 3597 1613 
L 953 1613 
Q 991 1019 1311 708 
Q 1631 397 2203 397 
Q 2534 397 2845 478 
Q 3156 559 3463 722 
L 3463 178 
Q 3153 47 2828 -22 
Q 2503 -91 2169 -91 
Q 1331 -91 842 396 
Q 353 884 353 1716 
Q 353 2575 817 3079 
Q 1281 3584 2069 3584 
Q 2775 3584 3186 3129 
Q 3597 2675 3597 1894 
z
M 3022 2063 
Q 3016 2534 2758 2815 
Q 2500 3097 2075 3097 
Q 1594 3097 1305 2825 
Q 1016 2553 972 2059 
L 3022 2063 
z
" transform="scale(0.015625)"/>
      </defs>
      <use xlink:href="#DejaVuSans-65"/>
      <use xlink:href="#DejaVuSans-6e" x="61.523438"/>
      <use xlink:href="#DejaVuSans-74" x="124.902344"/>
      <use xlink:href="#DejaVuSans-72" x="164.111328"/>
      <use xlink:href="#DejaVuSans-6f" x="202.974609"/>
      <use xlink:href="#DejaVuSans-70" x="264.15625"/>
      <use xlink:href="#DejaVuSans-79" x="327.632812"/>
      <use xlink:href="#DejaVuSans-2f" x="386.8125"/>
      <use xlink:href="#DejaVuSans-32" x="420.503906"/>
     </g>
    </g>
    <g id="line2d_18">
     <path d="M 436.441937 83.926688 
L 446.441937 83.926688 
L 456.441937 83.926688 
" style="fill: none; stroke: #2ca02c; stroke-width: 1.5; stroke-linecap: square"/>
    </g>
    <g id="text_16">
     <!-- error -->
     <g transform="translate(464.441937 87.426688) scale(0.1 -0.1)">
      <use xlink:href="#DejaVuSans-65"/>
      <use xlink:href="#DejaVuSans-72" x="61.523438"/>
      <use xlink:href="#DejaVuSans-72" x="100.886719"/>
      <use xlink:href="#DejaVuSans-6f" x="139.75"/>
      <use xlink:href="#DejaVuSans-72" x="200.931641"/>
     </g>
    </g>
   </g>
  </g>
 </g>
 <defs>
  <clipPath id="p65402c0525">
   <rect x="57.6" y="41.472" width="357.12" height="266.112"/>
  </clipPath>
 </defs>
</svg>
