<?xml version="1.0" encoding="utf-8" standalone="no"?>
<!DOCTYPE svg PUBLIC "-//W3C//DTD SVG 1.1//EN"
  "http://www.w3.org/Graphics/SVG/1.1/DTD/svg11.dtd">
<svg xmlns:xlink="http://www.w3.org/1999/xlink" width="460.8pt" height="345.6pt" viewBox="0 0 460.8 345.6" xmlns="http://www.w3.org/2000/svg" version="1.1">
 <metadata>
  <rdf:RDF xmlns:dc="http://purl.org/dc/elements/1.1/" xmlns:cc="http://creativecommons.org/ns#" xmlns:rdf="http://www.w3.org/1999/02/22-rdf-syntax-ns#">
   <cc:Work>
    <dc:type rdf:resource="http://purl.org/dc/dcmitype/StillImage"/>
    <dc:date>2023-12-30T16:53:16.807024</dc:date>
    <dc:format>image/svg+xml</dc:format>
    <dc:creator>
     <cc:Agent>
      <dc:title>Matplotlib v3.8.2, https://matplotlib.org/</dc:title>
     </cc:Agent>
    </dc:creator>
   </cc:Work>
  </rdf:RDF>
 </metadata>
 <defs>
  <style type="text/css">*{stroke-linejoin: round; stroke-linecap: butt}</style>
 </defs>
 <g id="figure_1">
  <g id="patch_1">
   <path d="M 0 345.6 
L 460.8 345.6 
L 460.8 0 
L 0 0 
z
" style="fill: #ffffff"/>
  </g>
  <g id="axes_1">
   <g id="patch_2">
    <path d="M 57.6 307.584 
L 414.72 307.584 
L 414.72 41.472 
L 57.6 41.472 
z
" style="fill: #ffffff"/>
   </g>
   <g id="patch_3">
    <path d="M 73.832727 307.584 
L 75.439928 307.584 
L 75.439928 54.144 
L 73.832727 54.144 
z
" clip-path="url(#p1e774f5a3b)" style="fill: #0000ff"/>
   </g>
   <g id="patch_4">
    <path d="M 75.439928 307.584 
L 77.047129 307.584 
L 77.047129 307.584 
L 75.439928 307.584 
z
" clip-path="url(#p1e774f5a3b)" style="fill: #008000"/>
   </g>
   <g id="patch_5">
    <path d="M 77.047129 307.584 
L 78.654329 307.584 
L 78.654329 56.6784 
L 77.047129 56.6784 
z
" clip-path="url(#p1e774f5a3b)" style="fill: #0000ff"/>
   </g>
   <g id="patch_6">
    <path d="M 78.654329 307.584 
L 80.26153 307.584 
L 80.26153 305.0496 
L 78.654329 305.0496 
z
" clip-path="url(#p1e774f5a3b)" style="fill: #008000"/>
   </g>
   <g id="patch_7">
    <path d="M 80.26153 307.584 
L 81.868731 307.584 
L 81.868731 59.2128 
L 80.26153 59.2128 
z
" clip-path="url(#p1e774f5a3b)" style="fill: #0000ff"/>
   </g>
   <g id="patch_8">
    <path d="M 81.868731 307.584 
L 83.475932 307.584 
L 83.475932 302.5152 
L 81.868731 302.5152 
z
" clip-path="url(#p1e774f5a3b)" style="fill: #008000"/>
   </g>
   <g id="patch_9">
    <path d="M 83.475932 307.584 
L 85.083132 307.584 
L 85.083132 61.7472 
L 83.475932 61.7472 
z
" clip-path="url(#p1e774f5a3b)" style="fill: #0000ff"/>
   </g>
   <g id="patch_10">
    <path d="M 85.083132 307.584 
L 86.690333 307.584 
L 86.690333 299.9808 
L 85.083132 299.9808 
z
" clip-path="url(#p1e774f5a3b)" style="fill: #008000"/>
   </g>
   <g id="patch_11">
    <path d="M 86.690333 307.584 
L 88.297534 307.584 
L 88.297534 64.2816 
L 86.690333 64.2816 
z
" clip-path="url(#p1e774f5a3b)" style="fill: #0000ff"/>
   </g>
   <g id="patch_12">
    <path d="M 88.297534 307.584 
L 89.904734 307.584 
L 89.904734 297.4464 
L 88.297534 297.4464 
z
" clip-path="url(#p1e774f5a3b)" style="fill: #008000"/>
   </g>
   <g id="patch_13">
    <path d="M 89.904734 307.584 
L 91.511935 307.584 
L 91.511935 66.816 
L 89.904734 66.816 
z
" clip-path="url(#p1e774f5a3b)" style="fill: #0000ff"/>
   </g>
   <g id="patch_14">
    <path d="M 91.511935 307.584 
L 93.119136 307.584 
L 93.119136 294.912 
L 91.511935 294.912 
z
" clip-path="url(#p1e774f5a3b)" style="fill: #008000"/>
   </g>
   <g id="patch_15">
    <path d="M 93.119136 307.584 
L 94.726337 307.584 
L 94.726337 69.3504 
L 93.119136 69.3504 
z
" clip-path="url(#p1e774f5a3b)" style="fill: #0000ff"/>
   </g>
   <g id="patch_16">
    <path d="M 94.726337 307.584 
L 96.333537 307.584 
L 96.333537 292.3776 
L 94.726337 292.3776 
z
" clip-path="url(#p1e774f5a3b)" style="fill: #008000"/>
   </g>
   <g id="patch_17">
    <path d="M 96.333537 307.584 
L 97.940738 307.584 
L 97.940738 71.8848 
L 96.333537 71.8848 
z
" clip-path="url(#p1e774f5a3b)" style="fill: #0000ff"/>
   </g>
   <g id="patch_18">
    <path d="M 97.940738 307.584 
L 99.547939 307.584 
L 99.547939 289.8432 
L 97.940738 289.8432 
z
" clip-path="url(#p1e774f5a3b)" style="fill: #008000"/>
   </g>
   <g id="patch_19">
    <path d="M 99.547939 307.584 
L 101.15514 307.584 
L 101.15514 74.4192 
L 99.547939 74.4192 
z
" clip-path="url(#p1e774f5a3b)" style="fill: #0000ff"/>
   </g>
   <g id="patch_20">
    <path d="M 101.15514 307.584 
L 102.76234 307.584 
L 102.76234 287.3088 
L 101.15514 287.3088 
z
" clip-path="url(#p1e774f5a3b)" style="fill: #008000"/>
   </g>
   <g id="patch_21">
    <path d="M 102.76234 307.584 
L 104.369541 307.584 
L 104.369541 76.9536 
L 102.76234 76.9536 
z
" clip-path="url(#p1e774f5a3b)" style="fill: #0000ff"/>
   </g>
   <g id="patch_22">
    <path d="M 104.369541 307.584 
L 105.976742 307.584 
L 105.976742 284.7744 
L 104.369541 284.7744 
z
" clip-path="url(#p1e774f5a3b)" style="fill: #008000"/>
   </g>
   <g id="patch_23">
    <path d="M 105.976742 307.584 
L 107.583942 307.584 
L 107.583942 79.488 
L 105.976742 79.488 
z
" clip-path="url(#p1e774f5a3b)" style="fill: #0000ff"/>
   </g>
   <g id="patch_24">
    <path d="M 107.583942 307.584 
L 109.191143 307.584 
L 109.191143 282.24 
L 107.583942 282.24 
z
" clip-path="url(#p1e774f5a3b)" style="fill: #008000"/>
   </g>
   <g id="patch_25">
    <path d="M 109.191143 307.584 
L 110.798344 307.584 
L 110.798344 82.0224 
L 109.191143 82.0224 
z
" clip-path="url(#p1e774f5a3b)" style="fill: #0000ff"/>
   </g>
   <g id="patch_26">
    <path d="M 110.798344 307.584 
L 112.405545 307.584 
L 112.405545 279.7056 
L 110.798344 279.7056 
z
" clip-path="url(#p1e774f5a3b)" style="fill: #008000"/>
   </g>
   <g id="patch_27">
    <path d="M 112.405545 307.584 
L 114.012745 307.584 
L 114.012745 84.5568 
L 112.405545 84.5568 
z
" clip-path="url(#p1e774f5a3b)" style="fill: #0000ff"/>
   </g>
   <g id="patch_28">
    <path d="M 114.012745 307.584 
L 115.619946 307.584 
L 115.619946 277.1712 
L 114.012745 277.1712 
z
" clip-path="url(#p1e774f5a3b)" style="fill: #008000"/>
   </g>
   <g id="patch_29">
    <path d="M 115.619946 307.584 
L 117.227147 307.584 
L 117.227147 87.0912 
L 115.619946 87.0912 
z
" clip-path="url(#p1e774f5a3b)" style="fill: #0000ff"/>
   </g>
   <g id="patch_30">
    <path d="M 117.227147 307.584 
L 118.834347 307.584 
L 118.834347 274.6368 
L 117.227147 274.6368 
z
" clip-path="url(#p1e774f5a3b)" style="fill: #008000"/>
   </g>
   <g id="patch_31">
    <path d="M 118.834347 307.584 
L 120.441548 307.584 
L 120.441548 89.6256 
L 118.834347 89.6256 
z
" clip-path="url(#p1e774f5a3b)" style="fill: #0000ff"/>
   </g>
   <g id="patch_32">
    <path d="M 120.441548 307.584 
L 122.048749 307.584 
L 122.048749 272.1024 
L 120.441548 272.1024 
z
" clip-path="url(#p1e774f5a3b)" style="fill: #008000"/>
   </g>
   <g id="patch_33">
    <path d="M 122.048749 307.584 
L 123.65595 307.584 
L 123.65595 92.16 
L 122.048749 92.16 
z
" clip-path="url(#p1e774f5a3b)" style="fill: #0000ff"/>
   </g>
   <g id="patch_34">
    <path d="M 123.65595 307.584 
L 125.26315 307.584 
L 125.26315 269.568 
L 123.65595 269.568 
z
" clip-path="url(#p1e774f5a3b)" style="fill: #008000"/>
   </g>
   <g id="patch_35">
    <path d="M 125.26315 307.584 
L 126.870351 307.584 
L 126.870351 94.6944 
L 125.26315 94.6944 
z
" clip-path="url(#p1e774f5a3b)" style="fill: #0000ff"/>
   </g>
   <g id="patch_36">
    <path d="M 126.870351 307.584 
L 128.477552 307.584 
L 128.477552 267.0336 
L 126.870351 267.0336 
z
" clip-path="url(#p1e774f5a3b)" style="fill: #008000"/>
   </g>
   <g id="patch_37">
    <path d="M 128.477552 307.584 
L 130.084752 307.584 
L 130.084752 97.2288 
L 128.477552 97.2288 
z
" clip-path="url(#p1e774f5a3b)" style="fill: #0000ff"/>
   </g>
   <g id="patch_38">
    <path d="M 130.084752 307.584 
L 131.691953 307.584 
L 131.691953 264.4992 
L 130.084752 264.4992 
z
" clip-path="url(#p1e774f5a3b)" style="fill: #008000"/>
   </g>
   <g id="patch_39">
    <path d="M 131.691953 307.584 
L 133.299154 307.584 
L 133.299154 99.7632 
L 131.691953 99.7632 
z
" clip-path="url(#p1e774f5a3b)" style="fill: #0000ff"/>
   </g>
   <g id="patch_40">
    <path d="M 133.299154 307.584 
L 134.906355 307.584 
L 134.906355 261.9648 
L 133.299154 261.9648 
z
" clip-path="url(#p1e774f5a3b)" style="fill: #008000"/>
   </g>
   <g id="patch_41">
    <path d="M 134.906355 307.584 
L 136.513555 307.584 
L 136.513555 102.2976 
L 134.906355 102.2976 
z
" clip-path="url(#p1e774f5a3b)" style="fill: #0000ff"/>
   </g>
   <g id="patch_42">
    <path d="M 136.513555 307.584 
L 138.120756 307.584 
L 138.120756 259.4304 
L 136.513555 259.4304 
z
" clip-path="url(#p1e774f5a3b)" style="fill: #008000"/>
   </g>
   <g id="patch_43">
    <path d="M 138.120756 307.584 
L 139.727957 307.584 
L 139.727957 104.832 
L 138.120756 104.832 
z
" clip-path="url(#p1e774f5a3b)" style="fill: #0000ff"/>
   </g>
   <g id="patch_44">
    <path d="M 139.727957 307.584 
L 141.335158 307.584 
L 141.335158 256.896 
L 139.727957 256.896 
z
" clip-path="url(#p1e774f5a3b)" style="fill: #008000"/>
   </g>
   <g id="patch_45">
    <path d="M 141.335158 307.584 
L 142.942358 307.584 
L 142.942358 107.3664 
L 141.335158 107.3664 
z
" clip-path="url(#p1e774f5a3b)" style="fill: #0000ff"/>
   </g>
   <g id="patch_46">
    <path d="M 142.942358 307.584 
L 144.549559 307.584 
L 144.549559 254.3616 
L 142.942358 254.3616 
z
" clip-path="url(#p1e774f5a3b)" style="fill: #008000"/>
   </g>
   <g id="patch_47">
    <path d="M 144.549559 307.584 
L 146.15676 307.584 
L 146.15676 109.9008 
L 144.549559 109.9008 
z
" clip-path="url(#p1e774f5a3b)" style="fill: #0000ff"/>
   </g>
   <g id="patch_48">
    <path d="M 146.15676 307.584 
L 147.76396 307.584 
L 147.76396 251.8272 
L 146.15676 251.8272 
z
" clip-path="url(#p1e774f5a3b)" style="fill: #008000"/>
   </g>
   <g id="patch_49">
    <path d="M 147.76396 307.584 
L 149.371161 307.584 
L 149.371161 112.4352 
L 147.76396 112.4352 
z
" clip-path="url(#p1e774f5a3b)" style="fill: #0000ff"/>
   </g>
   <g id="patch_50">
    <path d="M 149.371161 307.584 
L 150.978362 307.584 
L 150.978362 249.2928 
L 149.371161 249.2928 
z
" clip-path="url(#p1e774f5a3b)" style="fill: #008000"/>
   </g>
   <g id="patch_51">
    <path d="M 150.978362 307.584 
L 152.585563 307.584 
L 152.585563 114.9696 
L 150.978362 114.9696 
z
" clip-path="url(#p1e774f5a3b)" style="fill: #0000ff"/>
   </g>
   <g id="patch_52">
    <path d="M 152.585563 307.584 
L 154.192763 307.584 
L 154.192763 246.7584 
L 152.585563 246.7584 
z
" clip-path="url(#p1e774f5a3b)" style="fill: #008000"/>
   </g>
   <g id="patch_53">
    <path d="M 154.192763 307.584 
L 155.799964 307.584 
L 155.799964 117.504 
L 154.192763 117.504 
z
" clip-path="url(#p1e774f5a3b)" style="fill: #0000ff"/>
   </g>
   <g id="patch_54">
    <path d="M 155.799964 307.584 
L 157.407165 307.584 
L 157.407165 244.224 
L 155.799964 244.224 
z
" clip-path="url(#p1e774f5a3b)" style="fill: #008000"/>
   </g>
   <g id="patch_55">
    <path d="M 157.407165 307.584 
L 159.014365 307.584 
L 159.014365 120.0384 
L 157.407165 120.0384 
z
" clip-path="url(#p1e774f5a3b)" style="fill: #0000ff"/>
   </g>
   <g id="patch_56">
    <path d="M 159.014365 307.584 
L 160.621566 307.584 
L 160.621566 241.6896 
L 159.014365 241.6896 
z
" clip-path="url(#p1e774f5a3b)" style="fill: #008000"/>
   </g>
   <g id="patch_57">
    <path d="M 160.621566 307.584 
L 162.228767 307.584 
L 162.228767 122.5728 
L 160.621566 122.5728 
z
" clip-path="url(#p1e774f5a3b)" style="fill: #0000ff"/>
   </g>
   <g id="patch_58">
    <path d="M 162.228767 307.584 
L 163.835968 307.584 
L 163.835968 239.1552 
L 162.228767 239.1552 
z
" clip-path="url(#p1e774f5a3b)" style="fill: #008000"/>
   </g>
   <g id="patch_59">
    <path d="M 163.835968 307.584 
L 165.443168 307.584 
L 165.443168 125.1072 
L 163.835968 125.1072 
z
" clip-path="url(#p1e774f5a3b)" style="fill: #0000ff"/>
   </g>
   <g id="patch_60">
    <path d="M 165.443168 307.584 
L 167.050369 307.584 
L 167.050369 236.6208 
L 165.443168 236.6208 
z
" clip-path="url(#p1e774f5a3b)" style="fill: #008000"/>
   </g>
   <g id="patch_61">
    <path d="M 167.050369 307.584 
L 168.65757 307.584 
L 168.65757 127.6416 
L 167.050369 127.6416 
z
" clip-path="url(#p1e774f5a3b)" style="fill: #0000ff"/>
   </g>
   <g id="patch_62">
    <path d="M 168.65757 307.584 
L 170.26477 307.584 
L 170.26477 234.0864 
L 168.65757 234.0864 
z
" clip-path="url(#p1e774f5a3b)" style="fill: #008000"/>
   </g>
   <g id="patch_63">
    <path d="M 170.26477 307.584 
L 171.871971 307.584 
L 171.871971 130.176 
L 170.26477 130.176 
z
" clip-path="url(#p1e774f5a3b)" style="fill: #0000ff"/>
   </g>
   <g id="patch_64">
    <path d="M 171.871971 307.584 
L 173.479172 307.584 
L 173.479172 231.552 
L 171.871971 231.552 
z
" clip-path="url(#p1e774f5a3b)" style="fill: #008000"/>
   </g>
   <g id="patch_65">
    <path d="M 173.479172 307.584 
L 175.086373 307.584 
L 175.086373 132.7104 
L 173.479172 132.7104 
z
" clip-path="url(#p1e774f5a3b)" style="fill: #0000ff"/>
   </g>
   <g id="patch_66">
    <path d="M 175.086373 307.584 
L 176.693573 307.584 
L 176.693573 229.0176 
L 175.086373 229.0176 
z
" clip-path="url(#p1e774f5a3b)" style="fill: #008000"/>
   </g>
   <g id="patch_67">
    <path d="M 176.693573 307.584 
L 178.300774 307.584 
L 178.300774 135.2448 
L 176.693573 135.2448 
z
" clip-path="url(#p1e774f5a3b)" style="fill: #0000ff"/>
   </g>
   <g id="patch_68">
    <path d="M 178.300774 307.584 
L 179.907975 307.584 
L 179.907975 226.4832 
L 178.300774 226.4832 
z
" clip-path="url(#p1e774f5a3b)" style="fill: #008000"/>
   </g>
   <g id="patch_69">
    <path d="M 179.907975 307.584 
L 181.515176 307.584 
L 181.515176 137.7792 
L 179.907975 137.7792 
z
" clip-path="url(#p1e774f5a3b)" style="fill: #0000ff"/>
   </g>
   <g id="patch_70">
    <path d="M 181.515176 307.584 
L 183.122376 307.584 
L 183.122376 223.9488 
L 181.515176 223.9488 
z
" clip-path="url(#p1e774f5a3b)" style="fill: #008000"/>
   </g>
   <g id="patch_71">
    <path d="M 183.122376 307.584 
L 184.729577 307.584 
L 184.729577 140.3136 
L 183.122376 140.3136 
z
" clip-path="url(#p1e774f5a3b)" style="fill: #0000ff"/>
   </g>
   <g id="patch_72">
    <path d="M 184.729577 307.584 
L 186.336778 307.584 
L 186.336778 221.4144 
L 184.729577 221.4144 
z
" clip-path="url(#p1e774f5a3b)" style="fill: #008000"/>
   </g>
   <g id="patch_73">
    <path d="M 186.336778 307.584 
L 187.943978 307.584 
L 187.943978 142.848 
L 186.336778 142.848 
z
" clip-path="url(#p1e774f5a3b)" style="fill: #0000ff"/>
   </g>
   <g id="patch_74">
    <path d="M 187.943978 307.584 
L 189.551179 307.584 
L 189.551179 218.88 
L 187.943978 218.88 
z
" clip-path="url(#p1e774f5a3b)" style="fill: #008000"/>
   </g>
   <g id="patch_75">
    <path d="M 189.551179 307.584 
L 191.15838 307.584 
L 191.15838 145.3824 
L 189.551179 145.3824 
z
" clip-path="url(#p1e774f5a3b)" style="fill: #0000ff"/>
   </g>
   <g id="patch_76">
    <path d="M 191.15838 307.584 
L 192.765581 307.584 
L 192.765581 216.3456 
L 191.15838 216.3456 
z
" clip-path="url(#p1e774f5a3b)" style="fill: #008000"/>
   </g>
   <g id="patch_77">
    <path d="M 192.765581 307.584 
L 194.372781 307.584 
L 194.372781 147.9168 
L 192.765581 147.9168 
z
" clip-path="url(#p1e774f5a3b)" style="fill: #0000ff"/>
   </g>
   <g id="patch_78">
    <path d="M 194.372781 307.584 
L 195.979982 307.584 
L 195.979982 213.8112 
L 194.372781 213.8112 
z
" clip-path="url(#p1e774f5a3b)" style="fill: #008000"/>
   </g>
   <g id="patch_79">
    <path d="M 195.979982 307.584 
L 197.587183 307.584 
L 197.587183 150.4512 
L 195.979982 150.4512 
z
" clip-path="url(#p1e774f5a3b)" style="fill: #0000ff"/>
   </g>
   <g id="patch_80">
    <path d="M 197.587183 307.584 
L 199.194383 307.584 
L 199.194383 211.2768 
L 197.587183 211.2768 
z
" clip-path="url(#p1e774f5a3b)" style="fill: #008000"/>
   </g>
   <g id="patch_81">
    <path d="M 199.194383 307.584 
L 200.801584 307.584 
L 200.801584 152.9856 
L 199.194383 152.9856 
z
" clip-path="url(#p1e774f5a3b)" style="fill: #0000ff"/>
   </g>
   <g id="patch_82">
    <path d="M 200.801584 307.584 
L 202.408785 307.584 
L 202.408785 208.7424 
L 200.801584 208.7424 
z
" clip-path="url(#p1e774f5a3b)" style="fill: #008000"/>
   </g>
   <g id="patch_83">
    <path d="M 202.408785 307.584 
L 204.015986 307.584 
L 204.015986 155.52 
L 202.408785 155.52 
z
" clip-path="url(#p1e774f5a3b)" style="fill: #0000ff"/>
   </g>
   <g id="patch_84">
    <path d="M 204.015986 307.584 
L 205.623186 307.584 
L 205.623186 206.208 
L 204.015986 206.208 
z
" clip-path="url(#p1e774f5a3b)" style="fill: #008000"/>
   </g>
   <g id="patch_85">
    <path d="M 205.623186 307.584 
L 207.230387 307.584 
L 207.230387 158.0544 
L 205.623186 158.0544 
z
" clip-path="url(#p1e774f5a3b)" style="fill: #0000ff"/>
   </g>
   <g id="patch_86">
    <path d="M 207.230387 307.584 
L 208.837588 307.584 
L 208.837588 203.6736 
L 207.230387 203.6736 
z
" clip-path="url(#p1e774f5a3b)" style="fill: #008000"/>
   </g>
   <g id="patch_87">
    <path d="M 208.837588 307.584 
L 210.444788 307.584 
L 210.444788 160.5888 
L 208.837588 160.5888 
z
" clip-path="url(#p1e774f5a3b)" style="fill: #0000ff"/>
   </g>
   <g id="patch_88">
    <path d="M 210.444788 307.584 
L 212.051989 307.584 
L 212.051989 201.1392 
L 210.444788 201.1392 
z
" clip-path="url(#p1e774f5a3b)" style="fill: #008000"/>
   </g>
   <g id="patch_89">
    <path d="M 212.051989 307.584 
L 213.65919 307.584 
L 213.65919 163.1232 
L 212.051989 163.1232 
z
" clip-path="url(#p1e774f5a3b)" style="fill: #0000ff"/>
   </g>
   <g id="patch_90">
    <path d="M 213.65919 307.584 
L 215.266391 307.584 
L 215.266391 198.6048 
L 213.65919 198.6048 
z
" clip-path="url(#p1e774f5a3b)" style="fill: #008000"/>
   </g>
   <g id="patch_91">
    <path d="M 215.266391 307.584 
L 216.873591 307.584 
L 216.873591 165.6576 
L 215.266391 165.6576 
z
" clip-path="url(#p1e774f5a3b)" style="fill: #0000ff"/>
   </g>
   <g id="patch_92">
    <path d="M 216.873591 307.584 
L 218.480792 307.584 
L 218.480792 196.0704 
L 216.873591 196.0704 
z
" clip-path="url(#p1e774f5a3b)" style="fill: #008000"/>
   </g>
   <g id="patch_93">
    <path d="M 218.480792 307.584 
L 220.087993 307.584 
L 220.087993 168.192 
L 218.480792 168.192 
z
" clip-path="url(#p1e774f5a3b)" style="fill: #0000ff"/>
   </g>
   <g id="patch_94">
    <path d="M 220.087993 307.584 
L 221.695194 307.584 
L 221.695194 193.536 
L 220.087993 193.536 
z
" clip-path="url(#p1e774f5a3b)" style="fill: #008000"/>
   </g>
   <g id="patch_95">
    <path d="M 221.695194 307.584 
L 223.302394 307.584 
L 223.302394 170.7264 
L 221.695194 170.7264 
z
" clip-path="url(#p1e774f5a3b)" style="fill: #0000ff"/>
   </g>
   <g id="patch_96">
    <path d="M 223.302394 307.584 
L 224.909595 307.584 
L 224.909595 191.0016 
L 223.302394 191.0016 
z
" clip-path="url(#p1e774f5a3b)" style="fill: #008000"/>
   </g>
   <g id="patch_97">
    <path d="M 224.909595 307.584 
L 226.516796 307.584 
L 226.516796 173.2608 
L 224.909595 173.2608 
z
" clip-path="url(#p1e774f5a3b)" style="fill: #0000ff"/>
   </g>
   <g id="patch_98">
    <path d="M 226.516796 307.584 
L 228.123996 307.584 
L 228.123996 188.4672 
L 226.516796 188.4672 
z
" clip-path="url(#p1e774f5a3b)" style="fill: #008000"/>
   </g>
   <g id="patch_99">
    <path d="M 228.123996 307.584 
L 229.731197 307.584 
L 229.731197 175.7952 
L 228.123996 175.7952 
z
" clip-path="url(#p1e774f5a3b)" style="fill: #0000ff"/>
   </g>
   <g id="patch_100">
    <path d="M 229.731197 307.584 
L 231.338398 307.584 
L 231.338398 185.9328 
L 229.731197 185.9328 
z
" clip-path="url(#p1e774f5a3b)" style="fill: #008000"/>
   </g>
   <g id="patch_101">
    <path d="M 231.338398 307.584 
L 232.945599 307.584 
L 232.945599 178.3296 
L 231.338398 178.3296 
z
" clip-path="url(#p1e774f5a3b)" style="fill: #0000ff"/>
   </g>
   <g id="patch_102">
    <path d="M 232.945599 307.584 
L 234.552799 307.584 
L 234.552799 183.3984 
L 232.945599 183.3984 
z
" clip-path="url(#p1e774f5a3b)" style="fill: #008000"/>
   </g>
   <g id="patch_103">
    <path d="M 234.552799 307.584 
L 236.16 307.584 
L 236.16 180.864 
L 234.552799 180.864 
z
" clip-path="url(#p1e774f5a3b)" style="fill: #0000ff"/>
   </g>
   <g id="patch_104">
    <path d="M 236.16 307.584 
L 237.767201 307.584 
L 237.767201 180.864 
L 236.16 180.864 
z
" clip-path="url(#p1e774f5a3b)" style="fill: #008000"/>
   </g>
   <g id="patch_105">
    <path d="M 237.767201 307.584 
L 239.374401 307.584 
L 239.374401 183.3984 
L 237.767201 183.3984 
z
" clip-path="url(#p1e774f5a3b)" style="fill: #0000ff"/>
   </g>
   <g id="patch_106">
    <path d="M 239.374401 307.584 
L 240.981602 307.584 
L 240.981602 178.3296 
L 239.374401 178.3296 
z
" clip-path="url(#p1e774f5a3b)" style="fill: #008000"/>
   </g>
   <g id="patch_107">
    <path d="M 240.981602 307.584 
L 242.588803 307.584 
L 242.588803 185.9328 
L 240.981602 185.9328 
z
" clip-path="url(#p1e774f5a3b)" style="fill: #0000ff"/>
   </g>
   <g id="patch_108">
    <path d="M 242.588803 307.584 
L 244.196004 307.584 
L 244.196004 175.7952 
L 242.588803 175.7952 
z
" clip-path="url(#p1e774f5a3b)" style="fill: #008000"/>
   </g>
   <g id="patch_109">
    <path d="M 244.196004 307.584 
L 245.803204 307.584 
L 245.803204 188.4672 
L 244.196004 188.4672 
z
" clip-path="url(#p1e774f5a3b)" style="fill: #0000ff"/>
   </g>
   <g id="patch_110">
    <path d="M 245.803204 307.584 
L 247.410405 307.584 
L 247.410405 173.2608 
L 245.803204 173.2608 
z
" clip-path="url(#p1e774f5a3b)" style="fill: #008000"/>
   </g>
   <g id="patch_111">
    <path d="M 247.410405 307.584 
L 249.017606 307.584 
L 249.017606 191.0016 
L 247.410405 191.0016 
z
" clip-path="url(#p1e774f5a3b)" style="fill: #0000ff"/>
   </g>
   <g id="patch_112">
    <path d="M 249.017606 307.584 
L 250.624806 307.584 
L 250.624806 170.7264 
L 249.017606 170.7264 
z
" clip-path="url(#p1e774f5a3b)" style="fill: #008000"/>
   </g>
   <g id="patch_113">
    <path d="M 250.624806 307.584 
L 252.232007 307.584 
L 252.232007 193.536 
L 250.624806 193.536 
z
" clip-path="url(#p1e774f5a3b)" style="fill: #0000ff"/>
   </g>
   <g id="patch_114">
    <path d="M 252.232007 307.584 
L 253.839208 307.584 
L 253.839208 168.192 
L 252.232007 168.192 
z
" clip-path="url(#p1e774f5a3b)" style="fill: #008000"/>
   </g>
   <g id="patch_115">
    <path d="M 253.839208 307.584 
L 255.446409 307.584 
L 255.446409 196.0704 
L 253.839208 196.0704 
z
" clip-path="url(#p1e774f5a3b)" style="fill: #0000ff"/>
   </g>
   <g id="patch_116">
    <path d="M 255.446409 307.584 
L 257.053609 307.584 
L 257.053609 165.6576 
L 255.446409 165.6576 
z
" clip-path="url(#p1e774f5a3b)" style="fill: #008000"/>
   </g>
   <g id="patch_117">
    <path d="M 257.053609 307.584 
L 258.66081 307.584 
L 258.66081 198.6048 
L 257.053609 198.6048 
z
" clip-path="url(#p1e774f5a3b)" style="fill: #0000ff"/>
   </g>
   <g id="patch_118">
    <path d="M 258.66081 307.584 
L 260.268011 307.584 
L 260.268011 163.1232 
L 258.66081 163.1232 
z
" clip-path="url(#p1e774f5a3b)" style="fill: #008000"/>
   </g>
   <g id="patch_119">
    <path d="M 260.268011 307.584 
L 261.875212 307.584 
L 261.875212 201.1392 
L 260.268011 201.1392 
z
" clip-path="url(#p1e774f5a3b)" style="fill: #0000ff"/>
   </g>
   <g id="patch_120">
    <path d="M 261.875212 307.584 
L 263.482412 307.584 
L 263.482412 160.5888 
L 261.875212 160.5888 
z
" clip-path="url(#p1e774f5a3b)" style="fill: #008000"/>
   </g>
   <g id="patch_121">
    <path d="M 263.482412 307.584 
L 265.089613 307.584 
L 265.089613 203.6736 
L 263.482412 203.6736 
z
" clip-path="url(#p1e774f5a3b)" style="fill: #0000ff"/>
   </g>
   <g id="patch_122">
    <path d="M 265.089613 307.584 
L 266.696814 307.584 
L 266.696814 158.0544 
L 265.089613 158.0544 
z
" clip-path="url(#p1e774f5a3b)" style="fill: #008000"/>
   </g>
   <g id="patch_123">
    <path d="M 266.696814 307.584 
L 268.304014 307.584 
L 268.304014 206.208 
L 266.696814 206.208 
z
" clip-path="url(#p1e774f5a3b)" style="fill: #0000ff"/>
   </g>
   <g id="patch_124">
    <path d="M 268.304014 307.584 
L 269.911215 307.584 
L 269.911215 155.52 
L 268.304014 155.52 
z
" clip-path="url(#p1e774f5a3b)" style="fill: #008000"/>
   </g>
   <g id="patch_125">
    <path d="M 269.911215 307.584 
L 271.518416 307.584 
L 271.518416 208.7424 
L 269.911215 208.7424 
z
" clip-path="url(#p1e774f5a3b)" style="fill: #0000ff"/>
   </g>
   <g id="patch_126">
    <path d="M 271.518416 307.584 
L 273.125617 307.584 
L 273.125617 152.9856 
L 271.518416 152.9856 
z
" clip-path="url(#p1e774f5a3b)" style="fill: #008000"/>
   </g>
   <g id="patch_127">
    <path d="M 273.125617 307.584 
L 274.732817 307.584 
L 274.732817 211.2768 
L 273.125617 211.2768 
z
" clip-path="url(#p1e774f5a3b)" style="fill: #0000ff"/>
   </g>
   <g id="patch_128">
    <path d="M 274.732817 307.584 
L 276.340018 307.584 
L 276.340018 150.4512 
L 274.732817 150.4512 
z
" clip-path="url(#p1e774f5a3b)" style="fill: #008000"/>
   </g>
   <g id="patch_129">
    <path d="M 276.340018 307.584 
L 277.947219 307.584 
L 277.947219 213.8112 
L 276.340018 213.8112 
z
" clip-path="url(#p1e774f5a3b)" style="fill: #0000ff"/>
   </g>
   <g id="patch_130">
    <path d="M 277.947219 307.584 
L 279.554419 307.584 
L 279.554419 147.9168 
L 277.947219 147.9168 
z
" clip-path="url(#p1e774f5a3b)" style="fill: #008000"/>
   </g>
   <g id="patch_131">
    <path d="M 279.554419 307.584 
L 281.16162 307.584 
L 281.16162 216.3456 
L 279.554419 216.3456 
z
" clip-path="url(#p1e774f5a3b)" style="fill: #0000ff"/>
   </g>
   <g id="patch_132">
    <path d="M 281.16162 307.584 
L 282.768821 307.584 
L 282.768821 145.3824 
L 281.16162 145.3824 
z
" clip-path="url(#p1e774f5a3b)" style="fill: #008000"/>
   </g>
   <g id="patch_133">
    <path d="M 282.768821 307.584 
L 284.376022 307.584 
L 284.376022 218.88 
L 282.768821 218.88 
z
" clip-path="url(#p1e774f5a3b)" style="fill: #0000ff"/>
   </g>
   <g id="patch_134">
    <path d="M 284.376022 307.584 
L 285.983222 307.584 
L 285.983222 142.848 
L 284.376022 142.848 
z
" clip-path="url(#p1e774f5a3b)" style="fill: #008000"/>
   </g>
   <g id="patch_135">
    <path d="M 285.983222 307.584 
L 287.590423 307.584 
L 287.590423 221.4144 
L 285.983222 221.4144 
z
" clip-path="url(#p1e774f5a3b)" style="fill: #0000ff"/>
   </g>
   <g id="patch_136">
    <path d="M 287.590423 307.584 
L 289.197624 307.584 
L 289.197624 140.3136 
L 287.590423 140.3136 
z
" clip-path="url(#p1e774f5a3b)" style="fill: #008000"/>
   </g>
   <g id="patch_137">
    <path d="M 289.197624 307.584 
L 290.804824 307.584 
L 290.804824 223.9488 
L 289.197624 223.9488 
z
" clip-path="url(#p1e774f5a3b)" style="fill: #0000ff"/>
   </g>
   <g id="patch_138">
    <path d="M 290.804824 307.584 
L 292.412025 307.584 
L 292.412025 137.7792 
L 290.804824 137.7792 
z
" clip-path="url(#p1e774f5a3b)" style="fill: #008000"/>
   </g>
   <g id="patch_139">
    <path d="M 292.412025 307.584 
L 294.019226 307.584 
L 294.019226 226.4832 
L 292.412025 226.4832 
z
" clip-path="url(#p1e774f5a3b)" style="fill: #0000ff"/>
   </g>
   <g id="patch_140">
    <path d="M 294.019226 307.584 
L 295.626427 307.584 
L 295.626427 135.2448 
L 294.019226 135.2448 
z
" clip-path="url(#p1e774f5a3b)" style="fill: #008000"/>
   </g>
   <g id="patch_141">
    <path d="M 295.626427 307.584 
L 297.233627 307.584 
L 297.233627 229.0176 
L 295.626427 229.0176 
z
" clip-path="url(#p1e774f5a3b)" style="fill: #0000ff"/>
   </g>
   <g id="patch_142">
    <path d="M 297.233627 307.584 
L 298.840828 307.584 
L 298.840828 132.7104 
L 297.233627 132.7104 
z
" clip-path="url(#p1e774f5a3b)" style="fill: #008000"/>
   </g>
   <g id="patch_143">
    <path d="M 298.840828 307.584 
L 300.448029 307.584 
L 300.448029 231.552 
L 298.840828 231.552 
z
" clip-path="url(#p1e774f5a3b)" style="fill: #0000ff"/>
   </g>
   <g id="patch_144">
    <path d="M 300.448029 307.584 
L 302.05523 307.584 
L 302.05523 130.176 
L 300.448029 130.176 
z
" clip-path="url(#p1e774f5a3b)" style="fill: #008000"/>
   </g>
   <g id="patch_145">
    <path d="M 302.05523 307.584 
L 303.66243 307.584 
L 303.66243 234.0864 
L 302.05523 234.0864 
z
" clip-path="url(#p1e774f5a3b)" style="fill: #0000ff"/>
   </g>
   <g id="patch_146">
    <path d="M 303.66243 307.584 
L 305.269631 307.584 
L 305.269631 127.6416 
L 303.66243 127.6416 
z
" clip-path="url(#p1e774f5a3b)" style="fill: #008000"/>
   </g>
   <g id="patch_147">
    <path d="M 305.269631 307.584 
L 306.876832 307.584 
L 306.876832 236.6208 
L 305.269631 236.6208 
z
" clip-path="url(#p1e774f5a3b)" style="fill: #0000ff"/>
   </g>
   <g id="patch_148">
    <path d="M 306.876832 307.584 
L 308.484032 307.584 
L 308.484032 125.1072 
L 306.876832 125.1072 
z
" clip-path="url(#p1e774f5a3b)" style="fill: #008000"/>
   </g>
   <g id="patch_149">
    <path d="M 308.484032 307.584 
L 310.091233 307.584 
L 310.091233 239.1552 
L 308.484032 239.1552 
z
" clip-path="url(#p1e774f5a3b)" style="fill: #0000ff"/>
   </g>
   <g id="patch_150">
    <path d="M 310.091233 307.584 
L 311.698434 307.584 
L 311.698434 122.5728 
L 310.091233 122.5728 
z
" clip-path="url(#p1e774f5a3b)" style="fill: #008000"/>
   </g>
   <g id="patch_151">
    <path d="M 311.698434 307.584 
L 313.305635 307.584 
L 313.305635 241.6896 
L 311.698434 241.6896 
z
" clip-path="url(#p1e774f5a3b)" style="fill: #0000ff"/>
   </g>
   <g id="patch_152">
    <path d="M 313.305635 307.584 
L 314.912835 307.584 
L 314.912835 120.0384 
L 313.305635 120.0384 
z
" clip-path="url(#p1e774f5a3b)" style="fill: #008000"/>
   </g>
   <g id="patch_153">
    <path d="M 314.912835 307.584 
L 316.520036 307.584 
L 316.520036 244.224 
L 314.912835 244.224 
z
" clip-path="url(#p1e774f5a3b)" style="fill: #0000ff"/>
   </g>
   <g id="patch_154">
    <path d="M 316.520036 307.584 
L 318.127237 307.584 
L 318.127237 117.504 
L 316.520036 117.504 
z
" clip-path="url(#p1e774f5a3b)" style="fill: #008000"/>
   </g>
   <g id="patch_155">
    <path d="M 318.127237 307.584 
L 319.734437 307.584 
L 319.734437 246.7584 
L 318.127237 246.7584 
z
" clip-path="url(#p1e774f5a3b)" style="fill: #0000ff"/>
   </g>
   <g id="patch_156">
    <path d="M 319.734437 307.584 
L 321.341638 307.584 
L 321.341638 114.9696 
L 319.734437 114.9696 
z
" clip-path="url(#p1e774f5a3b)" style="fill: #008000"/>
   </g>
   <g id="patch_157">
    <path d="M 321.341638 307.584 
L 322.948839 307.584 
L 322.948839 249.2928 
L 321.341638 249.2928 
z
" clip-path="url(#p1e774f5a3b)" style="fill: #0000ff"/>
   </g>
   <g id="patch_158">
    <path d="M 322.948839 307.584 
L 324.55604 307.584 
L 324.55604 112.4352 
L 322.948839 112.4352 
z
" clip-path="url(#p1e774f5a3b)" style="fill: #008000"/>
   </g>
   <g id="patch_159">
    <path d="M 324.55604 307.584 
L 326.16324 307.584 
L 326.16324 251.8272 
L 324.55604 251.8272 
z
" clip-path="url(#p1e774f5a3b)" style="fill: #0000ff"/>
   </g>
   <g id="patch_160">
    <path d="M 326.16324 307.584 
L 327.770441 307.584 
L 327.770441 109.9008 
L 326.16324 109.9008 
z
" clip-path="url(#p1e774f5a3b)" style="fill: #008000"/>
   </g>
   <g id="patch_161">
    <path d="M 327.770441 307.584 
L 329.377642 307.584 
L 329.377642 254.3616 
L 327.770441 254.3616 
z
" clip-path="url(#p1e774f5a3b)" style="fill: #0000ff"/>
   </g>
   <g id="patch_162">
    <path d="M 329.377642 307.584 
L 330.984842 307.584 
L 330.984842 107.3664 
L 329.377642 107.3664 
z
" clip-path="url(#p1e774f5a3b)" style="fill: #008000"/>
   </g>
   <g id="patch_163">
    <path d="M 330.984842 307.584 
L 332.592043 307.584 
L 332.592043 256.896 
L 330.984842 256.896 
z
" clip-path="url(#p1e774f5a3b)" style="fill: #0000ff"/>
   </g>
   <g id="patch_164">
    <path d="M 332.592043 307.584 
L 334.199244 307.584 
L 334.199244 104.832 
L 332.592043 104.832 
z
" clip-path="url(#p1e774f5a3b)" style="fill: #008000"/>
   </g>
   <g id="patch_165">
    <path d="M 334.199244 307.584 
L 335.806445 307.584 
L 335.806445 259.4304 
L 334.199244 259.4304 
z
" clip-path="url(#p1e774f5a3b)" style="fill: #0000ff"/>
   </g>
   <g id="patch_166">
    <path d="M 335.806445 307.584 
L 337.413645 307.584 
L 337.413645 102.2976 
L 335.806445 102.2976 
z
" clip-path="url(#p1e774f5a3b)" style="fill: #008000"/>
   </g>
   <g id="patch_167">
    <path d="M 337.413645 307.584 
L 339.020846 307.584 
L 339.020846 261.9648 
L 337.413645 261.9648 
z
" clip-path="url(#p1e774f5a3b)" style="fill: #0000ff"/>
   </g>
   <g id="patch_168">
    <path d="M 339.020846 307.584 
L 340.628047 307.584 
L 340.628047 99.7632 
L 339.020846 99.7632 
z
" clip-path="url(#p1e774f5a3b)" style="fill: #008000"/>
   </g>
   <g id="patch_169">
    <path d="M 340.628047 307.584 
L 342.235248 307.584 
L 342.235248 264.4992 
L 340.628047 264.4992 
z
" clip-path="url(#p1e774f5a3b)" style="fill: #0000ff"/>
   </g>
   <g id="patch_170">
    <path d="M 342.235248 307.584 
L 343.842448 307.584 
L 343.842448 97.2288 
L 342.235248 97.2288 
z
" clip-path="url(#p1e774f5a3b)" style="fill: #008000"/>
   </g>
   <g id="patch_171">
    <path d="M 343.842448 307.584 
L 345.449649 307.584 
L 345.449649 267.0336 
L 343.842448 267.0336 
z
" clip-path="url(#p1e774f5a3b)" style="fill: #0000ff"/>
   </g>
   <g id="patch_172">
    <path d="M 345.449649 307.584 
L 347.05685 307.584 
L 347.05685 94.6944 
L 345.449649 94.6944 
z
" clip-path="url(#p1e774f5a3b)" style="fill: #008000"/>
   </g>
   <g id="patch_173">
    <path d="M 347.05685 307.584 
L 348.66405 307.584 
L 348.66405 269.568 
L 347.05685 269.568 
z
" clip-path="url(#p1e774f5a3b)" style="fill: #0000ff"/>
   </g>
   <g id="patch_174">
    <path d="M 348.66405 307.584 
L 350.271251 307.584 
L 350.271251 92.16 
L 348.66405 92.16 
z
" clip-path="url(#p1e774f5a3b)" style="fill: #008000"/>
   </g>
   <g id="patch_175">
    <path d="M 350.271251 307.584 
L 351.878452 307.584 
L 351.878452 272.1024 
L 350.271251 272.1024 
z
" clip-path="url(#p1e774f5a3b)" style="fill: #0000ff"/>
   </g>
   <g id="patch_176">
    <path d="M 351.878452 307.584 
L 353.485653 307.584 
L 353.485653 89.6256 
L 351.878452 89.6256 
z
" clip-path="url(#p1e774f5a3b)" style="fill: #008000"/>
   </g>
   <g id="patch_177">
    <path d="M 353.485653 307.584 
L 355.092853 307.584 
L 355.092853 274.6368 
L 353.485653 274.6368 
z
" clip-path="url(#p1e774f5a3b)" style="fill: #0000ff"/>
   </g>
   <g id="patch_178">
    <path d="M 355.092853 307.584 
L 356.700054 307.584 
L 356.700054 87.0912 
L 355.092853 87.0912 
z
" clip-path="url(#p1e774f5a3b)" style="fill: #008000"/>
   </g>
   <g id="patch_179">
    <path d="M 356.700054 307.584 
L 358.307255 307.584 
L 358.307255 277.1712 
L 356.700054 277.1712 
z
" clip-path="url(#p1e774f5a3b)" style="fill: #0000ff"/>
   </g>
   <g id="patch_180">
    <path d="M 358.307255 307.584 
L 359.914455 307.584 
L 359.914455 84.5568 
L 358.307255 84.5568 
z
" clip-path="url(#p1e774f5a3b)" style="fill: #008000"/>
   </g>
   <g id="patch_181">
    <path d="M 359.914455 307.584 
L 361.521656 307.584 
L 361.521656 279.7056 
L 359.914455 279.7056 
z
" clip-path="url(#p1e774f5a3b)" style="fill: #0000ff"/>
   </g>
   <g id="patch_182">
    <path d="M 361.521656 307.584 
L 363.128857 307.584 
L 363.128857 82.0224 
L 361.521656 82.0224 
z
" clip-path="url(#p1e774f5a3b)" style="fill: #008000"/>
   </g>
   <g id="patch_183">
    <path d="M 363.128857 307.584 
L 364.736058 307.584 
L 364.736058 282.24 
L 363.128857 282.24 
z
" clip-path="url(#p1e774f5a3b)" style="fill: #0000ff"/>
   </g>
   <g id="patch_184">
    <path d="M 364.736058 307.584 
L 366.343258 307.584 
L 366.343258 79.488 
L 364.736058 79.488 
z
" clip-path="url(#p1e774f5a3b)" style="fill: #008000"/>
   </g>
   <g id="patch_185">
    <path d="M 366.343258 307.584 
L 367.950459 307.584 
L 367.950459 284.7744 
L 366.343258 284.7744 
z
" clip-path="url(#p1e774f5a3b)" style="fill: #0000ff"/>
   </g>
   <g id="patch_186">
    <path d="M 367.950459 307.584 
L 369.55766 307.584 
L 369.55766 76.9536 
L 367.950459 76.9536 
z
" clip-path="url(#p1e774f5a3b)" style="fill: #008000"/>
   </g>
   <g id="patch_187">
    <path d="M 369.55766 307.584 
L 371.16486 307.584 
L 371.16486 287.3088 
L 369.55766 287.3088 
z
" clip-path="url(#p1e774f5a3b)" style="fill: #0000ff"/>
   </g>
   <g id="patch_188">
    <path d="M 371.16486 307.584 
L 372.772061 307.584 
L 372.772061 74.4192 
L 371.16486 74.4192 
z
" clip-path="url(#p1e774f5a3b)" style="fill: #008000"/>
   </g>
   <g id="patch_189">
    <path d="M 372.772061 307.584 
L 374.379262 307.584 
L 374.379262 289.8432 
L 372.772061 289.8432 
z
" clip-path="url(#p1e774f5a3b)" style="fill: #0000ff"/>
   </g>
   <g id="patch_190">
    <path d="M 374.379262 307.584 
L 375.986463 307.584 
L 375.986463 71.8848 
L 374.379262 71.8848 
z
" clip-path="url(#p1e774f5a3b)" style="fill: #008000"/>
   </g>
   <g id="patch_191">
    <path d="M 375.986463 307.584 
L 377.593663 307.584 
L 377.593663 292.3776 
L 375.986463 292.3776 
z
" clip-path="url(#p1e774f5a3b)" style="fill: #0000ff"/>
   </g>
   <g id="patch_192">
    <path d="M 377.593663 307.584 
L 379.200864 307.584 
L 379.200864 69.3504 
L 377.593663 69.3504 
z
" clip-path="url(#p1e774f5a3b)" style="fill: #008000"/>
   </g>
   <g id="patch_193">
    <path d="M 379.200864 307.584 
L 380.808065 307.584 
L 380.808065 294.912 
L 379.200864 294.912 
z
" clip-path="url(#p1e774f5a3b)" style="fill: #0000ff"/>
   </g>
   <g id="patch_194">
    <path d="M 380.808065 307.584 
L 382.415266 307.584 
L 382.415266 66.816 
L 380.808065 66.816 
z
" clip-path="url(#p1e774f5a3b)" style="fill: #008000"/>
   </g>
   <g id="patch_195">
    <path d="M 382.415266 307.584 
L 384.022466 307.584 
L 384.022466 297.4464 
L 382.415266 297.4464 
z
" clip-path="url(#p1e774f5a3b)" style="fill: #0000ff"/>
   </g>
   <g id="patch_196">
    <path d="M 384.022466 307.584 
L 385.629667 307.584 
L 385.629667 64.2816 
L 384.022466 64.2816 
z
" clip-path="url(#p1e774f5a3b)" style="fill: #008000"/>
   </g>
   <g id="patch_197">
    <path d="M 385.629667 307.584 
L 387.236868 307.584 
L 387.236868 299.9808 
L 385.629667 299.9808 
z
" clip-path="url(#p1e774f5a3b)" style="fill: #0000ff"/>
   </g>
   <g id="patch_198">
    <path d="M 387.236868 307.584 
L 388.844068 307.584 
L 388.844068 61.7472 
L 387.236868 61.7472 
z
" clip-path="url(#p1e774f5a3b)" style="fill: #008000"/>
   </g>
   <g id="patch_199">
    <path d="M 388.844068 307.584 
L 390.451269 307.584 
L 390.451269 302.5152 
L 388.844068 302.5152 
z
" clip-path="url(#p1e774f5a3b)" style="fill: #0000ff"/>
   </g>
   <g id="patch_200">
    <path d="M 390.451269 307.584 
L 392.05847 307.584 
L 392.05847 59.2128 
L 390.451269 59.2128 
z
" clip-path="url(#p1e774f5a3b)" style="fill: #008000"/>
   </g>
   <g id="patch_201">
    <path d="M 392.05847 307.584 
L 393.665671 307.584 
L 393.665671 305.0496 
L 392.05847 305.0496 
z
" clip-path="url(#p1e774f5a3b)" style="fill: #0000ff"/>
   </g>
   <g id="patch_202">
    <path d="M 393.665671 307.584 
L 395.272871 307.584 
L 395.272871 56.6784 
L 393.665671 56.6784 
z
" clip-path="url(#p1e774f5a3b)" style="fill: #008000"/>
   </g>
   <g id="patch_203">
    <path d="M 395.272871 307.584 
L 396.880072 307.584 
L 396.880072 307.584 
L 395.272871 307.584 
z
" clip-path="url(#p1e774f5a3b)" style="fill: #0000ff"/>
   </g>
   <g id="patch_204">
    <path d="M 396.880072 307.584 
L 398.487273 307.584 
L 398.487273 54.144 
L 396.880072 54.144 
z
" clip-path="url(#p1e774f5a3b)" style="fill: #008000"/>
   </g>
   <g id="matplotlib.axis_1">
    <g id="xtick_1">
     <g id="line2d_1">
      <defs>
       <path id="m966ae58519" d="M 0 0 
L 0 3.5 
" style="stroke: #000000; stroke-width: 0.8"/>
      </defs>
      <g>
       <use xlink:href="#m966ae58519" x="74.636328" y="307.584" style="stroke: #000000; stroke-width: 0.8"/>
      </g>
     </g>
     <g id="text_1">
      <!-- 0 -->
      <g transform="translate(71.455078 322.182437) scale(0.1 -0.1)">
       <defs>
        <path id="DejaVuSans-30" d="M 2034 4250 
Q 1547 4250 1301 3770 
Q 1056 3291 1056 2328 
Q 1056 1369 1301 889 
Q 1547 409 2034 409 
Q 2525 409 2770 889 
Q 3016 1369 3016 2328 
Q 3016 3291 2770 3770 
Q 2525 4250 2034 4250 
z
M 2034 4750 
Q 2819 4750 3233 4129 
Q 3647 3509 3647 2328 
Q 3647 1150 3233 529 
Q 2819 -91 2034 -91 
Q 1250 -91 836 529 
Q 422 1150 422 2328 
Q 422 3509 836 4129 
Q 1250 4750 2034 4750 
z
" transform="scale(0.015625)"/>
       </defs>
       <use xlink:href="#DejaVuSans-30"/>
      </g>
     </g>
    </g>
    <g id="xtick_2">
     <g id="line2d_2">
      <g>
       <use xlink:href="#m966ae58519" x="138.924356" y="307.584" style="stroke: #000000; stroke-width: 0.8"/>
      </g>
     </g>
     <g id="text_2">
      <!-- 20 -->
      <g transform="translate(132.561856 322.182437) scale(0.1 -0.1)">
       <defs>
        <path id="DejaVuSans-32" d="M 1228 531 
L 3431 531 
L 3431 0 
L 469 0 
L 469 531 
Q 828 903 1448 1529 
Q 2069 2156 2228 2338 
Q 2531 2678 2651 2914 
Q 2772 3150 2772 3378 
Q 2772 3750 2511 3984 
Q 2250 4219 1831 4219 
Q 1534 4219 1204 4116 
Q 875 4013 500 3803 
L 500 4441 
Q 881 4594 1212 4672 
Q 1544 4750 1819 4750 
Q 2544 4750 2975 4387 
Q 3406 4025 3406 3419 
Q 3406 3131 3298 2873 
Q 3191 2616 2906 2266 
Q 2828 2175 2409 1742 
Q 1991 1309 1228 531 
z
" transform="scale(0.015625)"/>
       </defs>
       <use xlink:href="#DejaVuSans-32"/>
       <use xlink:href="#DejaVuSans-30" x="63.623047"/>
      </g>
     </g>
    </g>
    <g id="xtick_3">
     <g id="line2d_3">
      <g>
       <use xlink:href="#m966ae58519" x="203.212385" y="307.584" style="stroke: #000000; stroke-width: 0.8"/>
      </g>
     </g>
     <g id="text_3">
      <!-- 40 -->
      <g transform="translate(196.849885 322.182437) scale(0.1 -0.1)">
       <defs>
        <path id="DejaVuSans-34" d="M 2419 4116 
L 825 1625 
L 2419 1625 
L 2419 4116 
z
M 2253 4666 
L 3047 4666 
L 3047 1625 
L 3713 1625 
L 3713 1100 
L 3047 1100 
L 3047 0 
L 2419 0 
L 2419 1100 
L 313 1100 
L 313 1709 
L 2253 4666 
z
" transform="scale(0.015625)"/>
       </defs>
       <use xlink:href="#DejaVuSans-34"/>
       <use xlink:href="#DejaVuSans-30" x="63.623047"/>
      </g>
     </g>
    </g>
    <g id="xtick_4">
     <g id="line2d_4">
      <g>
       <use xlink:href="#m966ae58519" x="267.500414" y="307.584" style="stroke: #000000; stroke-width: 0.8"/>
      </g>
     </g>
     <g id="text_4">
      <!-- 60 -->
      <g transform="translate(261.137914 322.182437) scale(0.1 -0.1)">
       <defs>
        <path id="DejaVuSans-36" d="M 2113 2584 
Q 1688 2584 1439 2293 
Q 1191 2003 1191 1497 
Q 1191 994 1439 701 
Q 1688 409 2113 409 
Q 2538 409 2786 701 
Q 3034 994 3034 1497 
Q 3034 2003 2786 2293 
Q 2538 2584 2113 2584 
z
M 3366 4563 
L 3366 3988 
Q 3128 4100 2886 4159 
Q 2644 4219 2406 4219 
Q 1781 4219 1451 3797 
Q 1122 3375 1075 2522 
Q 1259 2794 1537 2939 
Q 1816 3084 2150 3084 
Q 2853 3084 3261 2657 
Q 3669 2231 3669 1497 
Q 3669 778 3244 343 
Q 2819 -91 2113 -91 
Q 1303 -91 875 529 
Q 447 1150 447 2328 
Q 447 3434 972 4092 
Q 1497 4750 2381 4750 
Q 2619 4750 2861 4703 
Q 3103 4656 3366 4563 
z
" transform="scale(0.015625)"/>
       </defs>
       <use xlink:href="#DejaVuSans-36"/>
       <use xlink:href="#DejaVuSans-30" x="63.623047"/>
      </g>
     </g>
    </g>
    <g id="xtick_5">
     <g id="line2d_5">
      <g>
       <use xlink:href="#m966ae58519" x="331.788443" y="307.584" style="stroke: #000000; stroke-width: 0.8"/>
      </g>
     </g>
     <g id="text_5">
      <!-- 80 -->
      <g transform="translate(325.425943 322.182437) scale(0.1 -0.1)">
       <defs>
        <path id="DejaVuSans-38" d="M 2034 2216 
Q 1584 2216 1326 1975 
Q 1069 1734 1069 1313 
Q 1069 891 1326 650 
Q 1584 409 2034 409 
Q 2484 409 2743 651 
Q 3003 894 3003 1313 
Q 3003 1734 2745 1975 
Q 2488 2216 2034 2216 
z
M 1403 2484 
Q 997 2584 770 2862 
Q 544 3141 544 3541 
Q 544 4100 942 4425 
Q 1341 4750 2034 4750 
Q 2731 4750 3128 4425 
Q 3525 4100 3525 3541 
Q 3525 3141 3298 2862 
Q 3072 2584 2669 2484 
Q 3125 2378 3379 2068 
Q 3634 1759 3634 1313 
Q 3634 634 3220 271 
Q 2806 -91 2034 -91 
Q 1263 -91 848 271 
Q 434 634 434 1313 
Q 434 1759 690 2068 
Q 947 2378 1403 2484 
z
M 1172 3481 
Q 1172 3119 1398 2916 
Q 1625 2713 2034 2713 
Q 2441 2713 2670 2916 
Q 2900 3119 2900 3481 
Q 2900 3844 2670 4047 
Q 2441 4250 2034 4250 
Q 1625 4250 1398 4047 
Q 1172 3844 1172 3481 
z
" transform="scale(0.015625)"/>
       </defs>
       <use xlink:href="#DejaVuSans-38"/>
       <use xlink:href="#DejaVuSans-30" x="63.623047"/>
      </g>
     </g>
    </g>
    <g id="xtick_6">
     <g id="line2d_6">
      <g>
       <use xlink:href="#m966ae58519" x="396.076472" y="307.584" style="stroke: #000000; stroke-width: 0.8"/>
      </g>
     </g>
     <g id="text_6">
      <!-- 100 -->
      <g transform="translate(386.532722 322.182437) scale(0.1 -0.1)">
       <defs>
        <path id="DejaVuSans-31" d="M 794 531 
L 1825 531 
L 1825 4091 
L 703 3866 
L 703 4441 
L 1819 4666 
L 2450 4666 
L 2450 531 
L 3481 531 
L 3481 0 
L 794 0 
L 794 531 
z
" transform="scale(0.015625)"/>
       </defs>
       <use xlink:href="#DejaVuSans-31"/>
       <use xlink:href="#DejaVuSans-30" x="63.623047"/>
       <use xlink:href="#DejaVuSans-30" x="127.246094"/>
      </g>
     </g>
    </g>
   </g>
   <g id="matplotlib.axis_2">
    <g id="ytick_1">
     <g id="line2d_7">
      <defs>
       <path id="mcd5293fe46" d="M 0 0 
L -3.5 0 
" style="stroke: #000000; stroke-width: 0.8"/>
      </defs>
      <g>
       <use xlink:href="#mcd5293fe46" x="57.6" y="307.584" style="stroke: #000000; stroke-width: 0.8"/>
      </g>
     </g>
     <g id="text_7">
      <!-- 0.0 -->
      <g transform="translate(34.696875 311.383219) scale(0.1 -0.1)">
       <defs>
        <path id="DejaVuSans-2e" d="M 684 794 
L 1344 794 
L 1344 0 
L 684 0 
L 684 794 
z
" transform="scale(0.015625)"/>
       </defs>
       <use xlink:href="#DejaVuSans-30"/>
       <use xlink:href="#DejaVuSans-2e" x="63.623047"/>
       <use xlink:href="#DejaVuSans-30" x="95.410156"/>
      </g>
     </g>
    </g>
    <g id="ytick_2">
     <g id="line2d_8">
      <g>
       <use xlink:href="#mcd5293fe46" x="57.6" y="256.896" style="stroke: #000000; stroke-width: 0.8"/>
      </g>
     </g>
     <g id="text_8">
      <!-- 0.2 -->
      <g transform="translate(34.696875 260.695219) scale(0.1 -0.1)">
       <use xlink:href="#DejaVuSans-30"/>
       <use xlink:href="#DejaVuSans-2e" x="63.623047"/>
       <use xlink:href="#DejaVuSans-32" x="95.410156"/>
      </g>
     </g>
    </g>
    <g id="ytick_3">
     <g id="line2d_9">
      <g>
       <use xlink:href="#mcd5293fe46" x="57.6" y="206.208" style="stroke: #000000; stroke-width: 0.8"/>
      </g>
     </g>
     <g id="text_9">
      <!-- 0.4 -->
      <g transform="translate(34.696875 210.007219) scale(0.1 -0.1)">
       <use xlink:href="#DejaVuSans-30"/>
       <use xlink:href="#DejaVuSans-2e" x="63.623047"/>
       <use xlink:href="#DejaVuSans-34" x="95.410156"/>
      </g>
     </g>
    </g>
    <g id="ytick_4">
     <g id="line2d_10">
      <g>
       <use xlink:href="#mcd5293fe46" x="57.6" y="155.52" style="stroke: #000000; stroke-width: 0.8"/>
      </g>
     </g>
     <g id="text_10">
      <!-- 0.6 -->
      <g transform="translate(34.696875 159.319219) scale(0.1 -0.1)">
       <use xlink:href="#DejaVuSans-30"/>
       <use xlink:href="#DejaVuSans-2e" x="63.623047"/>
       <use xlink:href="#DejaVuSans-36" x="95.410156"/>
      </g>
     </g>
    </g>
    <g id="ytick_5">
     <g id="line2d_11">
      <g>
       <use xlink:href="#mcd5293fe46" x="57.6" y="104.832" style="stroke: #000000; stroke-width: 0.8"/>
      </g>
     </g>
     <g id="text_11">
      <!-- 0.8 -->
      <g transform="translate(34.696875 108.631219) scale(0.1 -0.1)">
       <use xlink:href="#DejaVuSans-30"/>
       <use xlink:href="#DejaVuSans-2e" x="63.623047"/>
       <use xlink:href="#DejaVuSans-38" x="95.410156"/>
      </g>
     </g>
    </g>
    <g id="ytick_6">
     <g id="line2d_12">
      <g>
       <use xlink:href="#mcd5293fe46" x="57.6" y="54.144" style="stroke: #000000; stroke-width: 0.8"/>
      </g>
     </g>
     <g id="text_12">
      <!-- 1.0 -->
      <g transform="translate(34.696875 57.943219) scale(0.1 -0.1)">
       <use xlink:href="#DejaVuSans-31"/>
       <use xlink:href="#DejaVuSans-2e" x="63.623047"/>
       <use xlink:href="#DejaVuSans-30" x="95.410156"/>
      </g>
     </g>
    </g>
   </g>
   <g id="patch_205">
    <path d="M 57.6 307.584 
L 57.6 41.472 
" style="fill: none; stroke: #000000; stroke-width: 0.8; stroke-linejoin: miter; stroke-linecap: square"/>
   </g>
   <g id="patch_206">
    <path d="M 414.72 307.584 
L 414.72 41.472 
" style="fill: none; stroke: #000000; stroke-width: 0.8; stroke-linejoin: miter; stroke-linecap: square"/>
   </g>
   <g id="patch_207">
    <path d="M 57.6 307.584 
L 414.72 307.584 
" style="fill: none; stroke: #000000; stroke-width: 0.8; stroke-linejoin: miter; stroke-linecap: square"/>
   </g>
   <g id="patch_208">
    <path d="M 57.6 41.472 
L 414.72 41.472 
" style="fill: none; stroke: #000000; stroke-width: 0.8; stroke-linejoin: miter; stroke-linecap: square"/>
   </g>
   <g id="text_13">
    <!-- Balance in binary classes -->
    <g transform="translate(160.354688 35.472) scale(0.12 -0.12)">
     <defs>
      <path id="DejaVuSans-42" d="M 1259 2228 
L 1259 519 
L 2272 519 
Q 2781 519 3026 730 
Q 3272 941 3272 1375 
Q 3272 1813 3026 2020 
Q 2781 2228 2272 2228 
L 1259 2228 
z
M 1259 4147 
L 1259 2741 
L 2194 2741 
Q 2656 2741 2882 2914 
Q 3109 3088 3109 3444 
Q 3109 3797 2882 3972 
Q 2656 4147 2194 4147 
L 1259 4147 
z
M 628 4666 
L 2241 4666 
Q 2963 4666 3353 4366 
Q 3744 4066 3744 3513 
Q 3744 3084 3544 2831 
Q 3344 2578 2956 2516 
Q 3422 2416 3680 2098 
Q 3938 1781 3938 1306 
Q 3938 681 3513 340 
Q 3088 0 2303 0 
L 628 0 
L 628 4666 
z
" transform="scale(0.015625)"/>
      <path id="DejaVuSans-61" d="M 2194 1759 
Q 1497 1759 1228 1600 
Q 959 1441 959 1056 
Q 959 750 1161 570 
Q 1363 391 1709 391 
Q 2188 391 2477 730 
Q 2766 1069 2766 1631 
L 2766 1759 
L 2194 1759 
z
M 3341 1997 
L 3341 0 
L 2766 0 
L 2766 531 
Q 2569 213 2275 61 
Q 1981 -91 1556 -91 
Q 1019 -91 701 211 
Q 384 513 384 1019 
Q 384 1609 779 1909 
Q 1175 2209 1959 2209 
L 2766 2209 
L 2766 2266 
Q 2766 2663 2505 2880 
Q 2244 3097 1772 3097 
Q 1472 3097 1187 3025 
Q 903 2953 641 2809 
L 641 3341 
Q 956 3463 1253 3523 
Q 1550 3584 1831 3584 
Q 2591 3584 2966 3190 
Q 3341 2797 3341 1997 
z
" transform="scale(0.015625)"/>
      <path id="DejaVuSans-6c" d="M 603 4863 
L 1178 4863 
L 1178 0 
L 603 0 
L 603 4863 
z
" transform="scale(0.015625)"/>
      <path id="DejaVuSans-6e" d="M 3513 2113 
L 3513 0 
L 2938 0 
L 2938 2094 
Q 2938 2591 2744 2837 
Q 2550 3084 2163 3084 
Q 1697 3084 1428 2787 
Q 1159 2491 1159 1978 
L 1159 0 
L 581 0 
L 581 3500 
L 1159 3500 
L 1159 2956 
Q 1366 3272 1645 3428 
Q 1925 3584 2291 3584 
Q 2894 3584 3203 3211 
Q 3513 2838 3513 2113 
z
" transform="scale(0.015625)"/>
      <path id="DejaVuSans-63" d="M 3122 3366 
L 3122 2828 
Q 2878 2963 2633 3030 
Q 2388 3097 2138 3097 
Q 1578 3097 1268 2742 
Q 959 2388 959 1747 
Q 959 1106 1268 751 
Q 1578 397 2138 397 
Q 2388 397 2633 464 
Q 2878 531 3122 666 
L 3122 134 
Q 2881 22 2623 -34 
Q 2366 -91 2075 -91 
Q 1284 -91 818 406 
Q 353 903 353 1747 
Q 353 2603 823 3093 
Q 1294 3584 2113 3584 
Q 2378 3584 2631 3529 
Q 2884 3475 3122 3366 
z
" transform="scale(0.015625)"/>
      <path id="DejaVuSans-65" d="M 3597 1894 
L 3597 1613 
L 953 1613 
Q 991 1019 1311 708 
Q 1631 397 2203 397 
Q 2534 397 2845 478 
Q 3156 559 3463 722 
L 3463 178 
Q 3153 47 2828 -22 
Q 2503 -91 2169 -91 
Q 1331 -91 842 396 
Q 353 884 353 1716 
Q 353 2575 817 3079 
Q 1281 3584 2069 3584 
Q 2775 3584 3186 3129 
Q 3597 2675 3597 1894 
z
M 3022 2063 
Q 3016 2534 2758 2815 
Q 2500 3097 2075 3097 
Q 1594 3097 1305 2825 
Q 1016 2553 972 2059 
L 3022 2063 
z
" transform="scale(0.015625)"/>
      <path id="DejaVuSans-20" transform="scale(0.015625)"/>
      <path id="DejaVuSans-69" d="M 603 3500 
L 1178 3500 
L 1178 0 
L 603 0 
L 603 3500 
z
M 603 4863 
L 1178 4863 
L 1178 4134 
L 603 4134 
L 603 4863 
z
" transform="scale(0.015625)"/>
      <path id="DejaVuSans-62" d="M 3116 1747 
Q 3116 2381 2855 2742 
Q 2594 3103 2138 3103 
Q 1681 3103 1420 2742 
Q 1159 2381 1159 1747 
Q 1159 1113 1420 752 
Q 1681 391 2138 391 
Q 2594 391 2855 752 
Q 3116 1113 3116 1747 
z
M 1159 2969 
Q 1341 3281 1617 3432 
Q 1894 3584 2278 3584 
Q 2916 3584 3314 3078 
Q 3713 2572 3713 1747 
Q 3713 922 3314 415 
Q 2916 -91 2278 -91 
Q 1894 -91 1617 61 
Q 1341 213 1159 525 
L 1159 0 
L 581 0 
L 581 4863 
L 1159 4863 
L 1159 2969 
z
" transform="scale(0.015625)"/>
      <path id="DejaVuSans-72" d="M 2631 2963 
Q 2534 3019 2420 3045 
Q 2306 3072 2169 3072 
Q 1681 3072 1420 2755 
Q 1159 2438 1159 1844 
L 1159 0 
L 581 0 
L 581 3500 
L 1159 3500 
L 1159 2956 
Q 1341 3275 1631 3429 
Q 1922 3584 2338 3584 
Q 2397 3584 2469 3576 
Q 2541 3569 2628 3553 
L 2631 2963 
z
" transform="scale(0.015625)"/>
      <path id="DejaVuSans-79" d="M 2059 -325 
Q 1816 -950 1584 -1140 
Q 1353 -1331 966 -1331 
L 506 -1331 
L 506 -850 
L 844 -850 
Q 1081 -850 1212 -737 
Q 1344 -625 1503 -206 
L 1606 56 
L 191 3500 
L 800 3500 
L 1894 763 
L 2988 3500 
L 3597 3500 
L 2059 -325 
z
" transform="scale(0.015625)"/>
      <path id="DejaVuSans-73" d="M 2834 3397 
L 2834 2853 
Q 2591 2978 2328 3040 
Q 2066 3103 1784 3103 
Q 1356 3103 1142 2972 
Q 928 2841 928 2578 
Q 928 2378 1081 2264 
Q 1234 2150 1697 2047 
L 1894 2003 
Q 2506 1872 2764 1633 
Q 3022 1394 3022 966 
Q 3022 478 2636 193 
Q 2250 -91 1575 -91 
Q 1294 -91 989 -36 
Q 684 19 347 128 
L 347 722 
Q 666 556 975 473 
Q 1284 391 1588 391 
Q 1994 391 2212 530 
Q 2431 669 2431 922 
Q 2431 1156 2273 1281 
Q 2116 1406 1581 1522 
L 1381 1569 
Q 847 1681 609 1914 
Q 372 2147 372 2553 
Q 372 3047 722 3315 
Q 1072 3584 1716 3584 
Q 2034 3584 2315 3537 
Q 2597 3491 2834 3397 
z
" transform="scale(0.015625)"/>
     </defs>
     <use xlink:href="#DejaVuSans-42"/>
     <use xlink:href="#DejaVuSans-61" x="68.603516"/>
     <use xlink:href="#DejaVuSans-6c" x="129.882812"/>
     <use xlink:href="#DejaVuSans-61" x="157.666016"/>
     <use xlink:href="#DejaVuSans-6e" x="218.945312"/>
     <use xlink:href="#DejaVuSans-63" x="282.324219"/>
     <use xlink:href="#DejaVuSans-65" x="337.304688"/>
     <use xlink:href="#DejaVuSans-20" x="398.828125"/>
     <use xlink:href="#DejaVuSans-69" x="430.615234"/>
     <use xlink:href="#DejaVuSans-6e" x="458.398438"/>
     <use xlink:href="#DejaVuSans-20" x="521.777344"/>
     <use xlink:href="#DejaVuSans-62" x="553.564453"/>
     <use xlink:href="#DejaVuSans-69" x="617.041016"/>
     <use xlink:href="#DejaVuSans-6e" x="644.824219"/>
     <use xlink:href="#DejaVuSans-61" x="708.203125"/>
     <use xlink:href="#DejaVuSans-72" x="769.482422"/>
     <use xlink:href="#DejaVuSans-79" x="810.595703"/>
     <use xlink:href="#DejaVuSans-20" x="869.775391"/>
     <use xlink:href="#DejaVuSans-63" x="901.5625"/>
     <use xlink:href="#DejaVuSans-6c" x="956.542969"/>
     <use xlink:href="#DejaVuSans-61" x="984.326172"/>
     <use xlink:href="#DejaVuSans-73" x="1045.605469"/>
     <use xlink:href="#DejaVuSans-73" x="1097.705078"/>
     <use xlink:href="#DejaVuSans-65" x="1149.804688"/>
     <use xlink:href="#DejaVuSans-73" x="1211.328125"/>
    </g>
   </g>
   <g id="legend_1">
    <g id="patch_209">
     <path d="M 202.977969 78.82825 
L 269.342031 78.82825 
Q 271.342031 78.82825 271.342031 76.82825 
L 271.342031 48.472 
Q 271.342031 46.472 269.342031 46.472 
L 202.977969 46.472 
Q 200.977969 46.472 200.977969 48.472 
L 200.977969 76.82825 
Q 200.977969 78.82825 202.977969 78.82825 
z
" style="fill: #ffffff; opacity: 0.8; stroke: #cccccc; stroke-linejoin: miter"/>
    </g>
    <g id="patch_210">
     <path d="M 204.977969 58.070437 
L 224.977969 58.070437 
L 224.977969 51.070437 
L 204.977969 51.070437 
z
" style="fill: #0000ff"/>
    </g>
    <g id="text_14">
     <!-- class 0 -->
     <g transform="translate(232.977969 58.070437) scale(0.1 -0.1)">
      <use xlink:href="#DejaVuSans-63"/>
      <use xlink:href="#DejaVuSans-6c" x="54.980469"/>
      <use xlink:href="#DejaVuSans-61" x="82.763672"/>
      <use xlink:href="#DejaVuSans-73" x="144.042969"/>
      <use xlink:href="#DejaVuSans-73" x="196.142578"/>
      <use xlink:href="#DejaVuSans-20" x="248.242188"/>
      <use xlink:href="#DejaVuSans-30" x="280.029297"/>
     </g>
    </g>
    <g id="patch_211">
     <path d="M 204.977969 72.748562 
L 224.977969 72.748562 
L 224.977969 65.748562 
L 204.977969 65.748562 
z
" style="fill: #008000"/>
    </g>
    <g id="text_15">
     <!-- class 1 -->
     <g transform="translate(232.977969 72.748562) scale(0.1 -0.1)">
      <use xlink:href="#DejaVuSans-63"/>
      <use xlink:href="#DejaVuSans-6c" x="54.980469"/>
      <use xlink:href="#DejaVuSans-61" x="82.763672"/>
      <use xlink:href="#DejaVuSans-73" x="144.042969"/>
      <use xlink:href="#DejaVuSans-73" x="196.142578"/>
      <use xlink:href="#DejaVuSans-20" x="248.242188"/>
      <use xlink:href="#DejaVuSans-31" x="280.029297"/>
     </g>
    </g>
   </g>
  </g>
 </g>
 <defs>
  <clipPath id="p1e774f5a3b">
   <rect x="57.6" y="41.472" width="357.12" height="266.112"/>
  </clipPath>
 </defs>
</svg>
