<?xml version="1.0" encoding="UTF-8" standalone="no"?>
<!DOCTYPE svg PUBLIC "-//W3C//DTD SVG 1.1//EN"
 "http://www.w3.org/Graphics/SVG/1.1/DTD/svg11.dtd">
<!-- Generated by graphviz version 9.0.0 (0)
 -->
<!-- Pages: 1 -->
<svg width="248pt" height="206pt"
 viewBox="0.00 0.00 248.26 206.25" xmlns="http://www.w3.org/2000/svg" xmlns:xlink="http://www.w3.org/1999/xlink">
<g id="graph0" class="graph" transform="scale(1 1) rotate(0) translate(4 202.25)">
<polygon fill="white" stroke="none" points="-4,4 -4,-202.25 244.26,-202.25 244.26,4 -4,4"/>
<!-- a1 -->
<g id="node1" class="node">
<title>a1</title>
<ellipse fill="none" stroke="black" cx="77.21" cy="-180.25" rx="54.89" ry="18"/>
<text text-anchor="middle" x="77.21" y="-175.57" font-family="Times,serif" font-size="14.00">Raining?</text>
</g>
<!-- b1 -->
<g id="node2" class="node">
<title>b1</title>
<ellipse fill="none" stroke="black" cx="41.21" cy="-91" rx="41.21" ry="18"/>
<text text-anchor="middle" x="41.21" y="-86.33" font-family="Times,serif" font-size="14.00">inside</text>
</g>
<!-- a1&#45;&gt;b1 -->
<g id="edge1" class="edge">
<title>a1&#45;&gt;b1</title>
<path fill="none" stroke="black" d="M70.1,-162.01C65.12,-149.94 58.36,-133.56 52.63,-119.67"/>
<polygon fill="black" stroke="black" points="55.94,-118.51 48.89,-110.6 49.47,-121.18 55.94,-118.51"/>
<text text-anchor="middle" x="75.21" y="-130.95" font-family="Times,serif" font-size="14.00">yes</text>
</g>
<!-- b2 -->
<g id="node3" class="node">
<title>b2</title>
<ellipse fill="none" stroke="black" cx="139.21" cy="-91" rx="39.11" ry="18"/>
<text text-anchor="middle" x="139.21" y="-86.33" font-family="Times,serif" font-size="14.00">Cold?</text>
</g>
<!-- a1&#45;&gt;b2 -->
<g id="edge2" class="edge">
<title>a1&#45;&gt;b2</title>
<path fill="none" stroke="black" d="M89.17,-162.43C98.14,-149.79 110.6,-132.26 120.84,-117.85"/>
<polygon fill="black" stroke="black" points="123.69,-119.89 126.63,-109.71 117.98,-115.83 123.69,-119.89"/>
<text text-anchor="middle" x="121.84" y="-130.95" font-family="Times,serif" font-size="14.00">no</text>
</g>
<!-- c1 -->
<g id="node4" class="node">
<title>c1</title>
<ellipse fill="none" stroke="black" cx="85.21" cy="-18" rx="41.21" ry="18"/>
<text text-anchor="middle" x="85.21" y="-13.32" font-family="Times,serif" font-size="14.00">inside</text>
</g>
<!-- b2&#45;&gt;c1 -->
<g id="edge3" class="edge">
<title>b2&#45;&gt;c1</title>
<path fill="none" stroke="black" d="M126.69,-73.53C120.08,-64.84 111.82,-53.99 104.42,-44.26"/>
<polygon fill="black" stroke="black" points="107.42,-42.42 98.58,-36.58 101.85,-46.66 107.42,-42.42"/>
</g>
<!-- c2 -->
<g id="node5" class="node">
<title>c2</title>
<ellipse fill="none" stroke="black" cx="192.21" cy="-18" rx="48.05" ry="18"/>
<text text-anchor="middle" x="192.21" y="-13.32" font-family="Times,serif" font-size="14.00">outside</text>
</g>
<!-- b2&#45;&gt;c2 -->
<g id="edge4" class="edge">
<title>b2&#45;&gt;c2</title>
<path fill="none" stroke="black" d="M151.5,-73.53C157.93,-64.93 165.93,-54.21 173.13,-44.56"/>
<polygon fill="black" stroke="black" points="175.9,-46.7 179.08,-36.59 170.29,-42.51 175.9,-46.7"/>
</g>
</g>
</svg>
