<?xml version="1.0" encoding="UTF-8" standalone="no"?>
<!DOCTYPE svg PUBLIC "-//W3C//DTD SVG 1.1//EN"
 "http://www.w3.org/Graphics/SVG/1.1/DTD/svg11.dtd">
<!-- Generated by graphviz version 9.0.0 (0)
 -->
<!-- Pages: 1 -->
<svg width="170pt" height="164pt"
 viewBox="0.00 0.00 169.95 164.21" xmlns="http://www.w3.org/2000/svg" xmlns:xlink="http://www.w3.org/1999/xlink">
<g id="graph0" class="graph" transform="scale(1 1) rotate(0) translate(4 160.21)">
<polygon fill="white" stroke="none" points="-4,4 -4,-160.21 165.95,-160.21 165.95,4 -4,4"/>
<!-- root
node -->
<g id="node1" class="node">
<title>root
node</title>
<ellipse fill="none" stroke="black" cx="80.71" cy="-126.16" rx="35.71" ry="30.05"/>
<text text-anchor="middle" x="80.71" y="-130.11" font-family="Times,serif" font-size="14.00">root</text>
<text text-anchor="middle" x="80.71" y="-112.86" font-family="Times,serif" font-size="14.00">node</text>
</g>
<!-- left
child -->
<g id="node2" class="node">
<title>left
child</title>
<ellipse fill="none" stroke="black" cx="35.71" cy="-30.05" rx="35.71" ry="30.05"/>
<text text-anchor="middle" x="35.71" y="-34" font-family="Times,serif" font-size="14.00">left</text>
<text text-anchor="middle" x="35.71" y="-16.75" font-family="Times,serif" font-size="14.00">child</text>
</g>
<!-- root
node&#45;&gt;left
child -->
<g id="edge1" class="edge">
<title>root
node&#45;&gt;left
child</title>
<path fill="none" stroke="black" d="M67.69,-97.94C63.31,-88.77 58.34,-78.37 53.64,-68.55"/>
<polygon fill="black" stroke="black" points="56.82,-67.09 49.35,-59.58 50.51,-70.11 56.82,-67.09"/>
</g>
<!-- right
child -->
<g id="node3" class="node">
<title>right
child</title>
<ellipse fill="none" stroke="black" cx="125.71" cy="-30.05" rx="36.24" ry="30.05"/>
<text text-anchor="middle" x="125.71" y="-34" font-family="Times,serif" font-size="14.00">right</text>
<text text-anchor="middle" x="125.71" y="-16.75" font-family="Times,serif" font-size="14.00">child</text>
</g>
<!-- root
node&#45;&gt;right
child -->
<g id="edge2" class="edge">
<title>root
node&#45;&gt;right
child</title>
<path fill="none" stroke="black" d="M93.72,-97.94C98.07,-88.85 103,-78.55 107.65,-68.81"/>
<polygon fill="black" stroke="black" points="110.76,-70.43 111.91,-59.9 104.44,-67.41 110.76,-70.43"/>
</g>
</g>
</svg>
