<?xml version="1.0" encoding="utf-8" standalone="no"?>
<!DOCTYPE svg PUBLIC "-//W3C//DTD SVG 1.1//EN"
  "http://www.w3.org/Graphics/SVG/1.1/DTD/svg11.dtd">
<svg xmlns:xlink="http://www.w3.org/1999/xlink" width="432pt" height="432pt" viewBox="0 0 432 432" xmlns="http://www.w3.org/2000/svg" version="1.1">
 <metadata>
  <rdf:RDF xmlns:dc="http://purl.org/dc/elements/1.1/" xmlns:cc="http://creativecommons.org/ns#" xmlns:rdf="http://www.w3.org/1999/02/22-rdf-syntax-ns#">
   <cc:Work>
    <dc:type rdf:resource="http://purl.org/dc/dcmitype/StillImage"/>
    <dc:date>2023-12-30T12:40:13.285827</dc:date>
    <dc:format>image/svg+xml</dc:format>
    <dc:creator>
     <cc:Agent>
      <dc:title>Matplotlib v3.8.2, https://matplotlib.org/</dc:title>
     </cc:Agent>
    </dc:creator>
   </cc:Work>
  </rdf:RDF>
 </metadata>
 <defs>
  <style type="text/css">*{stroke-linejoin: round; stroke-linecap: butt}</style>
 </defs>
 <g id="figure_1">
  <g id="patch_1">
   <path d="M 0 432 
L 432 432 
L 432 0 
L 0 0 
L 0 432 
z
" style="fill: none"/>
  </g>
  <g id="axes_1">
   <g id="patch_2">
    <path d="M 54 384.48 
L 388.8 384.48 
L 388.8 51.84 
L 54 51.84 
L 54 384.48 
z
" style="fill: none"/>
   </g>
   <g id="QuadContourSet_1">
    <path d="M 56.24698 384.48 
L 58.49396 384.48 
L 60.74094 384.48 
L 62.987919 384.48 
L 65.234899 384.48 
L 67.481879 384.48 
L 69.728859 384.48 
L 71.975839 384.48 
L 74.222819 384.48 
L 76.469799 384.48 
L 78.716779 384.48 
L 80.963758 384.48 
L 83.210738 384.48 
L 85.457718 384.48 
L 87.704698 384.48 
L 89.951678 384.48 
L 92.198658 384.48 
L 94.445638 384.48 
L 96.692617 384.48 
L 98.939597 384.48 
L 101.186577 384.48 
L 103.433557 384.48 
L 105.680537 384.48 
L 107.927517 384.48 
L 110.174497 384.48 
L 112.421477 384.48 
L 114.668456 384.48 
L 116.915436 384.48 
L 119.162416 384.48 
L 121.409396 384.48 
L 123.656376 384.48 
L 125.903356 384.48 
L 128.150336 384.48 
L 130.397315 384.48 
L 132.644295 384.48 
L 134.891275 384.48 
L 137.138255 384.48 
L 139.385235 384.48 
L 141.632215 384.48 
L 143.879195 384.48 
L 146.126174 384.48 
L 148.373154 384.48 
L 150.620134 384.48 
L 152.867114 384.48 
L 155.114094 384.48 
L 157.361074 384.48 
L 159.608054 384.48 
L 161.855034 384.48 
L 164.102013 384.48 
L 166.348993 384.48 
L 168.595973 384.48 
L 170.842953 384.48 
L 173.089933 384.48 
L 175.336913 384.48 
L 177.583893 384.48 
L 179.830872 384.48 
L 182.077852 384.48 
L 184.324832 384.48 
L 186.571812 384.48 
L 188.818792 384.48 
L 191.065772 384.48 
L 193.312752 384.48 
L 195.559732 384.48 
L 197.806711 384.48 
L 200.053691 384.48 
L 202.300671 384.48 
L 202.637718 384.48 
L 202.637718 382.232432 
L 202.637718 379.984865 
L 204.547651 378.074432 
L 204.884698 377.737297 
L 204.884698 375.48973 
L 204.884698 373.242162 
L 204.884698 370.994595 
L 204.884698 368.747027 
L 204.884698 366.499459 
L 204.884698 364.251892 
L 204.884698 362.004324 
L 204.884698 359.756757 
L 206.794631 357.846324 
L 207.131678 357.509189 
L 207.131678 355.261622 
L 207.131678 353.014054 
L 207.131678 350.766486 
L 207.131678 348.518919 
L 207.131678 346.271351 
L 207.131678 344.023784 
L 207.131678 341.776216 
L 207.131678 339.528649 
L 209.041611 337.618216 
L 209.378658 337.281081 
L 209.378658 335.033514 
L 209.378658 332.785946 
L 209.378658 330.538378 
L 209.378658 328.290811 
L 209.378658 326.043243 
L 209.378658 323.795676 
L 209.378658 321.548108 
L 209.378658 319.300541 
L 211.288591 317.390108 
L 211.625638 317.052973 
L 211.625638 314.805405 
L 211.625638 312.557838 
L 211.625638 310.31027 
L 211.625638 308.062703 
L 211.625638 305.815135 
L 211.625638 303.567568 
L 211.625638 301.32 
L 211.625638 299.072432 
L 213.53557 297.162 
L 213.872617 296.824865 
L 213.872617 294.577297 
L 213.872617 292.32973 
L 213.872617 290.082162 
L 213.872617 287.834595 
L 213.872617 285.587027 
L 213.872617 283.339459 
L 213.872617 281.091892 
L 215.78255 279.181459 
L 216.119597 278.844324 
L 216.119597 276.596757 
L 216.119597 274.349189 
L 216.119597 272.101622 
L 216.119597 269.854054 
L 216.119597 267.606486 
L 216.119597 265.358919 
L 216.119597 263.111351 
L 216.119597 260.863784 
L 218.02953 258.953351 
L 218.366577 258.616216 
L 218.366577 256.368649 
L 218.366577 254.121081 
L 218.366577 251.873514 
L 218.366577 249.625946 
L 218.366577 247.378378 
L 218.366577 245.130811 
L 218.366577 242.883243 
L 218.366577 240.635676 
L 220.27651 238.725243 
L 220.613557 238.388108 
L 220.613557 236.140541 
L 220.613557 233.892973 
L 220.613557 231.645405 
L 220.613557 229.397838 
L 220.613557 227.15027 
L 220.613557 224.902703 
L 220.613557 222.655135 
L 220.613557 220.407568 
L 222.52349 218.497135 
L 222.860537 218.16 
L 222.860537 215.912432 
L 222.860537 213.664865 
L 222.860537 211.417297 
L 222.860537 209.16973 
L 222.860537 206.922162 
L 222.860537 204.674595 
L 222.860537 202.427027 
L 224.77047 200.516595 
L 225.107517 200.179459 
L 225.107517 197.931892 
L 225.107517 195.684324 
L 225.107517 193.436757 
L 225.107517 191.189189 
L 225.107517 188.941622 
L 225.107517 186.694054 
L 225.107517 184.446486 
L 225.107517 182.198919 
L 227.01745 180.288486 
L 227.354497 179.951351 
L 227.354497 177.703784 
L 227.354497 175.456216 
L 227.354497 173.208649 
L 227.354497 170.961081 
L 227.354497 168.713514 
L 227.354497 166.465946 
L 227.354497 164.218378 
L 227.354497 161.970811 
L 229.26443 160.060378 
L 229.601477 159.723243 
L 229.601477 157.475676 
L 229.601477 155.228108 
L 229.601477 152.980541 
L 229.601477 150.732973 
L 229.601477 148.485405 
L 229.601477 146.237838 
L 229.601477 143.99027 
L 229.601477 141.742703 
L 231.511409 139.83227 
L 231.848456 139.495135 
L 231.848456 137.247568 
L 231.848456 135 
L 231.848456 132.752432 
L 231.848456 130.504865 
L 231.848456 128.257297 
L 231.848456 126.00973 
L 231.848456 123.762162 
L 231.848456 121.514595 
L 233.758389 119.604162 
L 234.095436 119.267027 
L 234.095436 117.019459 
L 234.095436 114.771892 
L 234.095436 112.524324 
L 234.095436 110.276757 
L 234.095436 108.029189 
L 234.095436 105.781622 
L 234.095436 103.534054 
L 236.005369 101.623622 
L 236.342416 101.286486 
L 236.342416 99.038919 
L 236.342416 96.791351 
L 236.342416 94.543784 
L 236.342416 92.296216 
L 236.342416 90.048649 
L 236.342416 87.801081 
L 236.342416 85.553514 
L 236.342416 83.305946 
L 238.252349 81.395514 
L 238.589396 81.058378 
L 238.589396 78.810811 
L 238.589396 76.563243 
L 238.589396 74.315676 
L 238.589396 72.068108 
L 238.589396 69.820541 
L 238.589396 67.572973 
L 238.589396 65.325405 
L 238.589396 63.077838 
L 240.499329 61.167405 
L 240.836376 60.83027 
L 240.836376 58.582703 
L 240.836376 56.335135 
L 240.836376 54.087568 
L 240.836376 51.84 
L 240.499329 51.84 
L 238.252349 51.84 
L 236.005369 51.84 
L 233.758389 51.84 
L 231.511409 51.84 
L 229.26443 51.84 
L 227.01745 51.84 
L 224.77047 51.84 
L 222.52349 51.84 
L 220.27651 51.84 
L 218.02953 51.84 
L 215.78255 51.84 
L 213.53557 51.84 
L 211.288591 51.84 
L 209.041611 51.84 
L 206.794631 51.84 
L 204.547651 51.84 
L 202.300671 51.84 
L 200.053691 51.84 
L 197.806711 51.84 
L 195.559732 51.84 
L 193.312752 51.84 
L 191.065772 51.84 
L 188.818792 51.84 
L 186.571812 51.84 
L 184.324832 51.84 
L 182.077852 51.84 
L 179.830872 51.84 
L 177.583893 51.84 
L 175.336913 51.84 
L 173.089933 51.84 
L 170.842953 51.84 
L 168.595973 51.84 
L 166.348993 51.84 
L 164.102013 51.84 
L 161.855034 51.84 
L 159.608054 51.84 
L 157.361074 51.84 
L 155.114094 51.84 
L 152.867114 51.84 
L 150.620134 51.84 
L 148.373154 51.84 
L 146.126174 51.84 
L 143.879195 51.84 
L 141.632215 51.84 
L 139.385235 51.84 
L 137.138255 51.84 
L 134.891275 51.84 
L 132.644295 51.84 
L 130.397315 51.84 
L 128.150336 51.84 
L 125.903356 51.84 
L 123.656376 51.84 
L 121.409396 51.84 
L 119.162416 51.84 
L 116.915436 51.84 
L 114.668456 51.84 
L 112.421477 51.84 
L 110.174497 51.84 
L 107.927517 51.84 
L 105.680537 51.84 
L 103.433557 51.84 
L 101.186577 51.84 
L 98.939597 51.84 
L 96.692617 51.84 
L 94.445638 51.84 
L 92.198658 51.84 
L 89.951678 51.84 
L 87.704698 51.84 
L 85.457718 51.84 
L 83.210738 51.84 
L 80.963758 51.84 
L 78.716779 51.84 
L 76.469799 51.84 
L 74.222819 51.84 
L 71.975839 51.84 
L 69.728859 51.84 
L 67.481879 51.84 
L 65.234899 51.84 
L 62.987919 51.84 
L 60.74094 51.84 
L 58.49396 51.84 
L 56.24698 51.84 
L 54 51.84 
L 54 54.087568 
L 54 56.335135 
L 54 58.582703 
L 54 60.83027 
L 54 63.077838 
L 54 65.325405 
L 54 67.572973 
L 54 69.820541 
L 54 72.068108 
L 54 74.315676 
L 54 76.563243 
L 54 78.810811 
L 54 81.058378 
L 54 83.305946 
L 54 85.553514 
L 54 87.801081 
L 54 90.048649 
L 54 92.296216 
L 54 94.543784 
L 54 96.791351 
L 54 99.038919 
L 54 101.286486 
L 54 103.534054 
L 54 105.781622 
L 54 108.029189 
L 54 110.276757 
L 54 112.524324 
L 54 114.771892 
L 54 117.019459 
L 54 119.267027 
L 54 121.514595 
L 54 123.762162 
L 54 126.00973 
L 54 128.257297 
L 54 130.504865 
L 54 132.752432 
L 54 135 
L 54 137.247568 
L 54 139.495135 
L 54 141.742703 
L 54 143.99027 
L 54 146.237838 
L 54 148.485405 
L 54 150.732973 
L 54 152.980541 
L 54 155.228108 
L 54 157.475676 
L 54 159.723243 
L 54 161.970811 
L 54 164.218378 
L 54 166.465946 
L 54 168.713514 
L 54 170.961081 
L 54 173.208649 
L 54 175.456216 
L 54 177.703784 
L 54 179.951351 
L 54 182.198919 
L 54 184.446486 
L 54 186.694054 
L 54 188.941622 
L 54 191.189189 
L 54 193.436757 
L 54 195.684324 
L 54 197.931892 
L 54 200.179459 
L 54 202.427027 
L 54 204.674595 
L 54 206.922162 
L 54 209.16973 
L 54 211.417297 
L 54 213.664865 
L 54 215.912432 
L 54 218.16 
L 54 220.407568 
L 54 222.655135 
L 54 224.902703 
L 54 227.15027 
L 54 229.397838 
L 54 231.645405 
L 54 233.892973 
L 54 236.140541 
L 54 238.388108 
L 54 240.635676 
L 54 242.883243 
L 54 245.130811 
L 54 247.378378 
L 54 249.625946 
L 54 251.873514 
L 54 254.121081 
L 54 256.368649 
L 54 258.616216 
L 54 260.863784 
L 54 263.111351 
L 54 265.358919 
L 54 267.606486 
L 54 269.854054 
L 54 272.101622 
L 54 274.349189 
L 54 276.596757 
L 54 278.844324 
L 54 281.091892 
L 54 283.339459 
L 54 285.587027 
L 54 287.834595 
L 54 290.082162 
L 54 292.32973 
L 54 294.577297 
L 54 296.824865 
L 54 299.072432 
L 54 301.32 
L 54 303.567568 
L 54 305.815135 
L 54 308.062703 
L 54 310.31027 
L 54 312.557838 
L 54 314.805405 
L 54 317.052973 
L 54 319.300541 
L 54 321.548108 
L 54 323.795676 
L 54 326.043243 
L 54 328.290811 
L 54 330.538378 
L 54 332.785946 
L 54 335.033514 
L 54 337.281081 
L 54 339.528649 
L 54 341.776216 
L 54 344.023784 
L 54 346.271351 
L 54 348.518919 
L 54 350.766486 
L 54 353.014054 
L 54 355.261622 
L 54 357.509189 
L 54 359.756757 
L 54 362.004324 
L 54 364.251892 
L 54 366.499459 
L 54 368.747027 
L 54 370.994595 
L 54 373.242162 
L 54 375.48973 
L 54 377.737297 
L 54 379.984865 
L 54 382.232432 
L 54 384.48 
z
" clip-path="url(#pdc49d6dbae)" style="fill: #1f77b4; fill-opacity: 0.3"/>
    <path d="M 202.974765 382.232432 
L 202.974765 379.984865 
L 204.547651 378.411568 
L 205.221745 377.737297 
L 205.221745 375.48973 
L 205.221745 373.242162 
L 205.221745 370.994595 
L 205.221745 368.747027 
L 205.221745 366.499459 
L 205.221745 364.251892 
L 205.221745 362.004324 
L 205.221745 359.756757 
L 206.794631 358.183459 
L 207.468725 357.509189 
L 207.468725 355.261622 
L 207.468725 353.014054 
L 207.468725 350.766486 
L 207.468725 348.518919 
L 207.468725 346.271351 
L 207.468725 344.023784 
L 207.468725 341.776216 
L 207.468725 339.528649 
L 209.041611 337.955351 
L 209.715705 337.281081 
L 209.715705 335.033514 
L 209.715705 332.785946 
L 209.715705 330.538378 
L 209.715705 328.290811 
L 209.715705 326.043243 
L 209.715705 323.795676 
L 209.715705 321.548108 
L 209.715705 319.300541 
L 211.288591 317.727243 
L 211.962685 317.052973 
L 211.962685 314.805405 
L 211.962685 312.557838 
L 211.962685 310.31027 
L 211.962685 308.062703 
L 211.962685 305.815135 
L 211.962685 303.567568 
L 211.962685 301.32 
L 211.962685 299.072432 
L 213.53557 297.499135 
L 214.209664 296.824865 
L 214.209664 294.577297 
L 214.209664 292.32973 
L 214.209664 290.082162 
L 214.209664 287.834595 
L 214.209664 285.587027 
L 214.209664 283.339459 
L 214.209664 281.091892 
L 215.78255 279.518595 
L 216.456644 278.844324 
L 216.456644 276.596757 
L 216.456644 274.349189 
L 216.456644 272.101622 
L 216.456644 269.854054 
L 216.456644 267.606486 
L 216.456644 265.358919 
L 216.456644 263.111351 
L 216.456644 260.863784 
L 218.02953 259.290486 
L 218.703624 258.616216 
L 218.703624 256.368649 
L 218.703624 254.121081 
L 218.703624 251.873514 
L 218.703624 249.625946 
L 218.703624 247.378378 
L 218.703624 245.130811 
L 218.703624 242.883243 
L 218.703624 240.635676 
L 220.27651 239.062378 
L 220.950604 238.388108 
L 220.950604 236.140541 
L 220.950604 233.892973 
L 220.950604 231.645405 
L 220.950604 229.397838 
L 220.950604 227.15027 
L 220.950604 224.902703 
L 220.950604 222.655135 
L 220.950604 220.407568 
L 222.52349 218.83427 
L 223.197584 218.16 
L 223.197584 215.912432 
L 223.197584 213.664865 
L 223.197584 211.417297 
L 223.197584 209.16973 
L 223.197584 206.922162 
L 223.197584 204.674595 
L 223.197584 202.427027 
L 224.77047 200.85373 
L 225.444564 200.179459 
L 225.444564 197.931892 
L 225.444564 195.684324 
L 225.444564 193.436757 
L 225.444564 191.189189 
L 225.444564 188.941622 
L 225.444564 186.694054 
L 225.444564 184.446486 
L 225.444564 182.198919 
L 227.01745 180.625622 
L 227.691544 179.951351 
L 227.691544 177.703784 
L 227.691544 175.456216 
L 227.691544 173.208649 
L 227.691544 170.961081 
L 227.691544 168.713514 
L 227.691544 166.465946 
L 227.691544 164.218378 
L 227.691544 161.970811 
L 229.26443 160.397514 
L 229.938523 159.723243 
L 229.938523 157.475676 
L 229.938523 155.228108 
L 229.938523 152.980541 
L 229.938523 150.732973 
L 229.938523 148.485405 
L 229.938523 146.237838 
L 229.938523 143.99027 
L 229.938523 141.742703 
L 231.511409 140.169405 
L 232.185503 139.495135 
L 232.185503 137.247568 
L 232.185503 135 
L 232.185503 132.752432 
L 232.185503 130.504865 
L 232.185503 128.257297 
L 232.185503 126.00973 
L 232.185503 123.762162 
L 232.185503 121.514595 
L 233.758389 119.941297 
L 234.432483 119.267027 
L 234.432483 117.019459 
L 234.432483 114.771892 
L 234.432483 112.524324 
L 234.432483 110.276757 
L 234.432483 108.029189 
L 234.432483 105.781622 
L 234.432483 103.534054 
L 236.005369 101.960757 
L 236.679463 101.286486 
L 236.679463 99.038919 
L 236.679463 96.791351 
L 236.679463 94.543784 
L 236.679463 92.296216 
L 236.679463 90.048649 
L 236.679463 87.801081 
L 236.679463 85.553514 
L 236.679463 83.305946 
L 238.252349 81.732649 
L 238.926443 81.058378 
L 238.926443 78.810811 
L 238.926443 76.563243 
L 238.926443 74.315676 
L 238.926443 72.068108 
L 238.926443 69.820541 
L 238.926443 67.572973 
L 238.926443 65.325405 
L 238.926443 63.077838 
L 240.499329 61.504541 
L 241.173423 60.83027 
L 241.173423 58.582703 
L 241.173423 56.335135 
L 241.173423 54.087568 
L 241.173423 51.84 
L 240.836376 51.84 
L 240.836376 54.087568 
L 240.836376 56.335135 
L 240.836376 58.582703 
L 240.836376 60.83027 
L 240.499329 61.167405 
L 238.589396 63.077838 
L 238.589396 65.325405 
L 238.589396 67.572973 
L 238.589396 69.820541 
L 238.589396 72.068108 
L 238.589396 74.315676 
L 238.589396 76.563243 
L 238.589396 78.810811 
L 238.589396 81.058378 
L 238.252349 81.395514 
L 236.342416 83.305946 
L 236.342416 85.553514 
L 236.342416 87.801081 
L 236.342416 90.048649 
L 236.342416 92.296216 
L 236.342416 94.543784 
L 236.342416 96.791351 
L 236.342416 99.038919 
L 236.342416 101.286486 
L 236.005369 101.623622 
L 234.095436 103.534054 
L 234.095436 105.781622 
L 234.095436 108.029189 
L 234.095436 110.276757 
L 234.095436 112.524324 
L 234.095436 114.771892 
L 234.095436 117.019459 
L 234.095436 119.267027 
L 233.758389 119.604162 
L 231.848456 121.514595 
L 231.848456 123.762162 
L 231.848456 126.00973 
L 231.848456 128.257297 
L 231.848456 130.504865 
L 231.848456 132.752432 
L 231.848456 135 
L 231.848456 137.247568 
L 231.848456 139.495135 
L 231.511409 139.83227 
L 229.601477 141.742703 
L 229.601477 143.99027 
L 229.601477 146.237838 
L 229.601477 148.485405 
L 229.601477 150.732973 
L 229.601477 152.980541 
L 229.601477 155.228108 
L 229.601477 157.475676 
L 229.601477 159.723243 
L 229.26443 160.060378 
L 227.354497 161.970811 
L 227.354497 164.218378 
L 227.354497 166.465946 
L 227.354497 168.713514 
L 227.354497 170.961081 
L 227.354497 173.208649 
L 227.354497 175.456216 
L 227.354497 177.703784 
L 227.354497 179.951351 
L 227.01745 180.288486 
L 225.107517 182.198919 
L 225.107517 184.446486 
L 225.107517 186.694054 
L 225.107517 188.941622 
L 225.107517 191.189189 
L 225.107517 193.436757 
L 225.107517 195.684324 
L 225.107517 197.931892 
L 225.107517 200.179459 
L 224.77047 200.516595 
L 222.860537 202.427027 
L 222.860537 204.674595 
L 222.860537 206.922162 
L 222.860537 209.16973 
L 222.860537 211.417297 
L 222.860537 213.664865 
L 222.860537 215.912432 
L 222.860537 218.16 
L 222.52349 218.497135 
L 220.613557 220.407568 
L 220.613557 222.655135 
L 220.613557 224.902703 
L 220.613557 227.15027 
L 220.613557 229.397838 
L 220.613557 231.645405 
L 220.613557 233.892973 
L 220.613557 236.140541 
L 220.613557 238.388108 
L 220.27651 238.725243 
L 218.366577 240.635676 
L 218.366577 242.883243 
L 218.366577 245.130811 
L 218.366577 247.378378 
L 218.366577 249.625946 
L 218.366577 251.873514 
L 218.366577 254.121081 
L 218.366577 256.368649 
L 218.366577 258.616216 
L 218.02953 258.953351 
L 216.119597 260.863784 
L 216.119597 263.111351 
L 216.119597 265.358919 
L 216.119597 267.606486 
L 216.119597 269.854054 
L 216.119597 272.101622 
L 216.119597 274.349189 
L 216.119597 276.596757 
L 216.119597 278.844324 
L 215.78255 279.181459 
L 213.872617 281.091892 
L 213.872617 283.339459 
L 213.872617 285.587027 
L 213.872617 287.834595 
L 213.872617 290.082162 
L 213.872617 292.32973 
L 213.872617 294.577297 
L 213.872617 296.824865 
L 213.53557 297.162 
L 211.625638 299.072432 
L 211.625638 301.32 
L 211.625638 303.567568 
L 211.625638 305.815135 
L 211.625638 308.062703 
L 211.625638 310.31027 
L 211.625638 312.557838 
L 211.625638 314.805405 
L 211.625638 317.052973 
L 211.288591 317.390108 
L 209.378658 319.300541 
L 209.378658 321.548108 
L 209.378658 323.795676 
L 209.378658 326.043243 
L 209.378658 328.290811 
L 209.378658 330.538378 
L 209.378658 332.785946 
L 209.378658 335.033514 
L 209.378658 337.281081 
L 209.041611 337.618216 
L 207.131678 339.528649 
L 207.131678 341.776216 
L 207.131678 344.023784 
L 207.131678 346.271351 
L 207.131678 348.518919 
L 207.131678 350.766486 
L 207.131678 353.014054 
L 207.131678 355.261622 
L 207.131678 357.509189 
L 206.794631 357.846324 
L 204.884698 359.756757 
L 204.884698 362.004324 
L 204.884698 364.251892 
L 204.884698 366.499459 
L 204.884698 368.747027 
L 204.884698 370.994595 
L 204.884698 373.242162 
L 204.884698 375.48973 
L 204.884698 377.737297 
L 204.547651 378.074432 
L 202.637718 379.984865 
L 202.637718 382.232432 
L 202.637718 384.48 
L 202.974765 384.48 
z
" clip-path="url(#pdc49d6dbae)" style="fill: #1f77b4; fill-opacity: 0.3"/>
    <path d="M 203.311812 382.232432 
L 203.311812 379.984865 
L 204.547651 378.748703 
L 205.558792 377.737297 
L 205.558792 375.48973 
L 205.558792 373.242162 
L 205.558792 370.994595 
L 205.558792 368.747027 
L 205.558792 366.499459 
L 205.558792 364.251892 
L 205.558792 362.004324 
L 205.558792 359.756757 
L 206.794631 358.520595 
L 207.805772 357.509189 
L 207.805772 355.261622 
L 207.805772 353.014054 
L 207.805772 350.766486 
L 207.805772 348.518919 
L 207.805772 346.271351 
L 207.805772 344.023784 
L 207.805772 341.776216 
L 207.805772 339.528649 
L 209.041611 338.292486 
L 210.052752 337.281081 
L 210.052752 335.033514 
L 210.052752 332.785946 
L 210.052752 330.538378 
L 210.052752 328.290811 
L 210.052752 326.043243 
L 210.052752 323.795676 
L 210.052752 321.548108 
L 210.052752 319.300541 
L 211.288591 318.064378 
L 212.299732 317.052973 
L 212.299732 314.805405 
L 212.299732 312.557838 
L 212.299732 310.31027 
L 212.299732 308.062703 
L 212.299732 305.815135 
L 212.299732 303.567568 
L 212.299732 301.32 
L 212.299732 299.072432 
L 213.53557 297.83627 
L 214.546711 296.824865 
L 214.546711 294.577297 
L 214.546711 292.32973 
L 214.546711 290.082162 
L 214.546711 287.834595 
L 214.546711 285.587027 
L 214.546711 283.339459 
L 214.546711 281.091892 
L 215.78255 279.85573 
L 216.793691 278.844324 
L 216.793691 276.596757 
L 216.793691 274.349189 
L 216.793691 272.101622 
L 216.793691 269.854054 
L 216.793691 267.606486 
L 216.793691 265.358919 
L 216.793691 263.111351 
L 216.793691 260.863784 
L 218.02953 259.627622 
L 219.040671 258.616216 
L 219.040671 256.368649 
L 219.040671 254.121081 
L 219.040671 251.873514 
L 219.040671 249.625946 
L 219.040671 247.378378 
L 219.040671 245.130811 
L 219.040671 242.883243 
L 219.040671 240.635676 
L 220.27651 239.399514 
L 221.287651 238.388108 
L 221.287651 236.140541 
L 221.287651 233.892973 
L 221.287651 231.645405 
L 221.287651 229.397838 
L 221.287651 227.15027 
L 221.287651 224.902703 
L 221.287651 222.655135 
L 221.287651 220.407568 
L 222.52349 219.171405 
L 223.534631 218.16 
L 223.534631 215.912432 
L 223.534631 213.664865 
L 223.534631 211.417297 
L 223.534631 209.16973 
L 223.534631 206.922162 
L 223.534631 204.674595 
L 223.534631 202.427027 
L 224.77047 201.190865 
L 225.781611 200.179459 
L 225.781611 197.931892 
L 225.781611 195.684324 
L 225.781611 193.436757 
L 225.781611 191.189189 
L 225.781611 188.941622 
L 225.781611 186.694054 
L 225.781611 184.446486 
L 225.781611 182.198919 
L 227.01745 180.962757 
L 228.028591 179.951351 
L 228.028591 177.703784 
L 228.028591 175.456216 
L 228.028591 173.208649 
L 228.028591 170.961081 
L 228.028591 168.713514 
L 228.028591 166.465946 
L 228.028591 164.218378 
L 228.028591 161.970811 
L 229.26443 160.734649 
L 230.27557 159.723243 
L 230.27557 157.475676 
L 230.27557 155.228108 
L 230.27557 152.980541 
L 230.27557 150.732973 
L 230.27557 148.485405 
L 230.27557 146.237838 
L 230.27557 143.99027 
L 230.27557 141.742703 
L 231.511409 140.506541 
L 232.52255 139.495135 
L 232.52255 137.247568 
L 232.52255 135 
L 232.52255 132.752432 
L 232.52255 130.504865 
L 232.52255 128.257297 
L 232.52255 126.00973 
L 232.52255 123.762162 
L 232.52255 121.514595 
L 233.758389 120.278432 
L 234.76953 119.267027 
L 234.76953 117.019459 
L 234.76953 114.771892 
L 234.76953 112.524324 
L 234.76953 110.276757 
L 234.76953 108.029189 
L 234.76953 105.781622 
L 234.76953 103.534054 
L 236.005369 102.297892 
L 237.01651 101.286486 
L 237.01651 99.038919 
L 237.01651 96.791351 
L 237.01651 94.543784 
L 237.01651 92.296216 
L 237.01651 90.048649 
L 237.01651 87.801081 
L 237.01651 85.553514 
L 237.01651 83.305946 
L 238.252349 82.069784 
L 239.26349 81.058378 
L 239.26349 78.810811 
L 239.26349 76.563243 
L 239.26349 74.315676 
L 239.26349 72.068108 
L 239.26349 69.820541 
L 239.26349 67.572973 
L 239.26349 65.325405 
L 239.26349 63.077838 
L 240.499329 61.841676 
L 241.51047 60.83027 
L 241.51047 58.582703 
L 241.51047 56.335135 
L 241.51047 54.087568 
L 241.51047 51.84 
L 241.173423 51.84 
L 241.173423 54.087568 
L 241.173423 56.335135 
L 241.173423 58.582703 
L 241.173423 60.83027 
L 240.499329 61.504541 
L 238.926443 63.077838 
L 238.926443 65.325405 
L 238.926443 67.572973 
L 238.926443 69.820541 
L 238.926443 72.068108 
L 238.926443 74.315676 
L 238.926443 76.563243 
L 238.926443 78.810811 
L 238.926443 81.058378 
L 238.252349 81.732649 
L 236.679463 83.305946 
L 236.679463 85.553514 
L 236.679463 87.801081 
L 236.679463 90.048649 
L 236.679463 92.296216 
L 236.679463 94.543784 
L 236.679463 96.791351 
L 236.679463 99.038919 
L 236.679463 101.286486 
L 236.005369 101.960757 
L 234.432483 103.534054 
L 234.432483 105.781622 
L 234.432483 108.029189 
L 234.432483 110.276757 
L 234.432483 112.524324 
L 234.432483 114.771892 
L 234.432483 117.019459 
L 234.432483 119.267027 
L 233.758389 119.941297 
L 232.185503 121.514595 
L 232.185503 123.762162 
L 232.185503 126.00973 
L 232.185503 128.257297 
L 232.185503 130.504865 
L 232.185503 132.752432 
L 232.185503 135 
L 232.185503 137.247568 
L 232.185503 139.495135 
L 231.511409 140.169405 
L 229.938523 141.742703 
L 229.938523 143.99027 
L 229.938523 146.237838 
L 229.938523 148.485405 
L 229.938523 150.732973 
L 229.938523 152.980541 
L 229.938523 155.228108 
L 229.938523 157.475676 
L 229.938523 159.723243 
L 229.26443 160.397514 
L 227.691544 161.970811 
L 227.691544 164.218378 
L 227.691544 166.465946 
L 227.691544 168.713514 
L 227.691544 170.961081 
L 227.691544 173.208649 
L 227.691544 175.456216 
L 227.691544 177.703784 
L 227.691544 179.951351 
L 227.01745 180.625622 
L 225.444564 182.198919 
L 225.444564 184.446486 
L 225.444564 186.694054 
L 225.444564 188.941622 
L 225.444564 191.189189 
L 225.444564 193.436757 
L 225.444564 195.684324 
L 225.444564 197.931892 
L 225.444564 200.179459 
L 224.77047 200.85373 
L 223.197584 202.427027 
L 223.197584 204.674595 
L 223.197584 206.922162 
L 223.197584 209.16973 
L 223.197584 211.417297 
L 223.197584 213.664865 
L 223.197584 215.912432 
L 223.197584 218.16 
L 222.52349 218.83427 
L 220.950604 220.407568 
L 220.950604 222.655135 
L 220.950604 224.902703 
L 220.950604 227.15027 
L 220.950604 229.397838 
L 220.950604 231.645405 
L 220.950604 233.892973 
L 220.950604 236.140541 
L 220.950604 238.388108 
L 220.27651 239.062378 
L 218.703624 240.635676 
L 218.703624 242.883243 
L 218.703624 245.130811 
L 218.703624 247.378378 
L 218.703624 249.625946 
L 218.703624 251.873514 
L 218.703624 254.121081 
L 218.703624 256.368649 
L 218.703624 258.616216 
L 218.02953 259.290486 
L 216.456644 260.863784 
L 216.456644 263.111351 
L 216.456644 265.358919 
L 216.456644 267.606486 
L 216.456644 269.854054 
L 216.456644 272.101622 
L 216.456644 274.349189 
L 216.456644 276.596757 
L 216.456644 278.844324 
L 215.78255 279.518595 
L 214.209664 281.091892 
L 214.209664 283.339459 
L 214.209664 285.587027 
L 214.209664 287.834595 
L 214.209664 290.082162 
L 214.209664 292.32973 
L 214.209664 294.577297 
L 214.209664 296.824865 
L 213.53557 297.499135 
L 211.962685 299.072432 
L 211.962685 301.32 
L 211.962685 303.567568 
L 211.962685 305.815135 
L 211.962685 308.062703 
L 211.962685 310.31027 
L 211.962685 312.557838 
L 211.962685 314.805405 
L 211.962685 317.052973 
L 211.288591 317.727243 
L 209.715705 319.300541 
L 209.715705 321.548108 
L 209.715705 323.795676 
L 209.715705 326.043243 
L 209.715705 328.290811 
L 209.715705 330.538378 
L 209.715705 332.785946 
L 209.715705 335.033514 
L 209.715705 337.281081 
L 209.041611 337.955351 
L 207.468725 339.528649 
L 207.468725 341.776216 
L 207.468725 344.023784 
L 207.468725 346.271351 
L 207.468725 348.518919 
L 207.468725 350.766486 
L 207.468725 353.014054 
L 207.468725 355.261622 
L 207.468725 357.509189 
L 206.794631 358.183459 
L 205.221745 359.756757 
L 205.221745 362.004324 
L 205.221745 364.251892 
L 205.221745 366.499459 
L 205.221745 368.747027 
L 205.221745 370.994595 
L 205.221745 373.242162 
L 205.221745 375.48973 
L 205.221745 377.737297 
L 204.547651 378.411568 
L 202.974765 379.984865 
L 202.974765 382.232432 
L 202.974765 384.48 
L 203.311812 384.48 
z
" clip-path="url(#pdc49d6dbae)" style="fill: #1f77b4; fill-opacity: 0.3"/>
    <path d="M 203.648859 382.232432 
L 203.648859 379.984865 
L 204.547651 379.085838 
L 205.895839 377.737297 
L 205.895839 375.48973 
L 205.895839 373.242162 
L 205.895839 370.994595 
L 205.895839 368.747027 
L 205.895839 366.499459 
L 205.895839 364.251892 
L 205.895839 362.004324 
L 205.895839 359.756757 
L 206.794631 358.85773 
L 208.142819 357.509189 
L 208.142819 355.261622 
L 208.142819 353.014054 
L 208.142819 350.766486 
L 208.142819 348.518919 
L 208.142819 346.271351 
L 208.142819 344.023784 
L 208.142819 341.776216 
L 208.142819 339.528649 
L 209.041611 338.629622 
L 210.389799 337.281081 
L 210.389799 335.033514 
L 210.389799 332.785946 
L 210.389799 330.538378 
L 210.389799 328.290811 
L 210.389799 326.043243 
L 210.389799 323.795676 
L 210.389799 321.548108 
L 210.389799 319.300541 
L 211.288591 318.401514 
L 212.636779 317.052973 
L 212.636779 314.805405 
L 212.636779 312.557838 
L 212.636779 310.31027 
L 212.636779 308.062703 
L 212.636779 305.815135 
L 212.636779 303.567568 
L 212.636779 301.32 
L 212.636779 299.072432 
L 213.53557 298.173405 
L 214.883758 296.824865 
L 214.883758 294.577297 
L 214.883758 292.32973 
L 214.883758 290.082162 
L 214.883758 287.834595 
L 214.883758 285.587027 
L 214.883758 283.339459 
L 214.883758 281.091892 
L 215.78255 280.192865 
L 217.130738 278.844324 
L 217.130738 276.596757 
L 217.130738 274.349189 
L 217.130738 272.101622 
L 217.130738 269.854054 
L 217.130738 267.606486 
L 217.130738 265.358919 
L 217.130738 263.111351 
L 217.130738 260.863784 
L 218.02953 259.964757 
L 219.377718 258.616216 
L 219.377718 256.368649 
L 219.377718 254.121081 
L 219.377718 251.873514 
L 219.377718 249.625946 
L 219.377718 247.378378 
L 219.377718 245.130811 
L 219.377718 242.883243 
L 219.377718 240.635676 
L 220.27651 239.736649 
L 221.624698 238.388108 
L 221.624698 236.140541 
L 221.624698 233.892973 
L 221.624698 231.645405 
L 221.624698 229.397838 
L 221.624698 227.15027 
L 221.624698 224.902703 
L 221.624698 222.655135 
L 221.624698 220.407568 
L 222.52349 219.508541 
L 223.871678 218.16 
L 223.871678 215.912432 
L 223.871678 213.664865 
L 223.871678 211.417297 
L 223.871678 209.16973 
L 223.871678 206.922162 
L 223.871678 204.674595 
L 223.871678 202.427027 
L 224.77047 201.528 
L 226.118658 200.179459 
L 226.118658 197.931892 
L 226.118658 195.684324 
L 226.118658 193.436757 
L 226.118658 191.189189 
L 226.118658 188.941622 
L 226.118658 186.694054 
L 226.118658 184.446486 
L 226.118658 182.198919 
L 227.01745 181.299892 
L 228.365638 179.951351 
L 228.365638 177.703784 
L 228.365638 175.456216 
L 228.365638 173.208649 
L 228.365638 170.961081 
L 228.365638 168.713514 
L 228.365638 166.465946 
L 228.365638 164.218378 
L 228.365638 161.970811 
L 229.26443 161.071784 
L 230.612617 159.723243 
L 230.612617 157.475676 
L 230.612617 155.228108 
L 230.612617 152.980541 
L 230.612617 150.732973 
L 230.612617 148.485405 
L 230.612617 146.237838 
L 230.612617 143.99027 
L 230.612617 141.742703 
L 231.511409 140.843676 
L 232.859597 139.495135 
L 232.859597 137.247568 
L 232.859597 135 
L 232.859597 132.752432 
L 232.859597 130.504865 
L 232.859597 128.257297 
L 232.859597 126.00973 
L 232.859597 123.762162 
L 232.859597 121.514595 
L 233.758389 120.615568 
L 235.106577 119.267027 
L 235.106577 117.019459 
L 235.106577 114.771892 
L 235.106577 112.524324 
L 235.106577 110.276757 
L 235.106577 108.029189 
L 235.106577 105.781622 
L 235.106577 103.534054 
L 236.005369 102.635027 
L 237.353557 101.286486 
L 237.353557 99.038919 
L 237.353557 96.791351 
L 237.353557 94.543784 
L 237.353557 92.296216 
L 237.353557 90.048649 
L 237.353557 87.801081 
L 237.353557 85.553514 
L 237.353557 83.305946 
L 238.252349 82.406919 
L 239.600537 81.058378 
L 239.600537 78.810811 
L 239.600537 76.563243 
L 239.600537 74.315676 
L 239.600537 72.068108 
L 239.600537 69.820541 
L 239.600537 67.572973 
L 239.600537 65.325405 
L 239.600537 63.077838 
L 240.499329 62.178811 
L 241.847517 60.83027 
L 241.847517 58.582703 
L 241.847517 56.335135 
L 241.847517 54.087568 
L 241.847517 51.84 
L 241.51047 51.84 
L 241.51047 54.087568 
L 241.51047 56.335135 
L 241.51047 58.582703 
L 241.51047 60.83027 
L 240.499329 61.841676 
L 239.26349 63.077838 
L 239.26349 65.325405 
L 239.26349 67.572973 
L 239.26349 69.820541 
L 239.26349 72.068108 
L 239.26349 74.315676 
L 239.26349 76.563243 
L 239.26349 78.810811 
L 239.26349 81.058378 
L 238.252349 82.069784 
L 237.01651 83.305946 
L 237.01651 85.553514 
L 237.01651 87.801081 
L 237.01651 90.048649 
L 237.01651 92.296216 
L 237.01651 94.543784 
L 237.01651 96.791351 
L 237.01651 99.038919 
L 237.01651 101.286486 
L 236.005369 102.297892 
L 234.76953 103.534054 
L 234.76953 105.781622 
L 234.76953 108.029189 
L 234.76953 110.276757 
L 234.76953 112.524324 
L 234.76953 114.771892 
L 234.76953 117.019459 
L 234.76953 119.267027 
L 233.758389 120.278432 
L 232.52255 121.514595 
L 232.52255 123.762162 
L 232.52255 126.00973 
L 232.52255 128.257297 
L 232.52255 130.504865 
L 232.52255 132.752432 
L 232.52255 135 
L 232.52255 137.247568 
L 232.52255 139.495135 
L 231.511409 140.506541 
L 230.27557 141.742703 
L 230.27557 143.99027 
L 230.27557 146.237838 
L 230.27557 148.485405 
L 230.27557 150.732973 
L 230.27557 152.980541 
L 230.27557 155.228108 
L 230.27557 157.475676 
L 230.27557 159.723243 
L 229.26443 160.734649 
L 228.028591 161.970811 
L 228.028591 164.218378 
L 228.028591 166.465946 
L 228.028591 168.713514 
L 228.028591 170.961081 
L 228.028591 173.208649 
L 228.028591 175.456216 
L 228.028591 177.703784 
L 228.028591 179.951351 
L 227.01745 180.962757 
L 225.781611 182.198919 
L 225.781611 184.446486 
L 225.781611 186.694054 
L 225.781611 188.941622 
L 225.781611 191.189189 
L 225.781611 193.436757 
L 225.781611 195.684324 
L 225.781611 197.931892 
L 225.781611 200.179459 
L 224.77047 201.190865 
L 223.534631 202.427027 
L 223.534631 204.674595 
L 223.534631 206.922162 
L 223.534631 209.16973 
L 223.534631 211.417297 
L 223.534631 213.664865 
L 223.534631 215.912432 
L 223.534631 218.16 
L 222.52349 219.171405 
L 221.287651 220.407568 
L 221.287651 222.655135 
L 221.287651 224.902703 
L 221.287651 227.15027 
L 221.287651 229.397838 
L 221.287651 231.645405 
L 221.287651 233.892973 
L 221.287651 236.140541 
L 221.287651 238.388108 
L 220.27651 239.399514 
L 219.040671 240.635676 
L 219.040671 242.883243 
L 219.040671 245.130811 
L 219.040671 247.378378 
L 219.040671 249.625946 
L 219.040671 251.873514 
L 219.040671 254.121081 
L 219.040671 256.368649 
L 219.040671 258.616216 
L 218.02953 259.627622 
L 216.793691 260.863784 
L 216.793691 263.111351 
L 216.793691 265.358919 
L 216.793691 267.606486 
L 216.793691 269.854054 
L 216.793691 272.101622 
L 216.793691 274.349189 
L 216.793691 276.596757 
L 216.793691 278.844324 
L 215.78255 279.85573 
L 214.546711 281.091892 
L 214.546711 283.339459 
L 214.546711 285.587027 
L 214.546711 287.834595 
L 214.546711 290.082162 
L 214.546711 292.32973 
L 214.546711 294.577297 
L 214.546711 296.824865 
L 213.53557 297.83627 
L 212.299732 299.072432 
L 212.299732 301.32 
L 212.299732 303.567568 
L 212.299732 305.815135 
L 212.299732 308.062703 
L 212.299732 310.31027 
L 212.299732 312.557838 
L 212.299732 314.805405 
L 212.299732 317.052973 
L 211.288591 318.064378 
L 210.052752 319.300541 
L 210.052752 321.548108 
L 210.052752 323.795676 
L 210.052752 326.043243 
L 210.052752 328.290811 
L 210.052752 330.538378 
L 210.052752 332.785946 
L 210.052752 335.033514 
L 210.052752 337.281081 
L 209.041611 338.292486 
L 207.805772 339.528649 
L 207.805772 341.776216 
L 207.805772 344.023784 
L 207.805772 346.271351 
L 207.805772 348.518919 
L 207.805772 350.766486 
L 207.805772 353.014054 
L 207.805772 355.261622 
L 207.805772 357.509189 
L 206.794631 358.520595 
L 205.558792 359.756757 
L 205.558792 362.004324 
L 205.558792 364.251892 
L 205.558792 366.499459 
L 205.558792 368.747027 
L 205.558792 370.994595 
L 205.558792 373.242162 
L 205.558792 375.48973 
L 205.558792 377.737297 
L 204.547651 378.748703 
L 203.311812 379.984865 
L 203.311812 382.232432 
L 203.311812 384.48 
L 203.648859 384.48 
z
" clip-path="url(#pdc49d6dbae)" style="fill: #ff7f0e; fill-opacity: 0.3"/>
    <path d="M 203.985906 382.232432 
L 203.985906 379.984865 
L 204.547651 379.422973 
L 206.232886 377.737297 
L 206.232886 375.48973 
L 206.232886 373.242162 
L 206.232886 370.994595 
L 206.232886 368.747027 
L 206.232886 366.499459 
L 206.232886 364.251892 
L 206.232886 362.004324 
L 206.232886 359.756757 
L 206.794631 359.194865 
L 208.479866 357.509189 
L 208.479866 355.261622 
L 208.479866 353.014054 
L 208.479866 350.766486 
L 208.479866 348.518919 
L 208.479866 346.271351 
L 208.479866 344.023784 
L 208.479866 341.776216 
L 208.479866 339.528649 
L 209.041611 338.966757 
L 210.726846 337.281081 
L 210.726846 335.033514 
L 210.726846 332.785946 
L 210.726846 330.538378 
L 210.726846 328.290811 
L 210.726846 326.043243 
L 210.726846 323.795676 
L 210.726846 321.548108 
L 210.726846 319.300541 
L 211.288591 318.738649 
L 212.973826 317.052973 
L 212.973826 314.805405 
L 212.973826 312.557838 
L 212.973826 310.31027 
L 212.973826 308.062703 
L 212.973826 305.815135 
L 212.973826 303.567568 
L 212.973826 301.32 
L 212.973826 299.072432 
L 213.53557 298.510541 
L 215.220805 296.824865 
L 215.220805 294.577297 
L 215.220805 292.32973 
L 215.220805 290.082162 
L 215.220805 287.834595 
L 215.220805 285.587027 
L 215.220805 283.339459 
L 215.220805 281.091892 
L 215.78255 280.53 
L 217.467785 278.844324 
L 217.467785 276.596757 
L 217.467785 274.349189 
L 217.467785 272.101622 
L 217.467785 269.854054 
L 217.467785 267.606486 
L 217.467785 265.358919 
L 217.467785 263.111351 
L 217.467785 260.863784 
L 218.02953 260.301892 
L 219.714765 258.616216 
L 219.714765 256.368649 
L 219.714765 254.121081 
L 219.714765 251.873514 
L 219.714765 249.625946 
L 219.714765 247.378378 
L 219.714765 245.130811 
L 219.714765 242.883243 
L 219.714765 240.635676 
L 220.27651 240.073784 
L 221.961745 238.388108 
L 221.961745 236.140541 
L 221.961745 233.892973 
L 221.961745 231.645405 
L 221.961745 229.397838 
L 221.961745 227.15027 
L 221.961745 224.902703 
L 221.961745 222.655135 
L 221.961745 220.407568 
L 222.52349 219.845676 
L 224.208725 218.16 
L 224.208725 215.912432 
L 224.208725 213.664865 
L 224.208725 211.417297 
L 224.208725 209.16973 
L 224.208725 206.922162 
L 224.208725 204.674595 
L 224.208725 202.427027 
L 224.77047 201.865135 
L 226.455705 200.179459 
L 226.455705 197.931892 
L 226.455705 195.684324 
L 226.455705 193.436757 
L 226.455705 191.189189 
L 226.455705 188.941622 
L 226.455705 186.694054 
L 226.455705 184.446486 
L 226.455705 182.198919 
L 227.01745 181.637027 
L 228.702685 179.951351 
L 228.702685 177.703784 
L 228.702685 175.456216 
L 228.702685 173.208649 
L 228.702685 170.961081 
L 228.702685 168.713514 
L 228.702685 166.465946 
L 228.702685 164.218378 
L 228.702685 161.970811 
L 229.26443 161.408919 
L 230.949664 159.723243 
L 230.949664 157.475676 
L 230.949664 155.228108 
L 230.949664 152.980541 
L 230.949664 150.732973 
L 230.949664 148.485405 
L 230.949664 146.237838 
L 230.949664 143.99027 
L 230.949664 141.742703 
L 231.511409 141.180811 
L 233.196644 139.495135 
L 233.196644 137.247568 
L 233.196644 135 
L 233.196644 132.752432 
L 233.196644 130.504865 
L 233.196644 128.257297 
L 233.196644 126.00973 
L 233.196644 123.762162 
L 233.196644 121.514595 
L 233.758389 120.952703 
L 235.443624 119.267027 
L 235.443624 117.019459 
L 235.443624 114.771892 
L 235.443624 112.524324 
L 235.443624 110.276757 
L 235.443624 108.029189 
L 235.443624 105.781622 
L 235.443624 103.534054 
L 236.005369 102.972162 
L 237.690604 101.286486 
L 237.690604 99.038919 
L 237.690604 96.791351 
L 237.690604 94.543784 
L 237.690604 92.296216 
L 237.690604 90.048649 
L 237.690604 87.801081 
L 237.690604 85.553514 
L 237.690604 83.305946 
L 238.252349 82.744054 
L 239.937584 81.058378 
L 239.937584 78.810811 
L 239.937584 76.563243 
L 239.937584 74.315676 
L 239.937584 72.068108 
L 239.937584 69.820541 
L 239.937584 67.572973 
L 239.937584 65.325405 
L 239.937584 63.077838 
L 240.499329 62.515946 
L 242.184564 60.83027 
L 242.184564 58.582703 
L 242.184564 56.335135 
L 242.184564 54.087568 
L 242.184564 51.84 
L 241.847517 51.84 
L 241.847517 54.087568 
L 241.847517 56.335135 
L 241.847517 58.582703 
L 241.847517 60.83027 
L 240.499329 62.178811 
L 239.600537 63.077838 
L 239.600537 65.325405 
L 239.600537 67.572973 
L 239.600537 69.820541 
L 239.600537 72.068108 
L 239.600537 74.315676 
L 239.600537 76.563243 
L 239.600537 78.810811 
L 239.600537 81.058378 
L 238.252349 82.406919 
L 237.353557 83.305946 
L 237.353557 85.553514 
L 237.353557 87.801081 
L 237.353557 90.048649 
L 237.353557 92.296216 
L 237.353557 94.543784 
L 237.353557 96.791351 
L 237.353557 99.038919 
L 237.353557 101.286486 
L 236.005369 102.635027 
L 235.106577 103.534054 
L 235.106577 105.781622 
L 235.106577 108.029189 
L 235.106577 110.276757 
L 235.106577 112.524324 
L 235.106577 114.771892 
L 235.106577 117.019459 
L 235.106577 119.267027 
L 233.758389 120.615568 
L 232.859597 121.514595 
L 232.859597 123.762162 
L 232.859597 126.00973 
L 232.859597 128.257297 
L 232.859597 130.504865 
L 232.859597 132.752432 
L 232.859597 135 
L 232.859597 137.247568 
L 232.859597 139.495135 
L 231.511409 140.843676 
L 230.612617 141.742703 
L 230.612617 143.99027 
L 230.612617 146.237838 
L 230.612617 148.485405 
L 230.612617 150.732973 
L 230.612617 152.980541 
L 230.612617 155.228108 
L 230.612617 157.475676 
L 230.612617 159.723243 
L 229.26443 161.071784 
L 228.365638 161.970811 
L 228.365638 164.218378 
L 228.365638 166.465946 
L 228.365638 168.713514 
L 228.365638 170.961081 
L 228.365638 173.208649 
L 228.365638 175.456216 
L 228.365638 177.703784 
L 228.365638 179.951351 
L 227.01745 181.299892 
L 226.118658 182.198919 
L 226.118658 184.446486 
L 226.118658 186.694054 
L 226.118658 188.941622 
L 226.118658 191.189189 
L 226.118658 193.436757 
L 226.118658 195.684324 
L 226.118658 197.931892 
L 226.118658 200.179459 
L 224.77047 201.528 
L 223.871678 202.427027 
L 223.871678 204.674595 
L 223.871678 206.922162 
L 223.871678 209.16973 
L 223.871678 211.417297 
L 223.871678 213.664865 
L 223.871678 215.912432 
L 223.871678 218.16 
L 222.52349 219.508541 
L 221.624698 220.407568 
L 221.624698 222.655135 
L 221.624698 224.902703 
L 221.624698 227.15027 
L 221.624698 229.397838 
L 221.624698 231.645405 
L 221.624698 233.892973 
L 221.624698 236.140541 
L 221.624698 238.388108 
L 220.27651 239.736649 
L 219.377718 240.635676 
L 219.377718 242.883243 
L 219.377718 245.130811 
L 219.377718 247.378378 
L 219.377718 249.625946 
L 219.377718 251.873514 
L 219.377718 254.121081 
L 219.377718 256.368649 
L 219.377718 258.616216 
L 218.02953 259.964757 
L 217.130738 260.863784 
L 217.130738 263.111351 
L 217.130738 265.358919 
L 217.130738 267.606486 
L 217.130738 269.854054 
L 217.130738 272.101622 
L 217.130738 274.349189 
L 217.130738 276.596757 
L 217.130738 278.844324 
L 215.78255 280.192865 
L 214.883758 281.091892 
L 214.883758 283.339459 
L 214.883758 285.587027 
L 214.883758 287.834595 
L 214.883758 290.082162 
L 214.883758 292.32973 
L 214.883758 294.577297 
L 214.883758 296.824865 
L 213.53557 298.173405 
L 212.636779 299.072432 
L 212.636779 301.32 
L 212.636779 303.567568 
L 212.636779 305.815135 
L 212.636779 308.062703 
L 212.636779 310.31027 
L 212.636779 312.557838 
L 212.636779 314.805405 
L 212.636779 317.052973 
L 211.288591 318.401514 
L 210.389799 319.300541 
L 210.389799 321.548108 
L 210.389799 323.795676 
L 210.389799 326.043243 
L 210.389799 328.290811 
L 210.389799 330.538378 
L 210.389799 332.785946 
L 210.389799 335.033514 
L 210.389799 337.281081 
L 209.041611 338.629622 
L 208.142819 339.528649 
L 208.142819 341.776216 
L 208.142819 344.023784 
L 208.142819 346.271351 
L 208.142819 348.518919 
L 208.142819 350.766486 
L 208.142819 353.014054 
L 208.142819 355.261622 
L 208.142819 357.509189 
L 206.794631 358.85773 
L 205.895839 359.756757 
L 205.895839 362.004324 
L 205.895839 364.251892 
L 205.895839 366.499459 
L 205.895839 368.747027 
L 205.895839 370.994595 
L 205.895839 373.242162 
L 205.895839 375.48973 
L 205.895839 377.737297 
L 204.547651 379.085838 
L 203.648859 379.984865 
L 203.648859 382.232432 
L 203.648859 384.48 
L 203.985906 384.48 
z
" clip-path="url(#pdc49d6dbae)" style="fill: #ff7f0e; fill-opacity: 0.3"/>
    <path d="M 204.322953 382.232432 
L 204.322953 379.984865 
L 204.547651 379.760108 
L 206.569933 377.737297 
L 206.569933 375.48973 
L 206.569933 373.242162 
L 206.569933 370.994595 
L 206.569933 368.747027 
L 206.569933 366.499459 
L 206.569933 364.251892 
L 206.569933 362.004324 
L 206.569933 359.756757 
L 206.794631 359.532 
L 208.816913 357.509189 
L 208.816913 355.261622 
L 208.816913 353.014054 
L 208.816913 350.766486 
L 208.816913 348.518919 
L 208.816913 346.271351 
L 208.816913 344.023784 
L 208.816913 341.776216 
L 208.816913 339.528649 
L 209.041611 339.303892 
L 211.063893 337.281081 
L 211.063893 335.033514 
L 211.063893 332.785946 
L 211.063893 330.538378 
L 211.063893 328.290811 
L 211.063893 326.043243 
L 211.063893 323.795676 
L 211.063893 321.548108 
L 211.063893 319.300541 
L 211.288591 319.075784 
L 213.310872 317.052973 
L 213.310872 314.805405 
L 213.310872 312.557838 
L 213.310872 310.31027 
L 213.310872 308.062703 
L 213.310872 305.815135 
L 213.310872 303.567568 
L 213.310872 301.32 
L 213.310872 299.072432 
L 213.53557 298.847676 
L 215.557852 296.824865 
L 215.557852 294.577297 
L 215.557852 292.32973 
L 215.557852 290.082162 
L 215.557852 287.834595 
L 215.557852 285.587027 
L 215.557852 283.339459 
L 215.557852 281.091892 
L 215.78255 280.867135 
L 217.804832 278.844324 
L 217.804832 276.596757 
L 217.804832 274.349189 
L 217.804832 272.101622 
L 217.804832 269.854054 
L 217.804832 267.606486 
L 217.804832 265.358919 
L 217.804832 263.111351 
L 217.804832 260.863784 
L 218.02953 260.639027 
L 220.051812 258.616216 
L 220.051812 256.368649 
L 220.051812 254.121081 
L 220.051812 251.873514 
L 220.051812 249.625946 
L 220.051812 247.378378 
L 220.051812 245.130811 
L 220.051812 242.883243 
L 220.051812 240.635676 
L 220.27651 240.410919 
L 222.298792 238.388108 
L 222.298792 236.140541 
L 222.298792 233.892973 
L 222.298792 231.645405 
L 222.298792 229.397838 
L 222.298792 227.15027 
L 222.298792 224.902703 
L 222.298792 222.655135 
L 222.298792 220.407568 
L 222.52349 220.182811 
L 224.545772 218.16 
L 224.545772 215.912432 
L 224.545772 213.664865 
L 224.545772 211.417297 
L 224.545772 209.16973 
L 224.545772 206.922162 
L 224.545772 204.674595 
L 224.545772 202.427027 
L 224.77047 202.20227 
L 226.792752 200.179459 
L 226.792752 197.931892 
L 226.792752 195.684324 
L 226.792752 193.436757 
L 226.792752 191.189189 
L 226.792752 188.941622 
L 226.792752 186.694054 
L 226.792752 184.446486 
L 226.792752 182.198919 
L 227.01745 181.974162 
L 229.039732 179.951351 
L 229.039732 177.703784 
L 229.039732 175.456216 
L 229.039732 173.208649 
L 229.039732 170.961081 
L 229.039732 168.713514 
L 229.039732 166.465946 
L 229.039732 164.218378 
L 229.039732 161.970811 
L 229.26443 161.746054 
L 231.286711 159.723243 
L 231.286711 157.475676 
L 231.286711 155.228108 
L 231.286711 152.980541 
L 231.286711 150.732973 
L 231.286711 148.485405 
L 231.286711 146.237838 
L 231.286711 143.99027 
L 231.286711 141.742703 
L 231.511409 141.517946 
L 233.533691 139.495135 
L 233.533691 137.247568 
L 233.533691 135 
L 233.533691 132.752432 
L 233.533691 130.504865 
L 233.533691 128.257297 
L 233.533691 126.00973 
L 233.533691 123.762162 
L 233.533691 121.514595 
L 233.758389 121.289838 
L 235.780671 119.267027 
L 235.780671 117.019459 
L 235.780671 114.771892 
L 235.780671 112.524324 
L 235.780671 110.276757 
L 235.780671 108.029189 
L 235.780671 105.781622 
L 235.780671 103.534054 
L 236.005369 103.309297 
L 238.027651 101.286486 
L 238.027651 99.038919 
L 238.027651 96.791351 
L 238.027651 94.543784 
L 238.027651 92.296216 
L 238.027651 90.048649 
L 238.027651 87.801081 
L 238.027651 85.553514 
L 238.027651 83.305946 
L 238.252349 83.081189 
L 240.274631 81.058378 
L 240.274631 78.810811 
L 240.274631 76.563243 
L 240.274631 74.315676 
L 240.274631 72.068108 
L 240.274631 69.820541 
L 240.274631 67.572973 
L 240.274631 65.325405 
L 240.274631 63.077838 
L 240.499329 62.853081 
L 242.521611 60.83027 
L 242.521611 58.582703 
L 242.521611 56.335135 
L 242.521611 54.087568 
L 242.521611 51.84 
L 242.184564 51.84 
L 242.184564 54.087568 
L 242.184564 56.335135 
L 242.184564 58.582703 
L 242.184564 60.83027 
L 240.499329 62.515946 
L 239.937584 63.077838 
L 239.937584 65.325405 
L 239.937584 67.572973 
L 239.937584 69.820541 
L 239.937584 72.068108 
L 239.937584 74.315676 
L 239.937584 76.563243 
L 239.937584 78.810811 
L 239.937584 81.058378 
L 238.252349 82.744054 
L 237.690604 83.305946 
L 237.690604 85.553514 
L 237.690604 87.801081 
L 237.690604 90.048649 
L 237.690604 92.296216 
L 237.690604 94.543784 
L 237.690604 96.791351 
L 237.690604 99.038919 
L 237.690604 101.286486 
L 236.005369 102.972162 
L 235.443624 103.534054 
L 235.443624 105.781622 
L 235.443624 108.029189 
L 235.443624 110.276757 
L 235.443624 112.524324 
L 235.443624 114.771892 
L 235.443624 117.019459 
L 235.443624 119.267027 
L 233.758389 120.952703 
L 233.196644 121.514595 
L 233.196644 123.762162 
L 233.196644 126.00973 
L 233.196644 128.257297 
L 233.196644 130.504865 
L 233.196644 132.752432 
L 233.196644 135 
L 233.196644 137.247568 
L 233.196644 139.495135 
L 231.511409 141.180811 
L 230.949664 141.742703 
L 230.949664 143.99027 
L 230.949664 146.237838 
L 230.949664 148.485405 
L 230.949664 150.732973 
L 230.949664 152.980541 
L 230.949664 155.228108 
L 230.949664 157.475676 
L 230.949664 159.723243 
L 229.26443 161.408919 
L 228.702685 161.970811 
L 228.702685 164.218378 
L 228.702685 166.465946 
L 228.702685 168.713514 
L 228.702685 170.961081 
L 228.702685 173.208649 
L 228.702685 175.456216 
L 228.702685 177.703784 
L 228.702685 179.951351 
L 227.01745 181.637027 
L 226.455705 182.198919 
L 226.455705 184.446486 
L 226.455705 186.694054 
L 226.455705 188.941622 
L 226.455705 191.189189 
L 226.455705 193.436757 
L 226.455705 195.684324 
L 226.455705 197.931892 
L 226.455705 200.179459 
L 224.77047 201.865135 
L 224.208725 202.427027 
L 224.208725 204.674595 
L 224.208725 206.922162 
L 224.208725 209.16973 
L 224.208725 211.417297 
L 224.208725 213.664865 
L 224.208725 215.912432 
L 224.208725 218.16 
L 222.52349 219.845676 
L 221.961745 220.407568 
L 221.961745 222.655135 
L 221.961745 224.902703 
L 221.961745 227.15027 
L 221.961745 229.397838 
L 221.961745 231.645405 
L 221.961745 233.892973 
L 221.961745 236.140541 
L 221.961745 238.388108 
L 220.27651 240.073784 
L 219.714765 240.635676 
L 219.714765 242.883243 
L 219.714765 245.130811 
L 219.714765 247.378378 
L 219.714765 249.625946 
L 219.714765 251.873514 
L 219.714765 254.121081 
L 219.714765 256.368649 
L 219.714765 258.616216 
L 218.02953 260.301892 
L 217.467785 260.863784 
L 217.467785 263.111351 
L 217.467785 265.358919 
L 217.467785 267.606486 
L 217.467785 269.854054 
L 217.467785 272.101622 
L 217.467785 274.349189 
L 217.467785 276.596757 
L 217.467785 278.844324 
L 215.78255 280.53 
L 215.220805 281.091892 
L 215.220805 283.339459 
L 215.220805 285.587027 
L 215.220805 287.834595 
L 215.220805 290.082162 
L 215.220805 292.32973 
L 215.220805 294.577297 
L 215.220805 296.824865 
L 213.53557 298.510541 
L 212.973826 299.072432 
L 212.973826 301.32 
L 212.973826 303.567568 
L 212.973826 305.815135 
L 212.973826 308.062703 
L 212.973826 310.31027 
L 212.973826 312.557838 
L 212.973826 314.805405 
L 212.973826 317.052973 
L 211.288591 318.738649 
L 210.726846 319.300541 
L 210.726846 321.548108 
L 210.726846 323.795676 
L 210.726846 326.043243 
L 210.726846 328.290811 
L 210.726846 330.538378 
L 210.726846 332.785946 
L 210.726846 335.033514 
L 210.726846 337.281081 
L 209.041611 338.966757 
L 208.479866 339.528649 
L 208.479866 341.776216 
L 208.479866 344.023784 
L 208.479866 346.271351 
L 208.479866 348.518919 
L 208.479866 350.766486 
L 208.479866 353.014054 
L 208.479866 355.261622 
L 208.479866 357.509189 
L 206.794631 359.194865 
L 206.232886 359.756757 
L 206.232886 362.004324 
L 206.232886 364.251892 
L 206.232886 366.499459 
L 206.232886 368.747027 
L 206.232886 370.994595 
L 206.232886 373.242162 
L 206.232886 375.48973 
L 206.232886 377.737297 
L 204.547651 379.422973 
L 203.985906 379.984865 
L 203.985906 382.232432 
L 203.985906 384.48 
L 204.322953 384.48 
z
" clip-path="url(#pdc49d6dbae)" style="fill: #ff7f0e; fill-opacity: 0.3"/>
    <path d="M 204.547651 384.48 
L 206.794631 384.48 
L 209.041611 384.48 
L 211.288591 384.48 
L 213.53557 384.48 
L 215.78255 384.48 
L 218.02953 384.48 
L 220.27651 384.48 
L 222.52349 384.48 
L 224.77047 384.48 
L 227.01745 384.48 
L 229.26443 384.48 
L 231.511409 384.48 
L 233.758389 384.48 
L 236.005369 384.48 
L 238.252349 384.48 
L 240.499329 384.48 
L 242.746309 384.48 
L 244.993289 384.48 
L 247.240268 384.48 
L 249.487248 384.48 
L 251.734228 384.48 
L 253.981208 384.48 
L 256.228188 384.48 
L 258.475168 384.48 
L 260.722148 384.48 
L 262.969128 384.48 
L 265.216107 384.48 
L 267.463087 384.48 
L 269.710067 384.48 
L 271.957047 384.48 
L 274.204027 384.48 
L 276.451007 384.48 
L 278.697987 384.48 
L 280.944966 384.48 
L 283.191946 384.48 
L 285.438926 384.48 
L 287.685906 384.48 
L 289.932886 384.48 
L 292.179866 384.48 
L 294.426846 384.48 
L 296.673826 384.48 
L 298.920805 384.48 
L 301.167785 384.48 
L 303.414765 384.48 
L 305.661745 384.48 
L 307.908725 384.48 
L 310.155705 384.48 
L 312.402685 384.48 
L 314.649664 384.48 
L 316.896644 384.48 
L 319.143624 384.48 
L 321.390604 384.48 
L 323.637584 384.48 
L 325.884564 384.48 
L 328.131544 384.48 
L 330.378523 384.48 
L 332.625503 384.48 
L 334.872483 384.48 
L 337.119463 384.48 
L 339.366443 384.48 
L 341.613423 384.48 
L 343.860403 384.48 
L 346.107383 384.48 
L 348.354362 384.48 
L 350.601342 384.48 
L 352.848322 384.48 
L 355.095302 384.48 
L 357.342282 384.48 
L 359.589262 384.48 
L 361.836242 384.48 
L 364.083221 384.48 
L 366.330201 384.48 
L 368.577181 384.48 
L 370.824161 384.48 
L 373.071141 384.48 
L 375.318121 384.48 
L 377.565101 384.48 
L 379.812081 384.48 
L 382.05906 384.48 
L 384.30604 384.48 
L 386.55302 384.48 
L 388.8 384.48 
L 388.8 382.232432 
L 388.8 379.984865 
L 388.8 377.737297 
L 388.8 375.48973 
L 388.8 373.242162 
L 388.8 370.994595 
L 388.8 368.747027 
L 388.8 366.499459 
L 388.8 364.251892 
L 388.8 362.004324 
L 388.8 359.756757 
L 388.8 357.509189 
L 388.8 355.261622 
L 388.8 353.014054 
L 388.8 350.766486 
L 388.8 348.518919 
L 388.8 346.271351 
L 388.8 344.023784 
L 388.8 341.776216 
L 388.8 339.528649 
L 388.8 337.281081 
L 388.8 335.033514 
L 388.8 332.785946 
L 388.8 330.538378 
L 388.8 328.290811 
L 388.8 326.043243 
L 388.8 323.795676 
L 388.8 321.548108 
L 388.8 319.300541 
L 388.8 317.052973 
L 388.8 314.805405 
L 388.8 312.557838 
L 388.8 310.31027 
L 388.8 308.062703 
L 388.8 305.815135 
L 388.8 303.567568 
L 388.8 301.32 
L 388.8 299.072432 
L 388.8 296.824865 
L 388.8 294.577297 
L 388.8 292.32973 
L 388.8 290.082162 
L 388.8 287.834595 
L 388.8 285.587027 
L 388.8 283.339459 
L 388.8 281.091892 
L 388.8 278.844324 
L 388.8 276.596757 
L 388.8 274.349189 
L 388.8 272.101622 
L 388.8 269.854054 
L 388.8 267.606486 
L 388.8 265.358919 
L 388.8 263.111351 
L 388.8 260.863784 
L 388.8 258.616216 
L 388.8 256.368649 
L 388.8 254.121081 
L 388.8 251.873514 
L 388.8 249.625946 
L 388.8 247.378378 
L 388.8 245.130811 
L 388.8 242.883243 
L 388.8 240.635676 
L 388.8 238.388108 
L 388.8 236.140541 
L 388.8 233.892973 
L 388.8 231.645405 
L 388.8 229.397838 
L 388.8 227.15027 
L 388.8 224.902703 
L 388.8 222.655135 
L 388.8 220.407568 
L 388.8 218.16 
L 388.8 215.912432 
L 388.8 213.664865 
L 388.8 211.417297 
L 388.8 209.16973 
L 388.8 206.922162 
L 388.8 204.674595 
L 388.8 202.427027 
L 388.8 200.179459 
L 388.8 197.931892 
L 388.8 195.684324 
L 388.8 193.436757 
L 388.8 191.189189 
L 388.8 188.941622 
L 388.8 186.694054 
L 388.8 184.446486 
L 388.8 182.198919 
L 388.8 179.951351 
L 388.8 177.703784 
L 388.8 175.456216 
L 388.8 173.208649 
L 388.8 170.961081 
L 388.8 168.713514 
L 388.8 166.465946 
L 388.8 164.218378 
L 388.8 161.970811 
L 388.8 159.723243 
L 388.8 157.475676 
L 388.8 155.228108 
L 388.8 152.980541 
L 388.8 150.732973 
L 388.8 148.485405 
L 388.8 146.237838 
L 388.8 143.99027 
L 388.8 141.742703 
L 388.8 139.495135 
L 388.8 137.247568 
L 388.8 135 
L 388.8 132.752432 
L 388.8 130.504865 
L 388.8 128.257297 
L 388.8 126.00973 
L 388.8 123.762162 
L 388.8 121.514595 
L 388.8 119.267027 
L 388.8 117.019459 
L 388.8 114.771892 
L 388.8 112.524324 
L 388.8 110.276757 
L 388.8 108.029189 
L 388.8 105.781622 
L 388.8 103.534054 
L 388.8 101.286486 
L 388.8 99.038919 
L 388.8 96.791351 
L 388.8 94.543784 
L 388.8 92.296216 
L 388.8 90.048649 
L 388.8 87.801081 
L 388.8 85.553514 
L 388.8 83.305946 
L 388.8 81.058378 
L 388.8 78.810811 
L 388.8 76.563243 
L 388.8 74.315676 
L 388.8 72.068108 
L 388.8 69.820541 
L 388.8 67.572973 
L 388.8 65.325405 
L 388.8 63.077838 
L 388.8 60.83027 
L 388.8 58.582703 
L 388.8 56.335135 
L 388.8 54.087568 
L 388.8 51.84 
L 386.55302 51.84 
L 384.30604 51.84 
L 382.05906 51.84 
L 379.812081 51.84 
L 377.565101 51.84 
L 375.318121 51.84 
L 373.071141 51.84 
L 370.824161 51.84 
L 368.577181 51.84 
L 366.330201 51.84 
L 364.083221 51.84 
L 361.836242 51.84 
L 359.589262 51.84 
L 357.342282 51.84 
L 355.095302 51.84 
L 352.848322 51.84 
L 350.601342 51.84 
L 348.354362 51.84 
L 346.107383 51.84 
L 343.860403 51.84 
L 341.613423 51.84 
L 339.366443 51.84 
L 337.119463 51.84 
L 334.872483 51.84 
L 332.625503 51.84 
L 330.378523 51.84 
L 328.131544 51.84 
L 325.884564 51.84 
L 323.637584 51.84 
L 321.390604 51.84 
L 319.143624 51.84 
L 316.896644 51.84 
L 314.649664 51.84 
L 312.402685 51.84 
L 310.155705 51.84 
L 307.908725 51.84 
L 305.661745 51.84 
L 303.414765 51.84 
L 301.167785 51.84 
L 298.920805 51.84 
L 296.673826 51.84 
L 294.426846 51.84 
L 292.179866 51.84 
L 289.932886 51.84 
L 287.685906 51.84 
L 285.438926 51.84 
L 283.191946 51.84 
L 280.944966 51.84 
L 278.697987 51.84 
L 276.451007 51.84 
L 274.204027 51.84 
L 271.957047 51.84 
L 269.710067 51.84 
L 267.463087 51.84 
L 265.216107 51.84 
L 262.969128 51.84 
L 260.722148 51.84 
L 258.475168 51.84 
L 256.228188 51.84 
L 253.981208 51.84 
L 251.734228 51.84 
L 249.487248 51.84 
L 247.240268 51.84 
L 244.993289 51.84 
L 242.746309 51.84 
L 242.521611 51.84 
L 242.521611 54.087568 
L 242.521611 56.335135 
L 242.521611 58.582703 
L 242.521611 60.83027 
L 240.499329 62.853081 
L 240.274631 63.077838 
L 240.274631 65.325405 
L 240.274631 67.572973 
L 240.274631 69.820541 
L 240.274631 72.068108 
L 240.274631 74.315676 
L 240.274631 76.563243 
L 240.274631 78.810811 
L 240.274631 81.058378 
L 238.252349 83.081189 
L 238.027651 83.305946 
L 238.027651 85.553514 
L 238.027651 87.801081 
L 238.027651 90.048649 
L 238.027651 92.296216 
L 238.027651 94.543784 
L 238.027651 96.791351 
L 238.027651 99.038919 
L 238.027651 101.286486 
L 236.005369 103.309297 
L 235.780671 103.534054 
L 235.780671 105.781622 
L 235.780671 108.029189 
L 235.780671 110.276757 
L 235.780671 112.524324 
L 235.780671 114.771892 
L 235.780671 117.019459 
L 235.780671 119.267027 
L 233.758389 121.289838 
L 233.533691 121.514595 
L 233.533691 123.762162 
L 233.533691 126.00973 
L 233.533691 128.257297 
L 233.533691 130.504865 
L 233.533691 132.752432 
L 233.533691 135 
L 233.533691 137.247568 
L 233.533691 139.495135 
L 231.511409 141.517946 
L 231.286711 141.742703 
L 231.286711 143.99027 
L 231.286711 146.237838 
L 231.286711 148.485405 
L 231.286711 150.732973 
L 231.286711 152.980541 
L 231.286711 155.228108 
L 231.286711 157.475676 
L 231.286711 159.723243 
L 229.26443 161.746054 
L 229.039732 161.970811 
L 229.039732 164.218378 
L 229.039732 166.465946 
L 229.039732 168.713514 
L 229.039732 170.961081 
L 229.039732 173.208649 
L 229.039732 175.456216 
L 229.039732 177.703784 
L 229.039732 179.951351 
L 227.01745 181.974162 
L 226.792752 182.198919 
L 226.792752 184.446486 
L 226.792752 186.694054 
L 226.792752 188.941622 
L 226.792752 191.189189 
L 226.792752 193.436757 
L 226.792752 195.684324 
L 226.792752 197.931892 
L 226.792752 200.179459 
L 224.77047 202.20227 
L 224.545772 202.427027 
L 224.545772 204.674595 
L 224.545772 206.922162 
L 224.545772 209.16973 
L 224.545772 211.417297 
L 224.545772 213.664865 
L 224.545772 215.912432 
L 224.545772 218.16 
L 222.52349 220.182811 
L 222.298792 220.407568 
L 222.298792 222.655135 
L 222.298792 224.902703 
L 222.298792 227.15027 
L 222.298792 229.397838 
L 222.298792 231.645405 
L 222.298792 233.892973 
L 222.298792 236.140541 
L 222.298792 238.388108 
L 220.27651 240.410919 
L 220.051812 240.635676 
L 220.051812 242.883243 
L 220.051812 245.130811 
L 220.051812 247.378378 
L 220.051812 249.625946 
L 220.051812 251.873514 
L 220.051812 254.121081 
L 220.051812 256.368649 
L 220.051812 258.616216 
L 218.02953 260.639027 
L 217.804832 260.863784 
L 217.804832 263.111351 
L 217.804832 265.358919 
L 217.804832 267.606486 
L 217.804832 269.854054 
L 217.804832 272.101622 
L 217.804832 274.349189 
L 217.804832 276.596757 
L 217.804832 278.844324 
L 215.78255 280.867135 
L 215.557852 281.091892 
L 215.557852 283.339459 
L 215.557852 285.587027 
L 215.557852 287.834595 
L 215.557852 290.082162 
L 215.557852 292.32973 
L 215.557852 294.577297 
L 215.557852 296.824865 
L 213.53557 298.847676 
L 213.310872 299.072432 
L 213.310872 301.32 
L 213.310872 303.567568 
L 213.310872 305.815135 
L 213.310872 308.062703 
L 213.310872 310.31027 
L 213.310872 312.557838 
L 213.310872 314.805405 
L 213.310872 317.052973 
L 211.288591 319.075784 
L 211.063893 319.300541 
L 211.063893 321.548108 
L 211.063893 323.795676 
L 211.063893 326.043243 
L 211.063893 328.290811 
L 211.063893 330.538378 
L 211.063893 332.785946 
L 211.063893 335.033514 
L 211.063893 337.281081 
L 209.041611 339.303892 
L 208.816913 339.528649 
L 208.816913 341.776216 
L 208.816913 344.023784 
L 208.816913 346.271351 
L 208.816913 348.518919 
L 208.816913 350.766486 
L 208.816913 353.014054 
L 208.816913 355.261622 
L 208.816913 357.509189 
L 206.794631 359.532 
L 206.569933 359.756757 
L 206.569933 362.004324 
L 206.569933 364.251892 
L 206.569933 366.499459 
L 206.569933 368.747027 
L 206.569933 370.994595 
L 206.569933 373.242162 
L 206.569933 375.48973 
L 206.569933 377.737297 
L 204.547651 379.760108 
L 204.322953 379.984865 
L 204.322953 382.232432 
L 204.322953 384.48 
z
" clip-path="url(#pdc49d6dbae)" style="fill: #ff7f0e; fill-opacity: 0.3"/>
   </g>
   <g id="PathCollection_1">
    <defs>
     <path id="m0e0a464aaf" d="M 0 -5.477226 
L -1.229714 -1.692556 
L -5.209151 -1.692556 
L -1.989719 0.646499 
L -3.219432 4.431169 
L -0 2.092114 
L 3.219432 4.431169 
L 1.989719 0.646499 
L 5.209151 -1.692556 
L 1.229714 -1.692556 
z
" style="stroke: #1f77b4; stroke-opacity: 0.8"/>
    </defs>
    <g clip-path="url(#pdc49d6dbae)">
     <use xlink:href="#m0e0a464aaf" x="212.734338" y="240.280488" style="fill: #1f77b4; fill-opacity: 0.8; stroke: #1f77b4; stroke-opacity: 0.8"/>
     <use xlink:href="#m0e0a464aaf" x="266.901425" y="183.611735" style="fill: #1f77b4; fill-opacity: 0.8; stroke: #1f77b4; stroke-opacity: 0.8"/>
     <use xlink:href="#m0e0a464aaf" x="177.566348" y="198.115721" style="fill: #1f77b4; fill-opacity: 0.8; stroke: #1f77b4; stroke-opacity: 0.8"/>
     <use xlink:href="#m0e0a464aaf" x="220.419357" y="256.790072" style="fill: #1f77b4; fill-opacity: 0.8; stroke: #1f77b4; stroke-opacity: 0.8"/>
     <use xlink:href="#m0e0a464aaf" x="166.348993" y="172.69618" style="fill: #1f77b4; fill-opacity: 0.8; stroke: #1f77b4; stroke-opacity: 0.8"/>
     <use xlink:href="#m0e0a464aaf" x="217.726974" y="182.629298" style="fill: #1f77b4; fill-opacity: 0.8; stroke: #1f77b4; stroke-opacity: 0.8"/>
     <use xlink:href="#m0e0a464aaf" x="171.399039" y="168.327725" style="fill: #1f77b4; fill-opacity: 0.8; stroke: #1f77b4; stroke-opacity: 0.8"/>
     <use xlink:href="#m0e0a464aaf" x="178.422496" y="193.509518" style="fill: #1f77b4; fill-opacity: 0.8; stroke: #1f77b4; stroke-opacity: 0.8"/>
     <use xlink:href="#m0e0a464aaf" x="178.277378" y="206.130094" style="fill: #1f77b4; fill-opacity: 0.8; stroke: #1f77b4; stroke-opacity: 0.8"/>
     <use xlink:href="#m0e0a464aaf" x="238.011547" y="228.063225" style="fill: #1f77b4; fill-opacity: 0.8; stroke: #1f77b4; stroke-opacity: 0.8"/>
     <use xlink:href="#m0e0a464aaf" x="248.890814" y="170.246185" style="fill: #1f77b4; fill-opacity: 0.8; stroke: #1f77b4; stroke-opacity: 0.8"/>
     <use xlink:href="#m0e0a464aaf" x="230.614316" y="177.737844" style="fill: #1f77b4; fill-opacity: 0.8; stroke: #1f77b4; stroke-opacity: 0.8"/>
     <use xlink:href="#m0e0a464aaf" x="273.17254" y="269.983099" style="fill: #1f77b4; fill-opacity: 0.8; stroke: #1f77b4; stroke-opacity: 0.8"/>
     <use xlink:href="#m0e0a464aaf" x="207.189755" y="272.101622" style="fill: #1f77b4; fill-opacity: 0.8; stroke: #1f77b4; stroke-opacity: 0.8"/>
     <use xlink:href="#m0e0a464aaf" x="197.172888" y="232.758357" style="fill: #1f77b4; fill-opacity: 0.8; stroke: #1f77b4; stroke-opacity: 0.8"/>
     <use xlink:href="#m0e0a464aaf" x="262.65966" y="183.976031" style="fill: #1f77b4; fill-opacity: 0.8; stroke: #1f77b4; stroke-opacity: 0.8"/>
     <use xlink:href="#m0e0a464aaf" x="190.19419" y="164.116209" style="fill: #1f77b4; fill-opacity: 0.8; stroke: #1f77b4; stroke-opacity: 0.8"/>
     <use xlink:href="#m0e0a464aaf" x="273.290505" y="258.161093" style="fill: #1f77b4; fill-opacity: 0.8; stroke: #1f77b4; stroke-opacity: 0.8"/>
     <use xlink:href="#m0e0a464aaf" x="166.438966" y="208.297253" style="fill: #1f77b4; fill-opacity: 0.8; stroke: #1f77b4; stroke-opacity: 0.8"/>
     <use xlink:href="#m0e0a464aaf" x="274.038333" y="232.260803" style="fill: #1f77b4; fill-opacity: 0.8; stroke: #1f77b4; stroke-opacity: 0.8"/>
     <use xlink:href="#m0e0a464aaf" x="169.922395" y="166.067292" style="fill: #1f77b4; fill-opacity: 0.8; stroke: #1f77b4; stroke-opacity: 0.8"/>
     <use xlink:href="#m0e0a464aaf" x="265.192454" y="180.42874" style="fill: #1f77b4; fill-opacity: 0.8; stroke: #1f77b4; stroke-opacity: 0.8"/>
     <use xlink:href="#m0e0a464aaf" x="224.360111" y="180.854679" style="fill: #1f77b4; fill-opacity: 0.8; stroke: #1f77b4; stroke-opacity: 0.8"/>
     <use xlink:href="#m0e0a464aaf" x="276.632018" y="222.393722" style="fill: #1f77b4; fill-opacity: 0.8; stroke: #1f77b4; stroke-opacity: 0.8"/>
     <use xlink:href="#m0e0a464aaf" x="173.364392" y="228.447956" style="fill: #1f77b4; fill-opacity: 0.8; stroke: #1f77b4; stroke-opacity: 0.8"/>
    </g>
   </g>
   <g id="PathCollection_2">
    <defs>
     <path id="m5b3adba313" d="M 0 5.477226 
C 1.452577 5.477226 2.845856 4.900111 3.872983 3.872983 
C 4.900111 2.845856 5.477226 1.452577 5.477226 0 
C 5.477226 -1.452577 4.900111 -2.845856 3.872983 -3.872983 
C 2.845856 -4.900111 1.452577 -5.477226 0 -5.477226 
C -1.452577 -5.477226 -2.845856 -4.900111 -3.872983 -3.872983 
C -4.900111 -2.845856 -5.477226 -1.452577 -5.477226 0 
C -5.477226 1.452577 -4.900111 2.845856 -3.872983 3.872983 
C -2.845856 4.900111 -1.452577 5.477226 0 5.477226 
z
" style="stroke: #ff7f0e; stroke-opacity: 0.8"/>
    </defs>
    <g clip-path="url(#pdc49d6dbae)">
     <use xlink:href="#m5b3adba313" x="227.298394" y="244.339656" style="fill: #ff7f0e; fill-opacity: 0.8; stroke: #ff7f0e; stroke-opacity: 0.8"/>
     <use xlink:href="#m5b3adba313" x="273.973587" y="268.729313" style="fill: #ff7f0e; fill-opacity: 0.8; stroke: #ff7f0e; stroke-opacity: 0.8"/>
     <use xlink:href="#m5b3adba313" x="223.842939" y="177.888601" style="fill: #ff7f0e; fill-opacity: 0.8; stroke: #ff7f0e; stroke-opacity: 0.8"/>
     <use xlink:href="#m5b3adba313" x="235.785726" y="183.712202" style="fill: #ff7f0e; fill-opacity: 0.8; stroke: #ff7f0e; stroke-opacity: 0.8"/>
     <use xlink:href="#m5b3adba313" x="243.240088" y="162.718048" style="fill: #ff7f0e; fill-opacity: 0.8; stroke: #ff7f0e; stroke-opacity: 0.8"/>
     <use xlink:href="#m5b3adba313" x="216.140654" y="163.064268" style="fill: #ff7f0e; fill-opacity: 0.8; stroke: #ff7f0e; stroke-opacity: 0.8"/>
     <use xlink:href="#m5b3adba313" x="235.578941" y="212.646185" style="fill: #ff7f0e; fill-opacity: 0.8; stroke: #ff7f0e; stroke-opacity: 0.8"/>
     <use xlink:href="#m5b3adba313" x="230.720547" y="188.647141" style="fill: #ff7f0e; fill-opacity: 0.8; stroke: #ff7f0e; stroke-opacity: 0.8"/>
     <use xlink:href="#m5b3adba313" x="266.317618" y="168.893459" style="fill: #ff7f0e; fill-opacity: 0.8; stroke: #ff7f0e; stroke-opacity: 0.8"/>
     <use xlink:href="#m5b3adba313" x="170.179278" y="179.582704" style="fill: #ff7f0e; fill-opacity: 0.8; stroke: #ff7f0e; stroke-opacity: 0.8"/>
     <use xlink:href="#m5b3adba313" x="196.639354" y="247.268121" style="fill: #ff7f0e; fill-opacity: 0.8; stroke: #ff7f0e; stroke-opacity: 0.8"/>
     <use xlink:href="#m5b3adba313" x="271.851196" y="224.43328" style="fill: #ff7f0e; fill-opacity: 0.8; stroke: #ff7f0e; stroke-opacity: 0.8"/>
     <use xlink:href="#m5b3adba313" x="265.093663" y="260.549974" style="fill: #ff7f0e; fill-opacity: 0.8; stroke: #ff7f0e; stroke-opacity: 0.8"/>
     <use xlink:href="#m5b3adba313" x="216.266" y="167.849992" style="fill: #ff7f0e; fill-opacity: 0.8; stroke: #ff7f0e; stroke-opacity: 0.8"/>
     <use xlink:href="#m5b3adba313" x="234.744696" y="206.943777" style="fill: #ff7f0e; fill-opacity: 0.8; stroke: #ff7f0e; stroke-opacity: 0.8"/>
     <use xlink:href="#m5b3adba313" x="196.236919" y="249.370192" style="fill: #ff7f0e; fill-opacity: 0.8; stroke: #ff7f0e; stroke-opacity: 0.8"/>
     <use xlink:href="#m5b3adba313" x="186.208646" y="199.580066" style="fill: #ff7f0e; fill-opacity: 0.8; stroke: #ff7f0e; stroke-opacity: 0.8"/>
     <use xlink:href="#m5b3adba313" x="217.169472" y="205.60045" style="fill: #ff7f0e; fill-opacity: 0.8; stroke: #ff7f0e; stroke-opacity: 0.8"/>
     <use xlink:href="#m5b3adba313" x="204.77219" y="234.814954" style="fill: #ff7f0e; fill-opacity: 0.8; stroke: #ff7f0e; stroke-opacity: 0.8"/>
     <use xlink:href="#m5b3adba313" x="230.646599" y="262.303281" style="fill: #ff7f0e; fill-opacity: 0.8; stroke: #ff7f0e; stroke-opacity: 0.8"/>
     <use xlink:href="#m5b3adba313" x="173.806831" y="199.594393" style="fill: #ff7f0e; fill-opacity: 0.8; stroke: #ff7f0e; stroke-opacity: 0.8"/>
     <use xlink:href="#m5b3adba313" x="274.545698" y="216.593364" style="fill: #ff7f0e; fill-opacity: 0.8; stroke: #ff7f0e; stroke-opacity: 0.8"/>
     <use xlink:href="#m5b3adba313" x="275.873207" y="188.272811" style="fill: #ff7f0e; fill-opacity: 0.8; stroke: #ff7f0e; stroke-opacity: 0.8"/>
     <use xlink:href="#m5b3adba313" x="243.511188" y="216.609569" style="fill: #ff7f0e; fill-opacity: 0.8; stroke: #ff7f0e; stroke-opacity: 0.8"/>
     <use xlink:href="#m5b3adba313" x="225.30331" y="179.297924" style="fill: #ff7f0e; fill-opacity: 0.8; stroke: #ff7f0e; stroke-opacity: 0.8"/>
    </g>
   </g>
   <g id="matplotlib.axis_1">
    <g id="xtick_1">
     <g id="line2d_1">
      <defs>
       <path id="maaf6072e23" d="M 0 0 
L 0 3.5 
" style="stroke: #000000; stroke-width: 0.8"/>
      </defs>
      <g>
       <use xlink:href="#maaf6072e23" x="165.073423" y="384.48" style="stroke: #000000; stroke-width: 0.8"/>
      </g>
     </g>
     <g id="text_1">
      <!-- 0 -->
      <g transform="translate(158.074673 408.196563) scale(0.22 -0.22)">
       <defs>
        <path id="DejaVuSans-30" d="M 2034 4250 
Q 1547 4250 1301 3770 
Q 1056 3291 1056 2328 
Q 1056 1369 1301 889 
Q 1547 409 2034 409 
Q 2525 409 2770 889 
Q 3016 1369 3016 2328 
Q 3016 3291 2770 3770 
Q 2525 4250 2034 4250 
z
M 2034 4750 
Q 2819 4750 3233 4129 
Q 3647 3509 3647 2328 
Q 3647 1150 3233 529 
Q 2819 -91 2034 -91 
Q 1250 -91 836 529 
Q 422 1150 422 2328 
Q 422 3509 836 4129 
Q 1250 4750 2034 4750 
z
" transform="scale(0.015625)"/>
       </defs>
       <use xlink:href="#DejaVuSans-30"/>
      </g>
     </g>
    </g>
    <g id="xtick_2">
     <g id="line2d_2">
      <g>
       <use xlink:href="#maaf6072e23" x="277.422416" y="384.48" style="stroke: #000000; stroke-width: 0.8"/>
      </g>
     </g>
     <g id="text_2">
      <!-- 1 -->
      <g transform="translate(270.423666 408.196563) scale(0.22 -0.22)">
       <defs>
        <path id="DejaVuSans-31" d="M 794 531 
L 1825 531 
L 1825 4091 
L 703 3866 
L 703 4441 
L 1819 4666 
L 2450 4666 
L 2450 531 
L 3481 531 
L 3481 0 
L 794 0 
L 794 531 
z
" transform="scale(0.015625)"/>
       </defs>
       <use xlink:href="#DejaVuSans-31"/>
      </g>
     </g>
    </g>
   </g>
   <g id="matplotlib.axis_2">
    <g id="ytick_1">
     <g id="line2d_3">
      <defs>
       <path id="mc6e4160ee4" d="M 0 0 
L -3.5 0 
" style="stroke: #000000; stroke-width: 0.8"/>
      </defs>
      <g>
       <use xlink:href="#mc6e4160ee4" x="54" y="331.253889" style="stroke: #000000; stroke-width: 0.8"/>
      </g>
     </g>
     <g id="text_3">
      <!-- 0.5 -->
      <g transform="translate(-6.422187 339.61217) scale(0.22 -0.22)">
       <defs>
        <path id="DejaVuSans-2212" d="M 678 2272 
L 4684 2272 
L 4684 1741 
L 678 1741 
L 678 2272 
z
" transform="scale(0.015625)"/>
        <path id="DejaVuSans-2e" d="M 684 794 
L 1344 794 
L 1344 0 
L 684 0 
L 684 794 
z
" transform="scale(0.015625)"/>
        <path id="DejaVuSans-35" d="M 691 4666 
L 3169 4666 
L 3169 4134 
L 1269 4134 
L 1269 2991 
Q 1406 3038 1543 3061 
Q 1681 3084 1819 3084 
Q 2600 3084 3056 2656 
Q 3513 2228 3513 1497 
Q 3513 744 3044 326 
Q 2575 -91 1722 -91 
Q 1428 -91 1123 -41 
Q 819 9 494 109 
L 494 744 
Q 775 591 1075 516 
Q 1375 441 1709 441 
Q 2250 441 2565 725 
Q 2881 1009 2881 1497 
Q 2881 1984 2565 2268 
Q 2250 2553 1709 2553 
Q 1456 2553 1204 2497 
Q 953 2441 691 2322 
L 691 4666 
z
" transform="scale(0.015625)"/>
       </defs>
       <use xlink:href="#DejaVuSans-2212"/>
       <use xlink:href="#DejaVuSans-30" x="83.789062"/>
       <use xlink:href="#DejaVuSans-2e" x="147.412109"/>
       <use xlink:href="#DejaVuSans-35" x="179.199219"/>
      </g>
     </g>
    </g>
    <g id="ytick_2">
     <g id="line2d_4">
      <g>
       <use xlink:href="#mc6e4160ee4" x="54" y="275.064699" style="stroke: #000000; stroke-width: 0.8"/>
      </g>
     </g>
     <g id="text_4">
      <!-- 0.0 -->
      <g transform="translate(12.013125 283.422981) scale(0.22 -0.22)">
       <use xlink:href="#DejaVuSans-30"/>
       <use xlink:href="#DejaVuSans-2e" x="63.623047"/>
       <use xlink:href="#DejaVuSans-30" x="95.410156"/>
      </g>
     </g>
    </g>
    <g id="ytick_3">
     <g id="line2d_5">
      <g>
       <use xlink:href="#mc6e4160ee4" x="54" y="218.87551" style="stroke: #000000; stroke-width: 0.8"/>
      </g>
     </g>
     <g id="text_5">
      <!-- 0.5 -->
      <g transform="translate(12.013125 227.233792) scale(0.22 -0.22)">
       <use xlink:href="#DejaVuSans-30"/>
       <use xlink:href="#DejaVuSans-2e" x="63.623047"/>
       <use xlink:href="#DejaVuSans-35" x="95.410156"/>
      </g>
     </g>
    </g>
    <g id="ytick_4">
     <g id="line2d_6">
      <g>
       <use xlink:href="#mc6e4160ee4" x="54" y="162.686321" style="stroke: #000000; stroke-width: 0.8"/>
      </g>
     </g>
     <g id="text_6">
      <!-- 1.0 -->
      <g transform="translate(12.013125 171.044602) scale(0.22 -0.22)">
       <use xlink:href="#DejaVuSans-31"/>
       <use xlink:href="#DejaVuSans-2e" x="63.623047"/>
       <use xlink:href="#DejaVuSans-30" x="95.410156"/>
      </g>
     </g>
    </g>
    <g id="ytick_5">
     <g id="line2d_7">
      <g>
       <use xlink:href="#mc6e4160ee4" x="54" y="106.497132" style="stroke: #000000; stroke-width: 0.8"/>
      </g>
     </g>
     <g id="text_7">
      <!-- 1.5 -->
      <g transform="translate(12.013125 114.855413) scale(0.22 -0.22)">
       <use xlink:href="#DejaVuSans-31"/>
       <use xlink:href="#DejaVuSans-2e" x="63.623047"/>
       <use xlink:href="#DejaVuSans-35" x="95.410156"/>
      </g>
     </g>
    </g>
   </g>
   <g id="line2d_8">
    <defs>
     <path id="mfe6f37ddcd" d="M 0 -3 
L -0.673542 -0.927051 
L -2.85317 -0.927051 
L -1.089814 0.354102 
L -1.763356 2.427051 
L -0 1.145898 
L 1.763356 2.427051 
L 1.089814 0.354102 
L 2.85317 -0.927051 
L 0.673542 -0.927051 
z
" style="stroke: #1f77b4; stroke-linejoin: bevel"/>
    </defs>
    <g clip-path="url(#pdc49d6dbae)">
     <use xlink:href="#mfe6f37ddcd" x="212.734338" y="240.280488" style="fill: #1f77b4; stroke: #1f77b4; stroke-linejoin: bevel"/>
     <use xlink:href="#mfe6f37ddcd" x="266.901425" y="183.611735" style="fill: #1f77b4; stroke: #1f77b4; stroke-linejoin: bevel"/>
     <use xlink:href="#mfe6f37ddcd" x="177.566348" y="198.115721" style="fill: #1f77b4; stroke: #1f77b4; stroke-linejoin: bevel"/>
     <use xlink:href="#mfe6f37ddcd" x="220.419357" y="256.790072" style="fill: #1f77b4; stroke: #1f77b4; stroke-linejoin: bevel"/>
     <use xlink:href="#mfe6f37ddcd" x="166.348993" y="172.69618" style="fill: #1f77b4; stroke: #1f77b4; stroke-linejoin: bevel"/>
     <use xlink:href="#mfe6f37ddcd" x="217.726974" y="182.629298" style="fill: #1f77b4; stroke: #1f77b4; stroke-linejoin: bevel"/>
     <use xlink:href="#mfe6f37ddcd" x="171.399039" y="168.327725" style="fill: #1f77b4; stroke: #1f77b4; stroke-linejoin: bevel"/>
     <use xlink:href="#mfe6f37ddcd" x="178.422496" y="193.509518" style="fill: #1f77b4; stroke: #1f77b4; stroke-linejoin: bevel"/>
     <use xlink:href="#mfe6f37ddcd" x="178.277378" y="206.130094" style="fill: #1f77b4; stroke: #1f77b4; stroke-linejoin: bevel"/>
     <use xlink:href="#mfe6f37ddcd" x="238.011547" y="228.063225" style="fill: #1f77b4; stroke: #1f77b4; stroke-linejoin: bevel"/>
     <use xlink:href="#mfe6f37ddcd" x="248.890814" y="170.246185" style="fill: #1f77b4; stroke: #1f77b4; stroke-linejoin: bevel"/>
     <use xlink:href="#mfe6f37ddcd" x="230.614316" y="177.737844" style="fill: #1f77b4; stroke: #1f77b4; stroke-linejoin: bevel"/>
     <use xlink:href="#mfe6f37ddcd" x="273.17254" y="269.983099" style="fill: #1f77b4; stroke: #1f77b4; stroke-linejoin: bevel"/>
     <use xlink:href="#mfe6f37ddcd" x="207.189755" y="272.101622" style="fill: #1f77b4; stroke: #1f77b4; stroke-linejoin: bevel"/>
     <use xlink:href="#mfe6f37ddcd" x="197.172888" y="232.758357" style="fill: #1f77b4; stroke: #1f77b4; stroke-linejoin: bevel"/>
     <use xlink:href="#mfe6f37ddcd" x="262.65966" y="183.976031" style="fill: #1f77b4; stroke: #1f77b4; stroke-linejoin: bevel"/>
     <use xlink:href="#mfe6f37ddcd" x="190.19419" y="164.116209" style="fill: #1f77b4; stroke: #1f77b4; stroke-linejoin: bevel"/>
     <use xlink:href="#mfe6f37ddcd" x="273.290505" y="258.161093" style="fill: #1f77b4; stroke: #1f77b4; stroke-linejoin: bevel"/>
     <use xlink:href="#mfe6f37ddcd" x="166.438966" y="208.297253" style="fill: #1f77b4; stroke: #1f77b4; stroke-linejoin: bevel"/>
     <use xlink:href="#mfe6f37ddcd" x="274.038333" y="232.260803" style="fill: #1f77b4; stroke: #1f77b4; stroke-linejoin: bevel"/>
     <use xlink:href="#mfe6f37ddcd" x="169.922395" y="166.067292" style="fill: #1f77b4; stroke: #1f77b4; stroke-linejoin: bevel"/>
     <use xlink:href="#mfe6f37ddcd" x="265.192454" y="180.42874" style="fill: #1f77b4; stroke: #1f77b4; stroke-linejoin: bevel"/>
     <use xlink:href="#mfe6f37ddcd" x="224.360111" y="180.854679" style="fill: #1f77b4; stroke: #1f77b4; stroke-linejoin: bevel"/>
     <use xlink:href="#mfe6f37ddcd" x="276.632018" y="222.393722" style="fill: #1f77b4; stroke: #1f77b4; stroke-linejoin: bevel"/>
     <use xlink:href="#mfe6f37ddcd" x="173.364392" y="228.447956" style="fill: #1f77b4; stroke: #1f77b4; stroke-linejoin: bevel"/>
    </g>
   </g>
   <g id="line2d_9">
    <defs>
     <path id="mc1330bfccf" d="M 0 3 
C 0.795609 3 1.55874 2.683901 2.12132 2.12132 
C 2.683901 1.55874 3 0.795609 3 0 
C 3 -0.795609 2.683901 -1.55874 2.12132 -2.12132 
C 1.55874 -2.683901 0.795609 -3 0 -3 
C -0.795609 -3 -1.55874 -2.683901 -2.12132 -2.12132 
C -2.683901 -1.55874 -3 -0.795609 -3 0 
C -3 0.795609 -2.683901 1.55874 -2.12132 2.12132 
C -1.55874 2.683901 -0.795609 3 0 3 
z
" style="stroke: #ff7f0e"/>
    </defs>
    <g clip-path="url(#pdc49d6dbae)">
     <use xlink:href="#mc1330bfccf" x="227.298394" y="244.339656" style="fill: #ff7f0e; stroke: #ff7f0e"/>
     <use xlink:href="#mc1330bfccf" x="273.973587" y="268.729313" style="fill: #ff7f0e; stroke: #ff7f0e"/>
     <use xlink:href="#mc1330bfccf" x="223.842939" y="177.888601" style="fill: #ff7f0e; stroke: #ff7f0e"/>
     <use xlink:href="#mc1330bfccf" x="235.785726" y="183.712202" style="fill: #ff7f0e; stroke: #ff7f0e"/>
     <use xlink:href="#mc1330bfccf" x="243.240088" y="162.718048" style="fill: #ff7f0e; stroke: #ff7f0e"/>
     <use xlink:href="#mc1330bfccf" x="216.140654" y="163.064268" style="fill: #ff7f0e; stroke: #ff7f0e"/>
     <use xlink:href="#mc1330bfccf" x="235.578941" y="212.646185" style="fill: #ff7f0e; stroke: #ff7f0e"/>
     <use xlink:href="#mc1330bfccf" x="230.720547" y="188.647141" style="fill: #ff7f0e; stroke: #ff7f0e"/>
     <use xlink:href="#mc1330bfccf" x="266.317618" y="168.893459" style="fill: #ff7f0e; stroke: #ff7f0e"/>
     <use xlink:href="#mc1330bfccf" x="170.179278" y="179.582704" style="fill: #ff7f0e; stroke: #ff7f0e"/>
     <use xlink:href="#mc1330bfccf" x="196.639354" y="247.268121" style="fill: #ff7f0e; stroke: #ff7f0e"/>
     <use xlink:href="#mc1330bfccf" x="271.851196" y="224.43328" style="fill: #ff7f0e; stroke: #ff7f0e"/>
     <use xlink:href="#mc1330bfccf" x="265.093663" y="260.549974" style="fill: #ff7f0e; stroke: #ff7f0e"/>
     <use xlink:href="#mc1330bfccf" x="216.266" y="167.849992" style="fill: #ff7f0e; stroke: #ff7f0e"/>
     <use xlink:href="#mc1330bfccf" x="234.744696" y="206.943777" style="fill: #ff7f0e; stroke: #ff7f0e"/>
     <use xlink:href="#mc1330bfccf" x="196.236919" y="249.370192" style="fill: #ff7f0e; stroke: #ff7f0e"/>
     <use xlink:href="#mc1330bfccf" x="186.208646" y="199.580066" style="fill: #ff7f0e; stroke: #ff7f0e"/>
     <use xlink:href="#mc1330bfccf" x="217.169472" y="205.60045" style="fill: #ff7f0e; stroke: #ff7f0e"/>
     <use xlink:href="#mc1330bfccf" x="204.77219" y="234.814954" style="fill: #ff7f0e; stroke: #ff7f0e"/>
     <use xlink:href="#mc1330bfccf" x="230.646599" y="262.303281" style="fill: #ff7f0e; stroke: #ff7f0e"/>
     <use xlink:href="#mc1330bfccf" x="173.806831" y="199.594393" style="fill: #ff7f0e; stroke: #ff7f0e"/>
     <use xlink:href="#mc1330bfccf" x="274.545698" y="216.593364" style="fill: #ff7f0e; stroke: #ff7f0e"/>
     <use xlink:href="#mc1330bfccf" x="275.873207" y="188.272811" style="fill: #ff7f0e; stroke: #ff7f0e"/>
     <use xlink:href="#mc1330bfccf" x="243.511188" y="216.609569" style="fill: #ff7f0e; stroke: #ff7f0e"/>
     <use xlink:href="#mc1330bfccf" x="225.30331" y="179.297924" style="fill: #ff7f0e; stroke: #ff7f0e"/>
    </g>
   </g>
   <g id="line2d_10">
    <path d="M 218.437649 207.119398 
" clip-path="url(#pdc49d6dbae)" style="fill: none; stroke: #000000; stroke-width: 1.5; stroke-linecap: square"/>
    <defs>
     <path id="mc5fc05a225" d="M 0 6 
C 1.591219 6 3.117479 5.367802 4.242641 4.242641 
C 5.367802 3.117479 6 1.591219 6 0 
C 6 -1.591219 5.367802 -3.117479 4.242641 -4.242641 
C 3.117479 -5.367802 1.591219 -6 0 -6 
C -1.591219 -6 -3.117479 -5.367802 -4.242641 -4.242641 
C -5.367802 -3.117479 -6 -1.591219 -6 0 
C -6 1.591219 -5.367802 3.117479 -4.242641 4.242641 
C -3.117479 5.367802 -1.591219 6 0 6 
z
" style="stroke: #000000"/>
    </defs>
    <g clip-path="url(#pdc49d6dbae)">
     <use xlink:href="#mc5fc05a225" x="218.437649" y="207.119398" style="stroke: #000000"/>
    </g>
   </g>
   <g id="line2d_11">
    <path d="M 229.42987 208.372149 
" clip-path="url(#pdc49d6dbae)" style="fill: none; stroke: #000000; stroke-width: 1.5; stroke-linecap: square"/>
    <g clip-path="url(#pdc49d6dbae)">
     <use xlink:href="#mc5fc05a225" x="229.42987" y="208.372149" style="stroke: #000000"/>
    </g>
   </g>
   <g id="patch_3">
    <path d="M 54 384.48 
L 54 51.84 
" style="fill: none; stroke: #000000; stroke-width: 0.8; stroke-linejoin: miter; stroke-linecap: square"/>
   </g>
   <g id="patch_4">
    <path d="M 388.8 384.48 
L 388.8 51.84 
" style="fill: none; stroke: #000000; stroke-width: 0.8; stroke-linejoin: miter; stroke-linecap: square"/>
   </g>
   <g id="patch_5">
    <path d="M 54 384.48 
L 388.8 384.48 
" style="fill: none; stroke: #000000; stroke-width: 0.8; stroke-linejoin: miter; stroke-linecap: square"/>
   </g>
   <g id="patch_6">
    <path d="M 54 51.84 
L 388.8 51.84 
" style="fill: none; stroke: #000000; stroke-width: 0.8; stroke-linejoin: miter; stroke-linecap: square"/>
   </g>
   <g id="text_8">
    <!-- $\mu_{0}$ -->
    <g transform="translate(201.697649 190.487398) scale(0.22 -0.22)">
     <defs>
      <path id="DejaVuSans-Oblique-3bc" d="M -84 -1331 
L 856 3500 
L 1434 3500 
L 1009 1322 
Q 997 1256 987 1175 
Q 978 1094 978 1013 
Q 978 722 1161 565 
Q 1344 409 1684 409 
Q 2147 409 2431 671 
Q 2716 934 2816 1459 
L 3213 3500 
L 3788 3500 
L 3266 809 
Q 3253 750 3248 706 
Q 3244 663 3244 628 
Q 3244 531 3283 486 
Q 3322 441 3406 441 
Q 3438 441 3492 456 
Q 3547 472 3647 513 
L 3559 50 
Q 3422 -19 3297 -55 
Q 3172 -91 3053 -91 
Q 2847 -91 2730 40 
Q 2613 172 2613 403 
Q 2438 153 2195 31 
Q 1953 -91 1625 -91 
Q 1334 -91 1117 43 
Q 900 178 831 397 
L 494 -1331 
L -84 -1331 
z
" transform="scale(0.015625)"/>
     </defs>
     <use xlink:href="#DejaVuSans-Oblique-3bc" transform="translate(0 0.3125)"/>
     <use xlink:href="#DejaVuSans-30" transform="translate(63.623047 -16.09375) scale(0.7)"/>
    </g>
   </g>
   <g id="text_9">
    <!-- $\mu_{1}$ -->
    <g transform="translate(212.68987 191.740149) scale(0.22 -0.22)">
     <use xlink:href="#DejaVuSans-Oblique-3bc" transform="translate(0 0.3125)"/>
     <use xlink:href="#DejaVuSans-31" transform="translate(63.623047 -16.09375) scale(0.7)"/>
    </g>
   </g>
   <g id="text_10">
    <!-- NCC Decision Boundaries -->
    <g transform="translate(54.077625 45.84) scale(0.264 -0.264)">
     <defs>
      <path id="DejaVuSans-4e" d="M 628 4666 
L 1478 4666 
L 3547 763 
L 3547 4666 
L 4159 4666 
L 4159 0 
L 3309 0 
L 1241 3903 
L 1241 0 
L 628 0 
L 628 4666 
z
" transform="scale(0.015625)"/>
      <path id="DejaVuSans-43" d="M 4122 4306 
L 4122 3641 
Q 3803 3938 3442 4084 
Q 3081 4231 2675 4231 
Q 1875 4231 1450 3742 
Q 1025 3253 1025 2328 
Q 1025 1406 1450 917 
Q 1875 428 2675 428 
Q 3081 428 3442 575 
Q 3803 722 4122 1019 
L 4122 359 
Q 3791 134 3420 21 
Q 3050 -91 2638 -91 
Q 1578 -91 968 557 
Q 359 1206 359 2328 
Q 359 3453 968 4101 
Q 1578 4750 2638 4750 
Q 3056 4750 3426 4639 
Q 3797 4528 4122 4306 
z
" transform="scale(0.015625)"/>
      <path id="DejaVuSans-20" transform="scale(0.015625)"/>
      <path id="DejaVuSans-44" d="M 1259 4147 
L 1259 519 
L 2022 519 
Q 2988 519 3436 956 
Q 3884 1394 3884 2338 
Q 3884 3275 3436 3711 
Q 2988 4147 2022 4147 
L 1259 4147 
z
M 628 4666 
L 1925 4666 
Q 3281 4666 3915 4102 
Q 4550 3538 4550 2338 
Q 4550 1131 3912 565 
Q 3275 0 1925 0 
L 628 0 
L 628 4666 
z
" transform="scale(0.015625)"/>
      <path id="DejaVuSans-65" d="M 3597 1894 
L 3597 1613 
L 953 1613 
Q 991 1019 1311 708 
Q 1631 397 2203 397 
Q 2534 397 2845 478 
Q 3156 559 3463 722 
L 3463 178 
Q 3153 47 2828 -22 
Q 2503 -91 2169 -91 
Q 1331 -91 842 396 
Q 353 884 353 1716 
Q 353 2575 817 3079 
Q 1281 3584 2069 3584 
Q 2775 3584 3186 3129 
Q 3597 2675 3597 1894 
z
M 3022 2063 
Q 3016 2534 2758 2815 
Q 2500 3097 2075 3097 
Q 1594 3097 1305 2825 
Q 1016 2553 972 2059 
L 3022 2063 
z
" transform="scale(0.015625)"/>
      <path id="DejaVuSans-63" d="M 3122 3366 
L 3122 2828 
Q 2878 2963 2633 3030 
Q 2388 3097 2138 3097 
Q 1578 3097 1268 2742 
Q 959 2388 959 1747 
Q 959 1106 1268 751 
Q 1578 397 2138 397 
Q 2388 397 2633 464 
Q 2878 531 3122 666 
L 3122 134 
Q 2881 22 2623 -34 
Q 2366 -91 2075 -91 
Q 1284 -91 818 406 
Q 353 903 353 1747 
Q 353 2603 823 3093 
Q 1294 3584 2113 3584 
Q 2378 3584 2631 3529 
Q 2884 3475 3122 3366 
z
" transform="scale(0.015625)"/>
      <path id="DejaVuSans-69" d="M 603 3500 
L 1178 3500 
L 1178 0 
L 603 0 
L 603 3500 
z
M 603 4863 
L 1178 4863 
L 1178 4134 
L 603 4134 
L 603 4863 
z
" transform="scale(0.015625)"/>
      <path id="DejaVuSans-73" d="M 2834 3397 
L 2834 2853 
Q 2591 2978 2328 3040 
Q 2066 3103 1784 3103 
Q 1356 3103 1142 2972 
Q 928 2841 928 2578 
Q 928 2378 1081 2264 
Q 1234 2150 1697 2047 
L 1894 2003 
Q 2506 1872 2764 1633 
Q 3022 1394 3022 966 
Q 3022 478 2636 193 
Q 2250 -91 1575 -91 
Q 1294 -91 989 -36 
Q 684 19 347 128 
L 347 722 
Q 666 556 975 473 
Q 1284 391 1588 391 
Q 1994 391 2212 530 
Q 2431 669 2431 922 
Q 2431 1156 2273 1281 
Q 2116 1406 1581 1522 
L 1381 1569 
Q 847 1681 609 1914 
Q 372 2147 372 2553 
Q 372 3047 722 3315 
Q 1072 3584 1716 3584 
Q 2034 3584 2315 3537 
Q 2597 3491 2834 3397 
z
" transform="scale(0.015625)"/>
      <path id="DejaVuSans-6f" d="M 1959 3097 
Q 1497 3097 1228 2736 
Q 959 2375 959 1747 
Q 959 1119 1226 758 
Q 1494 397 1959 397 
Q 2419 397 2687 759 
Q 2956 1122 2956 1747 
Q 2956 2369 2687 2733 
Q 2419 3097 1959 3097 
z
M 1959 3584 
Q 2709 3584 3137 3096 
Q 3566 2609 3566 1747 
Q 3566 888 3137 398 
Q 2709 -91 1959 -91 
Q 1206 -91 779 398 
Q 353 888 353 1747 
Q 353 2609 779 3096 
Q 1206 3584 1959 3584 
z
" transform="scale(0.015625)"/>
      <path id="DejaVuSans-6e" d="M 3513 2113 
L 3513 0 
L 2938 0 
L 2938 2094 
Q 2938 2591 2744 2837 
Q 2550 3084 2163 3084 
Q 1697 3084 1428 2787 
Q 1159 2491 1159 1978 
L 1159 0 
L 581 0 
L 581 3500 
L 1159 3500 
L 1159 2956 
Q 1366 3272 1645 3428 
Q 1925 3584 2291 3584 
Q 2894 3584 3203 3211 
Q 3513 2838 3513 2113 
z
" transform="scale(0.015625)"/>
      <path id="DejaVuSans-42" d="M 1259 2228 
L 1259 519 
L 2272 519 
Q 2781 519 3026 730 
Q 3272 941 3272 1375 
Q 3272 1813 3026 2020 
Q 2781 2228 2272 2228 
L 1259 2228 
z
M 1259 4147 
L 1259 2741 
L 2194 2741 
Q 2656 2741 2882 2914 
Q 3109 3088 3109 3444 
Q 3109 3797 2882 3972 
Q 2656 4147 2194 4147 
L 1259 4147 
z
M 628 4666 
L 2241 4666 
Q 2963 4666 3353 4366 
Q 3744 4066 3744 3513 
Q 3744 3084 3544 2831 
Q 3344 2578 2956 2516 
Q 3422 2416 3680 2098 
Q 3938 1781 3938 1306 
Q 3938 681 3513 340 
Q 3088 0 2303 0 
L 628 0 
L 628 4666 
z
" transform="scale(0.015625)"/>
      <path id="DejaVuSans-75" d="M 544 1381 
L 544 3500 
L 1119 3500 
L 1119 1403 
Q 1119 906 1312 657 
Q 1506 409 1894 409 
Q 2359 409 2629 706 
Q 2900 1003 2900 1516 
L 2900 3500 
L 3475 3500 
L 3475 0 
L 2900 0 
L 2900 538 
Q 2691 219 2414 64 
Q 2138 -91 1772 -91 
Q 1169 -91 856 284 
Q 544 659 544 1381 
z
M 1991 3584 
L 1991 3584 
z
" transform="scale(0.015625)"/>
      <path id="DejaVuSans-64" d="M 2906 2969 
L 2906 4863 
L 3481 4863 
L 3481 0 
L 2906 0 
L 2906 525 
Q 2725 213 2448 61 
Q 2172 -91 1784 -91 
Q 1150 -91 751 415 
Q 353 922 353 1747 
Q 353 2572 751 3078 
Q 1150 3584 1784 3584 
Q 2172 3584 2448 3432 
Q 2725 3281 2906 2969 
z
M 947 1747 
Q 947 1113 1208 752 
Q 1469 391 1925 391 
Q 2381 391 2643 752 
Q 2906 1113 2906 1747 
Q 2906 2381 2643 2742 
Q 2381 3103 1925 3103 
Q 1469 3103 1208 2742 
Q 947 2381 947 1747 
z
" transform="scale(0.015625)"/>
      <path id="DejaVuSans-61" d="M 2194 1759 
Q 1497 1759 1228 1600 
Q 959 1441 959 1056 
Q 959 750 1161 570 
Q 1363 391 1709 391 
Q 2188 391 2477 730 
Q 2766 1069 2766 1631 
L 2766 1759 
L 2194 1759 
z
M 3341 1997 
L 3341 0 
L 2766 0 
L 2766 531 
Q 2569 213 2275 61 
Q 1981 -91 1556 -91 
Q 1019 -91 701 211 
Q 384 513 384 1019 
Q 384 1609 779 1909 
Q 1175 2209 1959 2209 
L 2766 2209 
L 2766 2266 
Q 2766 2663 2505 2880 
Q 2244 3097 1772 3097 
Q 1472 3097 1187 3025 
Q 903 2953 641 2809 
L 641 3341 
Q 956 3463 1253 3523 
Q 1550 3584 1831 3584 
Q 2591 3584 2966 3190 
Q 3341 2797 3341 1997 
z
" transform="scale(0.015625)"/>
      <path id="DejaVuSans-72" d="M 2631 2963 
Q 2534 3019 2420 3045 
Q 2306 3072 2169 3072 
Q 1681 3072 1420 2755 
Q 1159 2438 1159 1844 
L 1159 0 
L 581 0 
L 581 3500 
L 1159 3500 
L 1159 2956 
Q 1341 3275 1631 3429 
Q 1922 3584 2338 3584 
Q 2397 3584 2469 3576 
Q 2541 3569 2628 3553 
L 2631 2963 
z
" transform="scale(0.015625)"/>
     </defs>
     <use xlink:href="#DejaVuSans-4e"/>
     <use xlink:href="#DejaVuSans-43" x="74.804688"/>
     <use xlink:href="#DejaVuSans-43" x="144.628906"/>
     <use xlink:href="#DejaVuSans-20" x="214.453125"/>
     <use xlink:href="#DejaVuSans-44" x="246.240234"/>
     <use xlink:href="#DejaVuSans-65" x="323.242188"/>
     <use xlink:href="#DejaVuSans-63" x="384.765625"/>
     <use xlink:href="#DejaVuSans-69" x="439.746094"/>
     <use xlink:href="#DejaVuSans-73" x="467.529297"/>
     <use xlink:href="#DejaVuSans-69" x="519.628906"/>
     <use xlink:href="#DejaVuSans-6f" x="547.412109"/>
     <use xlink:href="#DejaVuSans-6e" x="608.59375"/>
     <use xlink:href="#DejaVuSans-20" x="671.972656"/>
     <use xlink:href="#DejaVuSans-42" x="703.759766"/>
     <use xlink:href="#DejaVuSans-6f" x="772.363281"/>
     <use xlink:href="#DejaVuSans-75" x="833.544922"/>
     <use xlink:href="#DejaVuSans-6e" x="896.923828"/>
     <use xlink:href="#DejaVuSans-64" x="960.302734"/>
     <use xlink:href="#DejaVuSans-61" x="1023.779297"/>
     <use xlink:href="#DejaVuSans-72" x="1085.058594"/>
     <use xlink:href="#DejaVuSans-69" x="1126.171875"/>
     <use xlink:href="#DejaVuSans-65" x="1153.955078"/>
     <use xlink:href="#DejaVuSans-73" x="1215.478516"/>
    </g>
   </g>
  </g>
 </g>
 <defs>
  <clipPath id="pdc49d6dbae">
   <rect x="54" y="51.84" width="334.8" height="332.64"/>
  </clipPath>
 </defs>
</svg>
